STARTFONT 2.1
FONT -JDECW-Gothic-Medium-R-Normal--24-240-75-75-M-240-JISX0208.1983-1
SIZE 24 75 75
FONTBOUNDINGBOX 26 26 0 -4

STARTPROPERTIES 26
FONTNAME_REGISTRY ""
FAMILY_NAME "Gothic"
FOUNDRY "JDECW"
WEIGHT_NAME "Medium"
SLANT "R"
SETWIDTH_NAME "Normal"
ADD_STYLE_NAME ""
PIXEL_SIZE 24
POINT_SIZE 240
RESOLUTION_X 75
RESOLUTION_Y 75
SPACING "M"
AVERAGE_WIDTH 240
CHARSET_REGISTRY "JISX0208.1983"
CHARSET_ENCODING "1"
DEVICE_FONT_NAME "Gothic-JISX0208.1983-1"
CHARSET_COLLECTIONS "JISX0208.1983 1"
FULL_NAME "Gothic-JISX0208.1983-1"
COPYRIGHT "Copyright (c) 1990 1991 TYPEBANK, Digital Equipment Corporation Japan"
CAP_HEIGHT 19
X_HEIGHT 13
WEIGHT 10
QUAD_WIDTH 26
DEFAULT_CHAR 41634
FONT_DESCENT 4
FONT_ASCENT 22
ENDPROPERTIES

CHARS 6970

STARTCHAR Ca1a1
ENCODING 41377
SWIDTH 1000 0
DWIDTH 26 0
BBX 26 26 0 -4
BITMAP
00000000
00000000
00000000
00000000
00000000
00000000
00000000
00000000
00000000
00000000
00000000
00000000
00000000
00000000
00000000
00000000
00000000
00000000
00000000
00000000
00000000
00000000
00000000
00000000
00000000
00000000
ENDCHAR

STARTCHAR Ca1a2
ENCODING 41378
SWIDTH 1000 0
DWIDTH 26 0
BBX 26 26 0 -4
BITMAP
00000000
00000000
00000000
00000000
00000000
00000000
00000000
00000000
00000000
00000000
00000000
00000000
00000000
00000000
00000000
00000000
00000000
10000000
38000000
3C000000
1E000000
0F000000
07000000
02000000
00000000
00000000
ENDCHAR

STARTCHAR Ca1a3
ENCODING 41379
SWIDTH 1000 0
DWIDTH 26 0
BBX 26 26 0 -4
BITMAP
00000000
00000000
00000000
00000000
00000000
00000000
00000000
00000000
00000000
00000000
00000000
00000000
00000000
00000000
00000000
00000000
00000000
00000000
0F000000
19800000
10800000
10800000
19800000
0F000000
00000000
00000000
ENDCHAR

STARTCHAR Ca1a4
ENCODING 41380
SWIDTH 1000 0
DWIDTH 26 0
BBX 26 26 0 -4
BITMAP
00000000
00000000
00000000
00000000
00000000
00000000
00000000
00000000
00000000
00000000
00000000
00000000
00000000
00000000
00000000
00000000
00000000
00000000
00000000
0F000000
0F000000
0F000000
03000000
06000000
0C000000
00000000
ENDCHAR

STARTCHAR Ca1a5
ENCODING 41381
SWIDTH 1000 0
DWIDTH 26 0
BBX 26 26 0 -4
BITMAP
00000000
00000000
00000000
00000000
00000000
00000000
00000000
00000000
00000000
00000000
00000000
00000000
00000000
00000000
00000000
00000000
00000000
00000000
00000000
0F000000
0F000000
0F000000
0F000000
00000000
00000000
00000000
ENDCHAR

STARTCHAR Ca1a6
ENCODING 41382
SWIDTH 1000 0
DWIDTH 26 0
BBX 26 26 0 -4
BITMAP
00000000
00000000
00000000
00000000
00000000
00000000
00000000
00000000
00000000
00000000
00000000
001E0000
001E0000
001E0000
001E0000
00000000
00000000
00000000
00000000
00000000
00000000
00000000
00000000
00000000
00000000
00000000
ENDCHAR

STARTCHAR Ca1a7
ENCODING 41383
SWIDTH 1000 0
DWIDTH 26 0
BBX 26 26 0 -4
BITMAP
00000000
00000000
00000000
00000000
00000000
00000000
00000000
00000000
00000000
001E0000
001E0000
001E0000
001E0000
00000000
00000000
00000000
00000000
00000000
001E0000
001E0000
001E0000
001E0000
00000000
00000000
00000000
00000000
ENDCHAR

STARTCHAR Ca1a8
ENCODING 41384
SWIDTH 1000 0
DWIDTH 26 0
BBX 26 26 0 -4
BITMAP
00000000
00000000
00000000
00000000
00000000
00000000
00000000
00000000
00000000
001E0000
001E0000
001E0000
001E0000
00000000
00000000
00000000
00000000
00000000
001E0000
001E0000
001E0000
00060000
000C0000
00180000
00000000
00000000
ENDCHAR

STARTCHAR Ca1a9
ENCODING 41385
SWIDTH 1000 0
DWIDTH 26 0
BBX 26 26 0 -4
BITMAP
00000000
00000000
003F0000
00FFC000
00E1C000
01C0E000
01806000
01806000
0000E000
0000C000
0001C000
00038000
00070000
00060000
000E0000
000C0000
000C0000
000C0000
00000000
00000000
001E0000
001E0000
001E0000
001E0000
00000000
00000000
ENDCHAR

STARTCHAR Ca1aa
ENCODING 41386
SWIDTH 1000 0
DWIDTH 26 0
BBX 26 26 0 -4
BITMAP
00000000
00000000
001E0000
001E0000
001E0000
001E0000
001E0000
001E0000
001E0000
001E0000
001E0000
000C0000
000C0000
000C0000
000C0000
000C0000
000C0000
000C0000
00000000
00000000
001E0000
001E0000
001E0000
001E0000
00000000
00000000
ENDCHAR

STARTCHAR Ca1ab
ENCODING 41387
SWIDTH 1000 0
DWIDTH 26 0
BBX 26 26 0 -4
BITMAP
00000000
00000000
02000000
07000000
03800000
11000000
38000000
1C000000
08000000
00000000
00000000
00000000
00000000
00000000
00000000
00000000
00000000
00000000
00000000
00000000
00000000
00000000
00000000
00000000
00000000
00000000
ENDCHAR

STARTCHAR Ca1ac
ENCODING 41388
SWIDTH 1000 0
DWIDTH 26 0
BBX 26 26 0 -4
BITMAP
00000000
00000000
1E000000
33000000
21000000
21000000
33000000
1E000000
00000000
00000000
00000000
00000000
00000000
00000000
00000000
00000000
00000000
00000000
00000000
00000000
00000000
00000000
00000000
00000000
00000000
00000000
ENDCHAR

STARTCHAR Ca1ad
ENCODING 41389
SWIDTH 1000 0
DWIDTH 26 0
BBX 26 26 0 -4
BITMAP
00000000
000E0000
003C0000
00000000
00000000
00000000
00000000
00000000
00000000
00000000
00000000
00000000
00000000
00000000
00000000
00000000
00000000
00000000
00000000
00000000
00000000
00000000
00000000
00000000
00000000
00000000
ENDCHAR

STARTCHAR Ca1ae
ENCODING 41390
SWIDTH 1000 0
DWIDTH 26 0
BBX 26 26 0 -4
BITMAP
00000000
001C0000
000F0000
00000000
00000000
00000000
00000000
00000000
00000000
00000000
00000000
00000000
00000000
00000000
00000000
00000000
00000000
00000000
00000000
00000000
00000000
00000000
00000000
00000000
00000000
00000000
ENDCHAR

STARTCHAR Ca1af
ENCODING 41391
SWIDTH 1000 0
DWIDTH 26 0
BBX 26 26 0 -4
BITMAP
00000000
00618000
00618000
00000000
00000000
00000000
00000000
00000000
00000000
00000000
00000000
00000000
00000000
00000000
00000000
00000000
00000000
00000000
00000000
00000000
00000000
00000000
00000000
00000000
00000000
00000000
ENDCHAR

STARTCHAR Ca1b0
ENCODING 41392
SWIDTH 1000 0
DWIDTH 26 0
BBX 26 26 0 -4
BITMAP
00000000
000C0000
001E0000
00330000
00000000
00000000
00000000
00000000
00000000
00000000
00000000
00000000
00000000
00000000
00000000
00000000
00000000
00000000
00000000
00000000
00000000
00000000
00000000
00000000
00000000
00000000
ENDCHAR

STARTCHAR Ca1b1
ENCODING 41393
SWIDTH 1000 0
DWIDTH 26 0
BBX 26 26 0 -4
BITMAP
00000000
7FFFFF80
00000000
00000000
00000000
00000000
00000000
00000000
00000000
00000000
00000000
00000000
00000000
00000000
00000000
00000000
00000000
00000000
00000000
00000000
00000000
00000000
00000000
00000000
00000000
00000000
ENDCHAR

STARTCHAR Ca1b2
ENCODING 41394
SWIDTH 1000 0
DWIDTH 26 0
BBX 26 26 0 -4
BITMAP
00000000
00000000
00000000
00000000
00000000
00000000
00000000
00000000
00000000
00000000
00000000
00000000
00000000
00000000
00000000
00000000
00000000
00000000
00000000
00000000
00000000
00000000
00000000
00000000
7FFFFF80
00000000
ENDCHAR

STARTCHAR Ca1b3
ENCODING 41395
SWIDTH 1000 0
DWIDTH 26 0
BBX 26 26 0 -4
BITMAP
00000000
00000000
00000000
00000000
00000000
00000000
00000000
00C00000
01F00000
00780000
003C0000
001E0000
000F0000
00078000
0003C000
0001E000
0000E000
0000F000
00004000
00000000
00000000
00000000
00000000
00000000
00000000
00000000
ENDCHAR

STARTCHAR Ca1b4
ENCODING 41396
SWIDTH 1000 0
DWIDTH 26 0
BBX 26 26 0 -4
BITMAP
00000000
00000000
00000000
00001000
00003800
00001C00
00008800
00C1C000
01F0E000
00784000
003C0000
001E0000
000F0000
00078000
0003C000
0001E000
0000E000
0000F000
00004000
00000000
00000000
00000000
00000000
00000000
00000000
00000000
ENDCHAR

STARTCHAR Ca1b5
ENCODING 41397
SWIDTH 1000 0
DWIDTH 26 0
BBX 26 26 0 -4
BITMAP
00000000
00000000
00000000
00000000
00000000
00000000
00000000
00C00000
01F00000
00780000
003E0000
000F0000
00078000
0003C000
0001C000
0000E000
0000E000
0001E000
000FC000
007F0000
003C0000
00000000
00000000
00000000
00000000
00000000
ENDCHAR

STARTCHAR Ca1b6
ENCODING 41398
SWIDTH 1000 0
DWIDTH 26 0
BBX 26 26 0 -4
BITMAP
00000000
00000000
00000000
00001000
00003800
00001C00
00008800
00C1C000
01F0E000
00784000
003E0000
000F0000
00078000
0003C000
0001C000
0000E000
0000E000
0001E000
000FC000
007F0000
003C0000
00000000
00000000
00000000
00000000
00000000
ENDCHAR

STARTCHAR Ca1b7
ENCODING 41399
SWIDTH 1000 0
DWIDTH 26 0
BBX 26 26 0 -4
BITMAP
00000000
00000000
00000000
00000000
00000000
00000000
00000000
0039C000
0039C000
0039C000
00318000
00738000
00738000
00630000
00630000
00E70000
00C60000
00C60000
00000000
00000000
00000000
00000000
00000000
00000000
00000000
00000000
ENDCHAR

STARTCHAR Ca1b8
ENCODING 41400
SWIDTH 1000 0
DWIDTH 26 0
BBX 26 26 0 -4
BITMAP
00000000
000C0000
001E0000
001E0000
00330000
00738000
00E1C000
01C0E000
03807000
0F003C00
3E001F00
78000780
23FFF100
03FFF000
000C0000
000C0000
000C0000
000C0000
000C0000
000C0000
000C0000
3FFFFF00
3FFFFF00
00000000
00000000
00000000
ENDCHAR

STARTCHAR Ca1b9
ENCODING 41401
SWIDTH 1000 0
DWIDTH 26 0
BBX 26 26 0 -4
BITMAP
00000000
00000000
00000000
00000000
00100000
001C0000
00180000
00180000
00380000
003FF000
007FF800
00E07000
01C06000
0380E000
0701C000
1E218000
0C738000
003F0000
000E0000
00070000
00038000
00010000
00000000
00000000
00000000
00000000
ENDCHAR

STARTCHAR Ca1ba
ENCODING 41402
SWIDTH 1000 0
DWIDTH 26 0
BBX 26 26 0 -4
BITMAP
00000000
00000000
00000000
00001000
00003800
00007000
0000E000
0000C000
01F1C000
03FB8000
071F0000
060F0000
0E0F8000
0C1DC000
0C38E000
1C307000
18602000
18E00000
19C00000
1B800000
1F000000
0E000000
0C000000
00000000
00000000
00000000
ENDCHAR

STARTCHAR Ca1bb
ENCODING 41403
SWIDTH 1000 0
DWIDTH 26 0
BBX 26 26 0 -4
BITMAP
00000000
00000000
00000000
003F0000
00FFC000
03E1F000
07807800
06001800
0E001C00
0C000C00
1C000E00
18000600
18000600
18000600
18000600
1C000E00
0C000C00
0E001C00
06001800
07807800
03E1F000
00FFC000
003F0000
00000000
00000000
00000000
ENDCHAR

STARTCHAR Ca1bc
ENCODING 41404
SWIDTH 1000 0
DWIDTH 26 0
BBX 26 26 0 -4
BITMAP
00000000
00000000
00000000
00000000
00000000
00000000
00000000
00000000
00000000
00000000
00000000
00000000
1FFFFE00
1FFFFE00
00000000
00000000
00000000
00000000
00000000
00000000
00000000
00000000
00000000
00000000
00000000
00000000
ENDCHAR

STARTCHAR Ca1bd
ENCODING 41405
SWIDTH 1000 0
DWIDTH 26 0
BBX 26 26 0 -4
BITMAP
00000000
00000000
00000000
00000000
00000000
00000000
00000000
00000000
00000000
00000000
00000000
00000000
3FFFFF00
3FFFFF00
00000000
00000000
00000000
00000000
00000000
00000000
00000000
00000000
00000000
00000000
00000000
00000000
ENDCHAR

STARTCHAR Ca1be
ENCODING 41406
SWIDTH 1000 0
DWIDTH 26 0
BBX 26 26 0 -4
BITMAP
00000000
00000000
00000000
00000000
00000000
00000000
00000000
00000000
00000000
00000000
00000000
00000000
00FFC000
00FFC000
00000000
00000000
00000000
00000000
00000000
00000000
00000000
00000000
00000000
00000000
00000000
00000000
ENDCHAR

STARTCHAR Ca1bf
ENCODING 41407
SWIDTH 1000 0
DWIDTH 26 0
BBX 26 26 0 -4
BITMAP
00000000
00000000
00000200
00000700
00000E00
00001C00
00003800
00007000
0000E000
0001C000
00038000
00070000
000E0000
001C0000
00380000
00700000
00E00000
01C00000
03800000
07000000
0E000000
1C000000
38000000
10000000
00000000
00000000
ENDCHAR

STARTCHAR Ca1c0
ENCODING 41408
SWIDTH 1000 0
DWIDTH 26 0
BBX 26 26 0 -4
BITMAP
00000000
00000000
10000000
38000000
1C000000
0E000000
07000000
03800000
01C00000
00E00000
00700000
00380000
001C0000
000E0000
00070000
00038000
0001C000
0000E000
00007000
00003800
00001C00
00000E00
00000700
00000200
00000000
00000000
ENDCHAR

STARTCHAR Ca1c1
ENCODING 41409
SWIDTH 1000 0
DWIDTH 26 0
BBX 26 26 0 -4
BITMAP
00000000
00000000
00000000
00000000
00000000
00000000
00000000
00000000
00000000
00000000
03E00300
0FF80700
1E3E1E00
380FFC00
3003F000
00000000
00000000
00000000
00000000
00000000
00000000
00000000
00000000
00000000
00000000
00000000
ENDCHAR

STARTCHAR Ca1c2
ENCODING 41410
SWIDTH 1000 0
DWIDTH 26 0
BBX 26 26 0 -4
BITMAP
00000000
00330000
00330000
00330000
00330000
00330000
00330000
00330000
00330000
00330000
00330000
00330000
00330000
00330000
00330000
00330000
00330000
00330000
00330000
00330000
00330000
00330000
00330000
00330000
00330000
00000000
ENDCHAR

STARTCHAR Ca1c3
ENCODING 41411
SWIDTH 1000 0
DWIDTH 26 0
BBX 26 26 0 -4
BITMAP
00000000
000C0000
000C0000
000C0000
000C0000
000C0000
000C0000
000C0000
000C0000
000C0000
000C0000
000C0000
000C0000
000C0000
000C0000
000C0000
000C0000
000C0000
000C0000
000C0000
000C0000
000C0000
000C0000
000C0000
000C0000
00000000
ENDCHAR

STARTCHAR Ca1c4
ENCODING 41412
SWIDTH 1000 0
DWIDTH 26 0
BBX 26 26 0 -4
BITMAP
00000000
00000000
00000000
00000000
00000000
00000000
00000000
00000000
00000000
00000000
00000000
1C1C0E00
1C1C0E00
1C1C0E00
00000000
00000000
00000000
00000000
00000000
00000000
00000000
00000000
00000000
00000000
00000000
00000000
ENDCHAR

STARTCHAR Ca1c5
ENCODING 41413
SWIDTH 1000 0
DWIDTH 26 0
BBX 26 26 0 -4
BITMAP
00000000
00000000
00000000
00000000
00000000
00000000
00000000
00000000
00000000
00000000
00000000
07003800
07003800
07003800
00000000
00000000
00000000
00000000
00000000
00000000
00000000
00000000
00000000
00000000
00000000
00000000
ENDCHAR

STARTCHAR Ca1c6
ENCODING 41414
SWIDTH 1000 0
DWIDTH 26 0
BBX 26 26 0 -4
BITMAP
00000000
00000000
00000600
00000C00
00001800
00001800
00001E00
00001E00
00001E00
00001E00
00000000
00000000
00000000
00000000
00000000
00000000
00000000
00000000
00000000
00000000
00000000
00000000
00000000
00000000
00000000
00000000
ENDCHAR

STARTCHAR Ca1c7
ENCODING 41415
SWIDTH 1000 0
DWIDTH 26 0
BBX 26 26 0 -4
BITMAP
00000000
00000000
1E000000
1E000000
1E000000
1E000000
06000000
06000000
0C000000
18000000
00000000
00000000
00000000
00000000
00000000
00000000
00000000
00000000
00000000
00000000
00000000
00000000
00000000
00000000
00000000
00000000
ENDCHAR

STARTCHAR Ca1c8
ENCODING 41416
SWIDTH 1000 0
DWIDTH 26 0
BBX 26 26 0 -4
BITMAP
00000000
00000000
00018600
00030C00
00061800
00061800
00079E00
00079E00
00079E00
00079E00
00000000
00000000
00000000
00000000
00000000
00000000
00000000
00000000
00000000
00000000
00000000
00000000
00000000
00000000
00000000
00000000
ENDCHAR

STARTCHAR Ca1c9
ENCODING 41417
SWIDTH 1000 0
DWIDTH 26 0
BBX 26 26 0 -4
BITMAP
00000000
00000000
1E780000
1E780000
1E780000
1E780000
06180000
06180000
0C300000
18600000
00000000
00000000
00000000
00000000
00000000
00000000
00000000
00000000
00000000
00000000
00000000
00000000
00000000
00000000
00000000
00000000
ENDCHAR

STARTCHAR Ca1ca
ENCODING 41418
SWIDTH 1000 0
DWIDTH 26 0
BBX 26 26 0 -4
BITMAP
00000000
00000300
00000700
00000E00
00000C00
00001C00
00001800
00001800
00003800
00003000
00003000
00003000
00003000
00003000
00003000
00003000
00003000
00003800
00001800
00001800
00001C00
00000C00
00000E00
00000700
00000300
00000000
ENDCHAR

STARTCHAR Ca1cb
ENCODING 41419
SWIDTH 1000 0
DWIDTH 26 0
BBX 26 26 0 -4
BITMAP
00000000
30000000
38000000
1C000000
0C000000
0E000000
06000000
06000000
07000000
03000000
03000000
03000000
03000000
03000000
03000000
03000000
03000000
07000000
06000000
06000000
0E000000
0C000000
1C000000
38000000
30000000
00000000
ENDCHAR

STARTCHAR Ca1cc
ENCODING 41420
SWIDTH 1000 0
DWIDTH 26 0
BBX 26 26 0 -4
BITMAP
00000000
00000700
00001F00
00007C00
00007000
00006000
00006000
00006000
00006000
00006000
00006000
00006000
00006000
00006000
00006000
00006000
00006000
00006000
00006000
00006000
00006000
00007000
00007C00
00001F00
00000700
00000000
ENDCHAR

STARTCHAR Ca1cd
ENCODING 41421
SWIDTH 1000 0
DWIDTH 26 0
BBX 26 26 0 -4
BITMAP
00000000
38000000
3E000000
0F800000
03800000
01800000
01800000
01800000
01800000
01800000
01800000
01800000
01800000
01800000
01800000
01800000
01800000
01800000
01800000
01800000
01800000
03800000
0F800000
3E000000
38000000
00000000
ENDCHAR

STARTCHAR Ca1ce
ENCODING 41422
SWIDTH 1000 0
DWIDTH 26 0
BBX 26 26 0 -4
BITMAP
00000000
0000FF00
0000FF00
0000C000
0000C000
0000C000
0000C000
0000C000
0000C000
0000C000
0000C000
0000C000
0000C000
0000C000
0000C000
0000C000
0000C000
0000C000
0000C000
0000C000
0000C000
0000C000
0000C000
0000FF00
0000FF00
00000000
ENDCHAR

STARTCHAR Ca1cf
ENCODING 41423
SWIDTH 1000 0
DWIDTH 26 0
BBX 26 26 0 -4
BITMAP
00000000
3FC00000
3FC00000
00C00000
00C00000
00C00000
00C00000
00C00000
00C00000
00C00000
00C00000
00C00000
00C00000
00C00000
00C00000
00C00000
00C00000
00C00000
00C00000
00C00000
00C00000
00C00000
00C00000
3FC00000
3FC00000
00000000
ENDCHAR

STARTCHAR Ca1d0
ENCODING 41424
SWIDTH 1000 0
DWIDTH 26 0
BBX 26 26 0 -4
BITMAP
00000000
00000700
00000F00
00001C00
00001800
00001800
00001800
00001800
00001800
00001800
00003800
00003000
0000F000
0000F000
00003000
00003800
00001800
00001800
00001800
00001800
00001800
00001800
00001C00
00000F00
00000700
00000000
ENDCHAR

STARTCHAR Ca1d1
ENCODING 41425
SWIDTH 1000 0
DWIDTH 26 0
BBX 26 26 0 -4
BITMAP
00000000
38000000
3C000000
0E000000
06000000
06000000
06000000
06000000
06000000
06000000
07000000
03000000
03C00000
03C00000
03000000
07000000
06000000
06000000
06000000
06000000
06000000
06000000
0E000000
3C000000
38000000
00000000
ENDCHAR

STARTCHAR Ca1d2
ENCODING 41426
SWIDTH 1000 0
DWIDTH 26 0
BBX 26 26 0 -4
BITMAP
00000000
00000300
00000700
00000E00
00001C00
00003800
00007000
0000E000
0001C000
00038000
00070000
000E0000
001C0000
001C0000
000E0000
00070000
00038000
0001C000
0000E000
00007000
00003800
00001C00
00000E00
00000700
00000300
00000000
ENDCHAR

STARTCHAR Ca1d3
ENCODING 41427
SWIDTH 1000 0
DWIDTH 26 0
BBX 26 26 0 -4
BITMAP
00000000
30000000
38000000
1C000000
0E000000
07000000
03800000
01C00000
00E00000
00700000
00380000
001C0000
000E0000
000E0000
001C0000
00380000
00700000
00E00000
01C00000
03800000
07000000
0E000000
1C000000
38000000
30000000
00000000
ENDCHAR

STARTCHAR Ca1d4
ENCODING 41428
SWIDTH 1000 0
DWIDTH 26 0
BBX 26 26 0 -4
BITMAP
00000000
0000C300
0001C700
00038E00
00071C00
000E3800
001C7000
0038E000
0071C000
00E38000
01C70000
038E0000
071C0000
071C0000
038E0000
01C70000
00E38000
0071C000
0038E000
001C7000
000E3800
00071C00
00038E00
0001C700
0000C300
00000000
ENDCHAR

STARTCHAR Ca1d5
ENCODING 41429
SWIDTH 1000 0
DWIDTH 26 0
BBX 26 26 0 -4
BITMAP
00000000
30C00000
38E00000
1C700000
0E380000
071C0000
038E0000
01C70000
00E38000
0071C000
0038E000
001C7000
000E3800
000E3800
001C7000
0038E000
0071C000
00E38000
01C70000
038E0000
071C0000
0E380000
1C700000
38E00000
30C00000
00000000
ENDCHAR

STARTCHAR Ca1d6
ENCODING 41430
SWIDTH 1000 0
DWIDTH 26 0
BBX 26 26 0 -4
BITMAP
00000000
00007F00
00007F00
00006000
00006000
00006000
00006000
00006000
00006000
00006000
00006000
00006000
00006000
00006000
00006000
00006000
00006000
00006000
00006000
00000000
00000000
00000000
00000000
00000000
00000000
00000000
ENDCHAR

STARTCHAR Ca1d7
ENCODING 41431
SWIDTH 1000 0
DWIDTH 26 0
BBX 26 26 0 -4
BITMAP
00000000
00000000
00000000
00000000
00000000
00000000
00000000
01800000
01800000
01800000
01800000
01800000
01800000
01800000
01800000
01800000
01800000
01800000
01800000
01800000
01800000
01800000
01800000
3F800000
3F800000
00000000
ENDCHAR

STARTCHAR Ca1d8
ENCODING 41432
SWIDTH 1000 0
DWIDTH 26 0
BBX 26 26 0 -4
BITMAP
00000000
0003FF00
0003FF00
00030300
00030300
00033F00
00033F00
00033000
00033000
00033000
00033000
00033000
00033000
00033000
00033000
00033000
00033000
0003F000
0003F000
00000000
00000000
00000000
00000000
00000000
00000000
00000000
ENDCHAR

STARTCHAR Ca1d9
ENCODING 41433
SWIDTH 1000 0
DWIDTH 26 0
BBX 26 26 0 -4
BITMAP
00000000
00000000
00000000
00000000
00000000
00000000
00000000
03F00000
03F00000
03300000
03300000
03300000
03300000
03300000
03300000
03300000
03300000
03300000
03300000
3F300000
3F300000
30300000
30300000
3FF00000
3FF00000
00000000
ENDCHAR

STARTCHAR Ca1da
ENCODING 41434
SWIDTH 1000 0
DWIDTH 26 0
BBX 26 26 0 -4
BITMAP
00000000
00003F00
00003E00
00003C00
00003C00
00003800
00003800
00003800
00003000
00003000
00003000
00003000
00003000
00003000
00003000
00003000
00003000
00003000
00003800
00003800
00003800
00003C00
00003C00
00003E00
00003F00
00000000
ENDCHAR

STARTCHAR Ca1db
ENCODING 41435
SWIDTH 1000 0
DWIDTH 26 0
BBX 26 26 0 -4
BITMAP
00000000
3F000000
1F000000
0F000000
0F000000
07000000
07000000
07000000
03000000
03000000
03000000
03000000
03000000
03000000
03000000
03000000
03000000
03000000
07000000
07000000
07000000
0F000000
0F000000
1F000000
3F000000
00000000
ENDCHAR

STARTCHAR Ca1dc
ENCODING 41436
SWIDTH 1000 0
DWIDTH 26 0
BBX 26 26 0 -4
BITMAP
00000000
00000000
00000000
00000000
000C0000
000C0000
000C0000
000C0000
000C0000
000C0000
000C0000
000C0000
0FFFFC00
0FFFFC00
000C0000
000C0000
000C0000
000C0000
000C0000
000C0000
000C0000
000C0000
00000000
00000000
00000000
00000000
ENDCHAR

STARTCHAR Ca1dd
ENCODING 41437
SWIDTH 1000 0
DWIDTH 26 0
BBX 26 26 0 -4
BITMAP
00000000
00000000
00000000
00000000
00000000
00000000
00000000
00000000
00000000
00000000
00000000
00000000
0FFFFC00
0FFFFC00
00000000
00000000
00000000
00000000
00000000
00000000
00000000
00000000
00000000
00000000
00000000
00000000
ENDCHAR

STARTCHAR Ca1de
ENCODING 41438
SWIDTH 1000 0
DWIDTH 26 0
BBX 26 26 0 -4
BITMAP
00000000
00000000
00000000
00000000
000C0000
000C0000
000C0000
000C0000
000C0000
000C0000
0FFFFC00
0FFFFC00
000C0000
000C0000
000C0000
000C0000
000C0000
000C0000
00000000
00000000
0FFFFC00
0FFFFC00
00000000
00000000
00000000
00000000
ENDCHAR

STARTCHAR Ca1df
ENCODING 41439
SWIDTH 1000 0
DWIDTH 26 0
BBX 26 26 0 -4
BITMAP
00000000
00000000
00000000
00000000
00000000
02000800
07001C00
03803800
01C07000
00E0E000
0071C000
003B8000
001F0000
000E0000
001F0000
003B8000
0071C000
00E0E000
01C07000
03803800
07001C00
02000800
00000000
00000000
00000000
00000000
ENDCHAR

STARTCHAR Ca1e0
ENCODING 41440
SWIDTH 1000 0
DWIDTH 26 0
BBX 26 26 0 -4
BITMAP
00000000
00000000
00000000
00000000
00000000
000C0000
001E0000
001E0000
000C0000
00000000
00000000
00000000
0FFFFC00
0FFFFC00
00000000
00000000
00000000
000C0000
001E0000
001E0000
000C0000
00000000
00000000
00000000
00000000
00000000
ENDCHAR

STARTCHAR Ca1e1
ENCODING 41441
SWIDTH 1000 0
DWIDTH 26 0
BBX 26 26 0 -4
BITMAP
00000000
00000000
00000000
00000000
00000000
00000000
00000000
00000000
00000000
0FFFFC00
0FFFFC00
00000000
00000000
00000000
00000000
0FFFFC00
0FFFFC00
00000000
00000000
00000000
00000000
00000000
00000000
00000000
00000000
00000000
ENDCHAR

STARTCHAR Ca1e2
ENCODING 41442
SWIDTH 1000 0
DWIDTH 26 0
BBX 26 26 0 -4
BITMAP
00000000
00000000
00000000
00000000
0000C000
0000C000
00018000
00018000
00030000
0FFFFC00
0FFFFC00
00060000
000C0000
000C0000
00180000
0FFFFC00
0FFFFC00
00300000
00600000
00600000
00C00000
00C00000
00000000
00000000
00000000
00000000
ENDCHAR

STARTCHAR Ca1e3
ENCODING 41443
SWIDTH 1000 0
DWIDTH 26 0
BBX 26 26 0 -4
BITMAP
00000000
00000000
00000300
00000F00
00003C00
0000F000
0003C000
000F0000
003C0000
00F00000
03C00000
0F000000
3C000000
3C000000
0F000000
03C00000
00F00000
003C0000
000F0000
0003C000
0000F000
00003C00
00000F00
00000300
00000000
00000000
ENDCHAR

STARTCHAR Ca1e4
ENCODING 41444
SWIDTH 1000 0
DWIDTH 26 0
BBX 26 26 0 -4
BITMAP
00000000
00000000
30000000
3C000000
0F000000
03C00000
00F00000
003C0000
000F0000
0003C000
0000F000
00003C00
00000F00
00000F00
00003C00
0000F000
0003C000
000F0000
003C0000
00F00000
03C00000
0F000000
3C000000
30000000
00000000
00000000
ENDCHAR

STARTCHAR Ca1e5
ENCODING 41445
SWIDTH 1000 0
DWIDTH 26 0
BBX 26 26 0 -4
BITMAP
00000000
00000000
00000E00
00007E00
0003F000
001F8000
00FC0000
07E00000
1F000000
38000000
1F000000
07E00000
00FC0000
001F8000
0003F000
00007E00
00000E00
00000000
1FFFFE00
1FFFFE00
00000000
00000000
1FFFFE00
1FFFFE00
00000000
00000000
ENDCHAR

STARTCHAR Ca1e6
ENCODING 41446
SWIDTH 1000 0
DWIDTH 26 0
BBX 26 26 0 -4
BITMAP
00000000
00000000
1C000000
1F800000
03F00000
007E0000
000FC000
0001F800
00003E00
00000700
00003E00
0001F800
000FC000
007E0000
03F00000
1F800000
1C000000
00000000
1FFFFE00
1FFFFE00
00000000
00000000
1FFFFE00
1FFFFE00
00000000
00000000
ENDCHAR

STARTCHAR Ca1e7
ENCODING 41447
SWIDTH 1000 0
DWIDTH 26 0
BBX 26 26 0 -4
BITMAP
00000000
00000000
00000000
00000000
00000000
00000000
00000000
00000000
0F80F800
1FE3FC00
38F78E00
303E0600
301C0600
301C0600
303E0600
38F78E00
1FE3FC00
0F80F800
00000000
00000000
00000000
00000000
00000000
00000000
00000000
00000000
ENDCHAR

STARTCHAR Ca1e8
ENCODING 41448
SWIDTH 1000 0
DWIDTH 26 0
BBX 26 26 0 -4
BITMAP
00000000
00000000
00000000
00000000
000C0000
001E0000
001E0000
000C0000
00000000
00000000
00000000
00000000
00000000
00000000
00000000
00000000
06001800
0F003C00
0F003C00
06001800
00000000
00000000
00000000
00000000
00000000
00000000
ENDCHAR

STARTCHAR Ca1e9
ENCODING 41449
SWIDTH 1000 0
DWIDTH 26 0
BBX 26 26 0 -4
BITMAP
00000000
00000000
00000000
0003FE00
0003FE00
00001E00
00003E00
00007600
0000E600
0001C600
00038600
00070600
03CE0000
0FFC0000
1C380000
18180000
300C0000
300C0000
300C0000
300C0000
18180000
1C380000
0FF00000
03C00000
00000000
00000000
ENDCHAR

STARTCHAR Ca1ea
ENCODING 41450
SWIDTH 1000 0
DWIDTH 26 0
BBX 26 26 0 -4
BITMAP
00000000
00000000
001E0000
007F8000
00E1C000
00C0C000
01806000
01806000
01806000
01806000
00C0C000
00E1C000
007F8000
001E0000
000C0000
000C0000
07FFF800
07FFF800
000C0000
000C0000
000C0000
000C0000
000C0000
000C0000
00000000
00000000
ENDCHAR

STARTCHAR Ca1eb
ENCODING 41451
SWIDTH 1000 0
DWIDTH 26 0
BBX 26 26 0 -4
BITMAP
00000000
00000000
1E000000
33000000
21000000
21000000
33000000
1E000000
00000000
00000000
00000000
00000000
00000000
00000000
00000000
00000000
00000000
00000000
00000000
00000000
00000000
00000000
00000000
00000000
00000000
00000000
ENDCHAR

STARTCHAR Ca1ec
ENCODING 41452
SWIDTH 1000 0
DWIDTH 26 0
BBX 26 26 0 -4
BITMAP
00000000
00000000
0E000000
0E000000
0C000000
1C000000
18000000
38000000
30000000
00000000
00000000
00000000
00000000
00000000
00000000
00000000
00000000
00000000
00000000
00000000
00000000
00000000
00000000
00000000
00000000
00000000
ENDCHAR

STARTCHAR Ca1ed
ENCODING 41453
SWIDTH 1000 0
DWIDTH 26 0
BBX 26 26 0 -4
BITMAP
00000000
00000000
0E700000
0E700000
0C600000
1CE00000
18C00000
39C00000
31800000
00000000
00000000
00000000
00000000
00000000
00000000
00000000
00000000
00000000
00000000
00000000
00000000
00000000
00000000
00000000
00000000
00000000
ENDCHAR

STARTCHAR Ca1ee
ENCODING 41454
SWIDTH 1000 0
DWIDTH 26 0
BBX 26 26 0 -4
BITMAP
00000000
00000000
00000000
1E000000
3307E000
211FF800
213C3C00
33700E00
1E600600
00E00600
00C00000
00C00000
00C00000
00C00000
00C00000
00C00000
00E00600
00600600
00700E00
003C3C00
001FF800
0007E000
00000000
00000000
00000000
00000000
ENDCHAR

STARTCHAR Ca1ef
ENCODING 41455
SWIDTH 1000 0
DWIDTH 26 0
BBX 26 26 0 -4
BITMAP
00000000
00000000
00000000
00000000
03807000
01C0E000
00C0C000
00E1C000
00618000
00738000
00330000
03FFF000
03FFF000
000C0000
000C0000
03FFF000
03FFF000
000C0000
000C0000
000C0000
000C0000
000C0000
00000000
00000000
00000000
00000000
ENDCHAR

STARTCHAR Ca1f0
ENCODING 41456
SWIDTH 1000 0
DWIDTH 26 0
BBX 26 26 0 -4
BITMAP
00000000
00000000
000C0000
000C0000
003F0000
00FFC000
01CCE000
018C6000
018C6000
018C0000
01CC0000
00FF0000
003FC000
000DE000
000C7000
000C3000
018C3000
018C3000
01ECF000
00FFE000
003F8000
000C0000
000C0000
000C0000
00000000
00000000
ENDCHAR

STARTCHAR Ca1f1
ENCODING 41457
SWIDTH 1000 0
DWIDTH 26 0
BBX 26 26 0 -4
BITMAP
00000000
00000000
00000000
00018000
00018000
00018000
00030000
001F0000
007F8000
00E6C000
00C6C000
018C0000
018C0000
018C0000
018C0000
00D8C000
00D9C000
007F8000
003E0000
00300000
00300000
00600000
00600000
00000000
00000000
00000000
ENDCHAR

STARTCHAR Ca1f2
ENCODING 41458
SWIDTH 1000 0
DWIDTH 26 0
BBX 26 26 0 -4
BITMAP
00000000
00000000
00000000
000F0000
003FC000
0030C000
00706000
00606000
00600000
00600000
00300000
03FF8000
03FF8000
00180000
00180000
07980000
0FD80000
1C700800
18381C00
1C7C7800
0FEFF000
0783C000
00000000
00000000
00000000
00000000
ENDCHAR

STARTCHAR Ca1f3
ENCODING 41459
SWIDTH 1000 0
DWIDTH 26 0
BBX 26 26 0 -4
BITMAP
00000000
00000000
00006000
0000E000
0780C000
0FC1C000
1CE18000
18638000
18630000
18670000
1CE60000
0FCE0000
078C0000
001CF000
0019F800
003B9C00
00330C00
00730C00
00630C00
00E39C00
00C1F800
01C0F000
01800000
01800000
00000000
00000000
ENDCHAR

STARTCHAR Ca1f4
ENCODING 41460
SWIDTH 1000 0
DWIDTH 26 0
BBX 26 26 0 -4
BITMAP
00000000
00000000
00000000
0030C000
0030C000
0030C000
0030C000
03FFF800
03FFF800
00618000
00618000
00618000
00618000
00618000
00618000
00618000
07FFF000
07FFF000
00C30000
00C30000
00C30000
00C30000
00C30000
00000000
00000000
00000000
ENDCHAR

STARTCHAR Ca1f5
ENCODING 41461
SWIDTH 1000 0
DWIDTH 26 0
BBX 26 26 0 -4
BITMAP
00000000
00000000
00380000
00FE0000
01C70000
01830000
03018000
03018000
03818000
01830000
01CF0000
00FE0000
00781800
01F81800
079C1800
060E1800
0C073000
0C03B000
0C01E000
0E00E000
0787F000
03FF3800
00FC1C00
00000000
00000000
00000000
ENDCHAR

STARTCHAR Ca1f6
ENCODING 41462
SWIDTH 1000 0
DWIDTH 26 0
BBX 26 26 0 -4
BITMAP
00000000
00000000
00000000
00000000
00000000
00080000
001C0000
011C4000
039CE000
03C9E000
01EBC000
007F0000
001C0000
007F0000
01EBC000
03C9E000
039CE000
011C4000
001C0000
00080000
00000000
00000000
00000000
00000000
00000000
00000000
ENDCHAR

STARTCHAR Ca1f7
ENCODING 41463
SWIDTH 1000 0
DWIDTH 26 0
BBX 26 26 0 -4
BITMAP
00000000
00000000
00000000
003F8000
00FFE000
01E0F000
03803800
07001800
061EDC00
0E3FCC00
0C318C00
0C718C00
0C630C00
0C631C00
0C633800
0E7FF000
063DC000
07000C00
03801C00
01E07800
00FFF000
003FC000
00000000
00000000
00000000
00000000
ENDCHAR

STARTCHAR Ca1f8
ENCODING 41464
SWIDTH 1000 0
DWIDTH 26 0
BBX 26 26 0 -4
BITMAP
00000000
00000000
001E0000
007F8000
00E1C000
00C0C000
00C0C000
00E00000
007C0000
007F0000
00E78000
00C1C000
00C0C000
00E0C000
0079C000
003F8000
000F8000
0001C000
0000C000
00C0C000
00C0C000
00E1C000
007F8000
001E0000
00000000
00000000
ENDCHAR

STARTCHAR Ca1f9
ENCODING 41465
SWIDTH 1000 0
DWIDTH 26 0
BBX 26 26 0 -4
BITMAP
00000000
00000000
000C0000
000C0000
000C0000
001E0000
001E0000
00330000
00330000
3FE1FF00
0FE1FC00
06001800
03003000
01806000
00C0C000
00C0C000
009E4000
01BF6000
0173A000
03C0F000
03807000
06001800
0C000C00
00000000
00000000
00000000
ENDCHAR

STARTCHAR Ca1fa
ENCODING 41466
SWIDTH 1000 0
DWIDTH 26 0
BBX 26 26 0 -4
BITMAP
00000000
00000000
000C0000
000C0000
000C0000
001E0000
001E0000
003F0000
003F0000
3FFFFF00
0FFFFC00
07FFF800
03FFF000
01FFE000
00FFC000
00FFC000
00FFC000
01FFE000
01F3E000
03C0F000
03807000
06001800
0C000C00
00000000
00000000
00000000
ENDCHAR

STARTCHAR Ca1fb
ENCODING 41467
SWIDTH 1000 0
DWIDTH 26 0
BBX 26 26 0 -4
BITMAP
00000000
00000000
00000000
003F0000
00FFC000
03E1F000
07807800
06001800
0E001C00
0C000C00
1C000E00
18000600
18000600
18000600
18000600
1C000E00
0C000C00
0E001C00
06001800
07807800
03E1F000
00FFC000
003F0000
00000000
00000000
00000000
ENDCHAR

STARTCHAR Ca1fc
ENCODING 41468
SWIDTH 1000 0
DWIDTH 26 0
BBX 26 26 0 -4
BITMAP
00000000
00000000
00000000
003F0000
00FFC000
03FFF000
07FFF800
07FFF800
0FFFFC00
0FFFFC00
1FFFFE00
1FFFFE00
1FFFFE00
1FFFFE00
1FFFFE00
1FFFFE00
0FFFFC00
0FFFFC00
07FFF800
07FFF800
03FFF000
00FFC000
003F0000
00000000
00000000
00000000
ENDCHAR

STARTCHAR Ca1fd
ENCODING 41469
SWIDTH 1000 0
DWIDTH 26 0
BBX 26 26 0 -4
BITMAP
00000000
00000000
00000000
003F0000
00FFC000
03E1F000
07807800
061E1800
0E7F9C00
0CF3CC00
1CC0CE00
19C0E600
19806600
19806600
19C0E600
1CC0CE00
0CF3CC00
0E7F9C00
061E1800
07807800
03E1F000
00FFC000
003F0000
00000000
00000000
00000000
ENDCHAR

STARTCHAR Ca1fe
ENCODING 41470
SWIDTH 1000 0
DWIDTH 26 0
BBX 26 26 0 -4
BITMAP
00000000
00000000
000C0000
001E0000
003F0000
00738000
00E1C000
01C0E000
03807000
07003800
0E001C00
1C000E00
38000700
38000700
1C000E00
0E001C00
07003800
03807000
01C0E000
00E1C000
00738000
003F0000
001E0000
000C0000
00000000
00000000
ENDCHAR

STARTCHAR Ca2a1
ENCODING 41633
SWIDTH 1000 0
DWIDTH 26 0
BBX 26 26 0 -4
BITMAP
00000000
00000000
000C0000
001E0000
003F0000
007F8000
00FFC000
01FFE000
03FFF000
07FFF800
0FFFFC00
1FFFFE00
3FFFFF00
3FFFFF00
1FFFFE00
0FFFFC00
07FFF800
03FFF000
01FFE000
00FFC000
007F8000
003F0000
001E0000
000C0000
00000000
00000000
ENDCHAR

STARTCHAR Ca2a2
ENCODING 41634
SWIDTH 1000 0
DWIDTH 26 0
BBX 26 26 0 -4
BITMAP
00000000
00000000
00000000
00000000
0FFFFC00
0FFFFC00
0C000C00
0C000C00
0C000C00
0C000C00
0C000C00
0C000C00
0C000C00
0C000C00
0C000C00
0C000C00
0C000C00
0C000C00
0C000C00
0C000C00
0FFFFC00
0FFFFC00
00000000
00000000
00000000
00000000
ENDCHAR

STARTCHAR Ca2a3
ENCODING 41635
SWIDTH 1000 0
DWIDTH 26 0
BBX 26 26 0 -4
BITMAP
00000000
00000000
00000000
00000000
0FFFFC00
0FFFFC00
0FFFFC00
0FFFFC00
0FFFFC00
0FFFFC00
0FFFFC00
0FFFFC00
0FFFFC00
0FFFFC00
0FFFFC00
0FFFFC00
0FFFFC00
0FFFFC00
0FFFFC00
0FFFFC00
0FFFFC00
0FFFFC00
00000000
00000000
00000000
00000000
ENDCHAR

STARTCHAR Ca2a4
ENCODING 41636
SWIDTH 1000 0
DWIDTH 26 0
BBX 26 26 0 -4
BITMAP
00000000
00000000
00000000
000C0000
000C0000
001E0000
001E0000
00330000
00330000
00618000
00618000
00C0C000
00C0C000
01806000
01806000
03003000
03003000
06001800
06001800
0C000C00
0FFFFC00
1FFFFE00
00000000
00000000
00000000
00000000
ENDCHAR

STARTCHAR Ca2a5
ENCODING 41637
SWIDTH 1000 0
DWIDTH 26 0
BBX 26 26 0 -4
BITMAP
00000000
00000000
00000000
000C0000
000C0000
001E0000
001E0000
003F0000
003F0000
007F8000
007F8000
00FFC000
00FFC000
01FFE000
01FFE000
03FFF000
03FFF000
07FFF800
07FFF800
0FFFFC00
0FFFFC00
1FFFFE00
00000000
00000000
00000000
00000000
ENDCHAR

STARTCHAR Ca2a6
ENCODING 41638
SWIDTH 1000 0
DWIDTH 26 0
BBX 26 26 0 -4
BITMAP
00000000
00000000
00000000
00000000
1FFFFE00
0FFFFC00
0C000C00
06001800
06001800
03003000
03003000
01806000
01806000
00C0C000
00C0C000
00618000
00618000
00330000
00330000
001E0000
001E0000
000C0000
000C0000
00000000
00000000
00000000
ENDCHAR

STARTCHAR Ca2a7
ENCODING 41639
SWIDTH 1000 0
DWIDTH 26 0
BBX 26 26 0 -4
BITMAP
00000000
00000000
00000000
00000000
1FFFFE00
0FFFFC00
0FFFFC00
07FFF800
07FFF800
03FFF000
03FFF000
01FFE000
01FFE000
00FFC000
00FFC000
007F8000
007F8000
003F0000
003F0000
001E0000
001E0000
000C0000
000C0000
00000000
00000000
00000000
ENDCHAR

STARTCHAR Ca2a8
ENCODING 41640
SWIDTH 1000 0
DWIDTH 26 0
BBX 26 26 0 -4
BITMAP
00000000
00000000
00000000
180C0600
1C1E0E00
0E1E1C00
070C3800
03807000
01C0E000
00E1C000
00738000
0C3F0C00
1E1E1E00
1E1E1E00
0C3F0C00
00738000
00E1C000
01C0E000
03807000
070C3800
0E1E1C00
1C1E0E00
180C0600
00000000
00000000
00000000
ENDCHAR

STARTCHAR Ca2a9
ENCODING 41641
SWIDTH 1000 0
DWIDTH 26 0
BBX 26 26 0 -4
BITMAP
00000000
00000000
00000000
00000000
00000000
0FFFF800
0FFFF800
00000000
00000000
00000000
00000000
0FFFF800
0FFFF800
001C0000
001C0000
001C0000
001C0000
001C0000
001C0000
001C0000
001C0000
001C0000
001C0000
00000000
00000000
00000000
ENDCHAR

STARTCHAR Ca2aa
ENCODING 41642
SWIDTH 1000 0
DWIDTH 26 0
BBX 26 26 0 -4
BITMAP
00000000
00000000
00000000
00000000
00000000
00000000
00000000
00000000
00007000
00003800
00001C00
00000E00
3FFFFF00
3FFFFF00
00000E00
00001C00
00003800
00007000
00000000
00000000
00000000
00000000
00000000
00000000
00000000
00000000
ENDCHAR

STARTCHAR Ca2ab
ENCODING 41643
SWIDTH 1000 0
DWIDTH 26 0
BBX 26 26 0 -4
BITMAP
00000000
00000000
00000000
00000000
00000000
00000000
00000000
00000000
03800000
07000000
0E000000
1C000000
3FFFFF00
3FFFFF00
1C000000
0E000000
07000000
03800000
00000000
00000000
00000000
00000000
00000000
00000000
00000000
00000000
ENDCHAR

STARTCHAR Ca2ac
ENCODING 41644
SWIDTH 1000 0
DWIDTH 26 0
BBX 26 26 0 -4
BITMAP
00000000
00000000
000C0000
001E0000
003F0000
007F8000
00EDC000
00CCC000
008C4000
000C0000
000C0000
000C0000
000C0000
000C0000
000C0000
000C0000
000C0000
000C0000
000C0000
000C0000
000C0000
000C0000
000C0000
000C0000
00000000
00000000
ENDCHAR

STARTCHAR Ca2ad
ENCODING 41645
SWIDTH 1000 0
DWIDTH 26 0
BBX 26 26 0 -4
BITMAP
00000000
00000000
000C0000
000C0000
000C0000
000C0000
000C0000
000C0000
000C0000
000C0000
000C0000
000C0000
000C0000
000C0000
000C0000
000C0000
000C0000
008C4000
00CCC000
00EDC000
007F8000
003F0000
001E0000
000C0000
00000000
00000000
ENDCHAR

STARTCHAR Ca2ae
ENCODING 41646
SWIDTH 1000 0
DWIDTH 26 0
BBX 26 26 0 -4
BITMAP
00000000
00000000
00000000
00000000
00000000
00000000
00000000
0FFFF800
0FFFF800
0FFFF800
0FFFF800
00000000
00000000
00000000
00000000
0FFFF800
0FFFF800
0FFFF800
0FFFF800
00000000
00000000
00000000
00000000
00000000
00000000
00000000
ENDCHAR

STARTCHAR Ca2af
ENCODING 41647
SWIDTH 1000 0
DWIDTH 26 0
BBX 26 26 0 -4
BITMAP
00000000
00000000
00000000
00000000
00000000
00000000
00000000
00000000
00000000
00000000
00000000
00000000
00000000
00000000
00000000
00000000
00000000
00000000
00000000
00000000
00000000
00000000
00000000
00000000
00000000
00000000
ENDCHAR

STARTCHAR Ca2b0
ENCODING 41648
SWIDTH 1000 0
DWIDTH 26 0
BBX 26 26 0 -4
BITMAP
00000000
00000000
00000000
00000000
00000000
00000000
00000000
00000000
00000000
00000000
00000000
00000000
00000000
00000000
00000000
00000000
00000000
00000000
00000000
00000000
00000000
00000000
00000000
00000000
00000000
00000000
ENDCHAR

STARTCHAR Ca2b1
ENCODING 41649
SWIDTH 1000 0
DWIDTH 26 0
BBX 26 26 0 -4
BITMAP
00000000
00000000
00000000
00000000
00000000
00000000
00000000
00000000
00000000
00000000
00000000
00000000
00000000
00000000
00000000
00000000
00000000
00000000
00000000
00000000
00000000
00000000
00000000
00000000
00000000
00000000
ENDCHAR

STARTCHAR Ca2b2
ENCODING 41650
SWIDTH 1000 0
DWIDTH 26 0
BBX 26 26 0 -4
BITMAP
00000000
00000000
00000000
00000000
00000000
00000000
00000000
00000000
00000000
00000000
00000000
00000000
00000000
00000000
00000000
00000000
00000000
00000000
00000000
00000000
00000000
00000000
00000000
00000000
00000000
00000000
ENDCHAR

STARTCHAR Ca2b3
ENCODING 41651
SWIDTH 1000 0
DWIDTH 26 0
BBX 26 26 0 -4
BITMAP
00000000
00000000
00000000
00000000
00000000
00000000
00000000
00000000
00000000
00000000
00000000
00000000
00000000
00000000
00000000
00000000
00000000
00000000
00000000
00000000
00000000
00000000
00000000
00000000
00000000
00000000
ENDCHAR

STARTCHAR Ca2b4
ENCODING 41652
SWIDTH 1000 0
DWIDTH 26 0
BBX 26 26 0 -4
BITMAP
00000000
00000000
00000000
00000000
00000000
00000000
00000000
00000000
00000000
00000000
00000000
00000000
00000000
00000000
00000000
00000000
00000000
00000000
00000000
00000000
00000000
00000000
00000000
00000000
00000000
00000000
ENDCHAR

STARTCHAR Ca2b5
ENCODING 41653
SWIDTH 1000 0
DWIDTH 26 0
BBX 26 26 0 -4
BITMAP
00000000
00000000
00000000
00000000
00000000
00000000
00000000
00000000
00000000
00000000
00000000
00000000
00000000
00000000
00000000
00000000
00000000
00000000
00000000
00000000
00000000
00000000
00000000
00000000
00000000
00000000
ENDCHAR

STARTCHAR Ca2b6
ENCODING 41654
SWIDTH 1000 0
DWIDTH 26 0
BBX 26 26 0 -4
BITMAP
00000000
00000000
00000000
00000000
00000000
00000000
00000000
00000000
00000000
00000000
00000000
00000000
00000000
00000000
00000000
00000000
00000000
00000000
00000000
00000000
00000000
00000000
00000000
00000000
00000000
00000000
ENDCHAR

STARTCHAR Ca2b7
ENCODING 41655
SWIDTH 1000 0
DWIDTH 26 0
BBX 26 26 0 -4
BITMAP
00000000
00000000
00000000
00000000
00000000
00000000
00000000
00000000
00000000
00000000
00000000
00000000
00000000
00000000
00000000
00000000
00000000
00000000
00000000
00000000
00000000
00000000
00000000
00000000
00000000
00000000
ENDCHAR

STARTCHAR Ca2b8
ENCODING 41656
SWIDTH 1000 0
DWIDTH 26 0
BBX 26 26 0 -4
BITMAP
00000000
00000000
00000000
00000000
00000000
00000000
00000000
00000000
00000000
00000000
00000000
00000000
00000000
00000000
00000000
00000000
00000000
00000000
00000000
00000000
00000000
00000000
00000000
00000000
00000000
00000000
ENDCHAR

STARTCHAR Ca2b9
ENCODING 41657
SWIDTH 1000 0
DWIDTH 26 0
BBX 26 26 0 -4
BITMAP
00000000
00000000
00000000
00000000
00000000
00000000
00000000
00000000
00000000
00000000
00000000
00000000
00000000
00000000
00000000
00000000
00000000
00000000
00000000
00000000
00000000
00000000
00000000
00000000
00000000
00000000
ENDCHAR

STARTCHAR Ca2ba
ENCODING 41658
SWIDTH 1000 0
DWIDTH 26 0
BBX 26 26 0 -4
BITMAP
00000000
00000000
00000000
00000000
007FFE00
01FFFE00
03C00000
07000000
0E000000
0C000000
1C000000
18000000
1FFFFE00
1FFFFE00
18000000
1C000000
0C000000
0E000000
07000000
03C00000
01FFFE00
007FFE00
00000000
00000000
00000000
00000000
ENDCHAR

STARTCHAR Ca2bb
ENCODING 41659
SWIDTH 1000 0
DWIDTH 26 0
BBX 26 26 0 -4
BITMAP
00000000
00000000
00000000
00000000
1FFF8000
1FFFE000
0000F000
00003800
00001C00
00000C00
00000E00
00000600
1FFFFE00
1FFFFE00
00000600
00000E00
00000C00
00001C00
00003800
0000F000
1FFFE000
1FFF8000
00000000
00000000
00000000
00000000
ENDCHAR

STARTCHAR Ca2bc
ENCODING 41660
SWIDTH 1000 0
DWIDTH 26 0
BBX 26 26 0 -4
BITMAP
00000000
00000000
00000000
00000000
00FFFE00
03FFFE00
07800000
0E000000
0C000000
1C000000
18000000
18000000
18000000
1C000000
0C000000
0E000000
07800000
03FFFE00
00FFFE00
00000000
00000000
1FFFFF00
1FFFFF00
00000000
00000000
00000000
ENDCHAR

STARTCHAR Ca2bd
ENCODING 41661
SWIDTH 1000 0
DWIDTH 26 0
BBX 26 26 0 -4
BITMAP
00000000
00000000
00000000
00000000
1FFFC000
1FFFF000
00007800
00001C00
00000C00
00000E00
00000600
00000600
00000600
00000E00
00000C00
00001C00
00007800
1FFFF000
1FFF8000
00000000
00000000
3FFFFE00
3FFFFE00
00000000
00000000
00000000
ENDCHAR

STARTCHAR Ca2be
ENCODING 41662
SWIDTH 1000 0
DWIDTH 26 0
BBX 26 26 0 -4
BITMAP
00000000
00000000
00000000
00000000
00000000
00FFFE00
03FFFE00
07800000
0E000000
0C000000
1C000000
18000000
18000000
18000000
18000000
18000000
1C000000
0C000000
0E000000
07800000
03FFFE00
00FFFE00
00000000
00000000
00000000
00000000
ENDCHAR

STARTCHAR Ca2bf
ENCODING 41663
SWIDTH 1000 0
DWIDTH 26 0
BBX 26 26 0 -4
BITMAP
00000000
00000000
00000000
00000000
00000000
1FFFC000
1FFFF000
00007800
00001C00
00000C00
00000E00
00000600
00000600
00000600
00000600
00000600
00000E00
00000C00
00001C00
00007800
1FFFF000
1FFFC000
00000000
00000000
00000000
00000000
ENDCHAR

STARTCHAR Ca2c0
ENCODING 41664
SWIDTH 1000 0
DWIDTH 26 0
BBX 26 26 0 -4
BITMAP
00000000
00000000
00000000
06001800
06001800
06001800
06001800
06001800
06001800
06001800
06001800
06001800
06001800
06001800
06001800
06001800
06001800
07003800
03003000
03807000
01E1E000
00FFC000
003F0000
00000000
00000000
00000000
ENDCHAR

STARTCHAR Ca2c1
ENCODING 41665
SWIDTH 1000 0
DWIDTH 26 0
BBX 26 26 0 -4
BITMAP
00000000
00000000
00000000
003F0000
00FFC000
01E1E000
03807000
03003000
07003800
06001800
06001800
06001800
06001800
06001800
06001800
06001800
06001800
06001800
06001800
06001800
06001800
06001800
06001800
00000000
00000000
00000000
ENDCHAR

STARTCHAR Ca2c2
ENCODING 41666
SWIDTH 1000 0
DWIDTH 26 0
BBX 26 26 0 -4
BITMAP
00000000
00000000
00000000
00000000
00000000
00000000
00000000
00000000
00000000
00000000
00000000
00000000
00000000
00000000
00000000
00000000
00000000
00000000
00000000
00000000
00000000
00000000
00000000
00000000
00000000
00000000
ENDCHAR

STARTCHAR Ca2c3
ENCODING 41667
SWIDTH 1000 0
DWIDTH 26 0
BBX 26 26 0 -4
BITMAP
00000000
00000000
00000000
00000000
00000000
00000000
00000000
00000000
00000000
00000000
00000000
00000000
00000000
00000000
00000000
00000000
00000000
00000000
00000000
00000000
00000000
00000000
00000000
00000000
00000000
00000000
ENDCHAR

STARTCHAR Ca2c4
ENCODING 41668
SWIDTH 1000 0
DWIDTH 26 0
BBX 26 26 0 -4
BITMAP
00000000
00000000
00000000
00000000
00000000
00000000
00000000
00000000
00000000
00000000
00000000
00000000
00000000
00000000
00000000
00000000
00000000
00000000
00000000
00000000
00000000
00000000
00000000
00000000
00000000
00000000
ENDCHAR

STARTCHAR Ca2c5
ENCODING 41669
SWIDTH 1000 0
DWIDTH 26 0
BBX 26 26 0 -4
BITMAP
00000000
00000000
00000000
00000000
00000000
00000000
00000000
00000000
00000000
00000000
00000000
00000000
00000000
00000000
00000000
00000000
00000000
00000000
00000000
00000000
00000000
00000000
00000000
00000000
00000000
00000000
ENDCHAR

STARTCHAR Ca2c6
ENCODING 41670
SWIDTH 1000 0
DWIDTH 26 0
BBX 26 26 0 -4
BITMAP
00000000
00000000
00000000
00000000
00000000
00000000
00000000
00000000
00000000
00000000
00000000
00000000
00000000
00000000
00000000
00000000
00000000
00000000
00000000
00000000
00000000
00000000
00000000
00000000
00000000
00000000
ENDCHAR

STARTCHAR Ca2c7
ENCODING 41671
SWIDTH 1000 0
DWIDTH 26 0
BBX 26 26 0 -4
BITMAP
00000000
00000000
00000000
00000000
00000000
00000000
00000000
00000000
00000000
00000000
00000000
00000000
00000000
00000000
00000000
00000000
00000000
00000000
00000000
00000000
00000000
00000000
00000000
00000000
00000000
00000000
ENDCHAR

STARTCHAR Ca2c8
ENCODING 41672
SWIDTH 1000 0
DWIDTH 26 0
BBX 26 26 0 -4
BITMAP
00000000
00000000
00000000
00000000
00000000
00000000
00000000
00000000
00000000
00000000
00000000
00000000
00000000
00000000
00000000
00000000
00000000
00000000
00000000
00000000
00000000
00000000
00000000
00000000
00000000
00000000
ENDCHAR

STARTCHAR Ca2c9
ENCODING 41673
SWIDTH 1000 0
DWIDTH 26 0
BBX 26 26 0 -4
BITMAP
00000000
00000000
00000000
00000000
00000000
00000000
00000000
00000000
00000000
00000000
00000000
00000000
00000000
00000000
00000000
00000000
00000000
00000000
00000000
00000000
00000000
00000000
00000000
00000000
00000000
00000000
ENDCHAR

STARTCHAR Ca2ca
ENCODING 41674
SWIDTH 1000 0
DWIDTH 26 0
BBX 26 26 0 -4
BITMAP
00000000
00000000
00000000
000C0000
000C0000
001E0000
001E0000
00330000
00330000
00618000
00618000
00C0C000
00C0C000
01806000
01806000
03003000
03003000
06001800
06001800
0C000C00
0C000C00
18000600
18000600
00000000
00000000
00000000
ENDCHAR

STARTCHAR Ca2cb
ENCODING 41675
SWIDTH 1000 0
DWIDTH 26 0
BBX 26 26 0 -4
BITMAP
00000000
00000000
00000000
18000600
18000600
0C000C00
0C000C00
06001800
06001800
03003000
03003000
01806000
01806000
00C0C000
00C0C000
00618000
00618000
00330000
00330000
001E0000
001E0000
000C0000
000C0000
00000000
00000000
00000000
ENDCHAR

STARTCHAR Ca2cc
ENCODING 41676
SWIDTH 1000 0
DWIDTH 26 0
BBX 26 26 0 -4
BITMAP
00000000
00000000
00000000
00000000
00000000
00000000
00000000
00000000
00000000
0FFFFC00
0FFFFC00
00000C00
00000C00
00000C00
00000C00
00000C00
00000000
00000000
00000000
00000000
00000000
00000000
00000000
00000000
00000000
00000000
ENDCHAR

STARTCHAR Ca2cd
ENCODING 41677
SWIDTH 1000 0
DWIDTH 26 0
BBX 26 26 0 -4
BITMAP
00000000
00000000
00000000
00000000
00000000
00008000
0001C000
0000E000
00007000
3FFFF800
3FFFFC00
00000E00
00000700
00000700
00000E00
3FFFFC00
3FFFF800
00007000
0000E000
0001C000
00008000
00000000
00000000
00000000
00000000
00000000
ENDCHAR

STARTCHAR Ca2ce
ENCODING 41678
SWIDTH 1000 0
DWIDTH 26 0
BBX 26 26 0 -4
BITMAP
00000000
00000000
00000000
00000000
00000000
00408000
00E1C000
01C0E000
03807000
07FFF800
0FFFFC00
1C000E00
38000700
38000700
1C000E00
0FFFFC00
07FFF800
03807000
01C0E000
00E1C000
00408000
00000000
00000000
00000000
00000000
00000000
ENDCHAR

STARTCHAR Ca2cf
ENCODING 41679
SWIDTH 1000 0
DWIDTH 26 0
BBX 26 26 0 -4
BITMAP
00000000
00000000
00000000
38000700
18000600
1C000E00
0C000C00
0E001C00
06001800
07003800
03FFF000
03FFF000
01806000
01C0E000
00C0C000
00E1C000
00618000
00738000
00330000
003F0000
001E0000
001E0000
000C0000
000C0000
00000000
00000000
ENDCHAR

STARTCHAR Ca2d0
ENCODING 41680
SWIDTH 1000 0
DWIDTH 26 0
BBX 26 26 0 -4
BITMAP
00000000
00000000
00000000
00000000
0FFFF800
0FFFF800
00001800
00001800
00001800
00001800
00001800
00001800
0FFFF800
0FFFF800
00001800
00001800
00001800
00001800
00001800
00001800
0FFFF800
0FFFF800
00000000
00000000
00000000
00000000
ENDCHAR

STARTCHAR Ca2d1
ENCODING 41681
SWIDTH 1000 0
DWIDTH 26 0
BBX 26 26 0 -4
BITMAP
00000000
00000000
00000000
00000000
00000000
00000000
00000000
00000000
00000000
00000000
00000000
00000000
00000000
00000000
00000000
00000000
00000000
00000000
00000000
00000000
00000000
00000000
00000000
00000000
00000000
00000000
ENDCHAR

STARTCHAR Ca2d2
ENCODING 41682
SWIDTH 1000 0
DWIDTH 26 0
BBX 26 26 0 -4
BITMAP
00000000
00000000
00000000
00000000
00000000
00000000
00000000
00000000
00000000
00000000
00000000
00000000
00000000
00000000
00000000
00000000
00000000
00000000
00000000
00000000
00000000
00000000
00000000
00000000
00000000
00000000
ENDCHAR

STARTCHAR Ca2d3
ENCODING 41683
SWIDTH 1000 0
DWIDTH 26 0
BBX 26 26 0 -4
BITMAP
00000000
00000000
00000000
00000000
00000000
00000000
00000000
00000000
00000000
00000000
00000000
00000000
00000000
00000000
00000000
00000000
00000000
00000000
00000000
00000000
00000000
00000000
00000000
00000000
00000000
00000000
ENDCHAR

STARTCHAR Ca2d4
ENCODING 41684
SWIDTH 1000 0
DWIDTH 26 0
BBX 26 26 0 -4
BITMAP
00000000
00000000
00000000
00000000
00000000
00000000
00000000
00000000
00000000
00000000
00000000
00000000
00000000
00000000
00000000
00000000
00000000
00000000
00000000
00000000
00000000
00000000
00000000
00000000
00000000
00000000
ENDCHAR

STARTCHAR Ca2d5
ENCODING 41685
SWIDTH 1000 0
DWIDTH 26 0
BBX 26 26 0 -4
BITMAP
00000000
00000000
00000000
00000000
00000000
00000000
00000000
00000000
00000000
00000000
00000000
00000000
00000000
00000000
00000000
00000000
00000000
00000000
00000000
00000000
00000000
00000000
00000000
00000000
00000000
00000000
ENDCHAR

STARTCHAR Ca2d6
ENCODING 41686
SWIDTH 1000 0
DWIDTH 26 0
BBX 26 26 0 -4
BITMAP
00000000
00000000
00000000
00000000
00000000
00000000
00000000
00000000
00000000
00000000
00000000
00000000
00000000
00000000
00000000
00000000
00000000
00000000
00000000
00000000
00000000
00000000
00000000
00000000
00000000
00000000
ENDCHAR

STARTCHAR Ca2d7
ENCODING 41687
SWIDTH 1000 0
DWIDTH 26 0
BBX 26 26 0 -4
BITMAP
00000000
00000000
00000000
00000000
00000000
00000000
00000000
00000000
00000000
00000000
00000000
00000000
00000000
00000000
00000000
00000000
00000000
00000000
00000000
00000000
00000000
00000000
00000000
00000000
00000000
00000000
ENDCHAR

STARTCHAR Ca2d8
ENCODING 41688
SWIDTH 1000 0
DWIDTH 26 0
BBX 26 26 0 -4
BITMAP
00000000
00000000
00000000
00000000
00000000
00000000
00000000
00000000
00000000
00000000
00000000
00000000
00000000
00000000
00000000
00000000
00000000
00000000
00000000
00000000
00000000
00000000
00000000
00000000
00000000
00000000
ENDCHAR

STARTCHAR Ca2d9
ENCODING 41689
SWIDTH 1000 0
DWIDTH 26 0
BBX 26 26 0 -4
BITMAP
00000000
00000000
00000000
00000000
00000000
00000000
00000000
00000000
00000000
00000000
00000000
00000000
00000000
00000000
00000000
00000000
00000000
00000000
00000000
00000000
00000000
00000000
00000000
00000000
00000000
00000000
ENDCHAR

STARTCHAR Ca2da
ENCODING 41690
SWIDTH 1000 0
DWIDTH 26 0
BBX 26 26 0 -4
BITMAP
00000000
00000000
00000000
00000000
00000000
00000000
00000000
00000000
00000000
00000000
00000000
00000000
00000000
00000000
00000000
00000000
00000000
00000000
00000000
00000000
00000000
00000000
00000000
00000000
00000000
00000000
ENDCHAR

STARTCHAR Ca2db
ENCODING 41691
SWIDTH 1000 0
DWIDTH 26 0
BBX 26 26 0 -4
BITMAP
00000000
00000000
00000000
00000000
00000000
00000000
00000000
00000000
00000000
00000000
00000000
00000000
00000000
00000000
00000000
00000000
00000000
00000000
00000000
00000000
00000000
00000000
00000000
00000000
00000000
00000000
ENDCHAR

STARTCHAR Ca2dc
ENCODING 41692
SWIDTH 1000 0
DWIDTH 26 0
BBX 26 26 0 -4
BITMAP
00000000
00000000
00000200
00000700
00000E00
00001C00
00003800
00007000
0000E000
0001C000
00038000
00070000
000E0000
001C0000
00380000
00700000
00E00000
01C00000
03800000
07000000
0E000000
1FFFFF00
3FFFFF00
00000000
00000000
00000000
ENDCHAR

STARTCHAR Ca2dd
ENCODING 41693
SWIDTH 1000 0
DWIDTH 26 0
BBX 26 26 0 -4
BITMAP
00000000
00000000
00000000
00000000
000C0000
000C0000
000C0000
000C0000
000C0000
000C0000
000C0000
000C0000
000C0000
000C0000
000C0000
000C0000
000C0000
000C0000
000C0000
000C0000
000C0000
1FFFFE00
1FFFFE00
00000000
00000000
00000000
ENDCHAR

STARTCHAR Ca2de
ENCODING 41694
SWIDTH 1000 0
DWIDTH 26 0
BBX 26 26 0 -4
BITMAP
00000000
00000000
007F8000
03FFF000
0FC0FC00
1E001E00
38000700
30000300
20000100
00000000
00000000
00000000
00000000
00000000
00000000
00000000
00000000
00000000
00000000
00000000
00000000
00000000
00000000
00000000
00000000
00000000
ENDCHAR

STARTCHAR Ca2df
ENCODING 41695
SWIDTH 1000 0
DWIDTH 26 0
BBX 26 26 0 -4
BITMAP
00000000
00000000
00000000
000F0000
003FC000
0030E000
00006000
00006000
00006000
00006000
000F6000
003FE000
0079E000
00E0E000
00C0C000
01C0C000
0181C000
01818000
01838000
01830000
01CF0000
00FE0000
00780000
00000000
00000000
00000000
ENDCHAR

STARTCHAR Ca2e0
ENCODING 41696
SWIDTH 1000 0
DWIDTH 26 0
BBX 26 26 0 -4
BITMAP
00000000
00000000
00000000
1FFFFE00
1FFFFE00
0C000C00
0C000C00
06001800
06001800
03003000
03003000
01806000
01806000
00C0C000
00C0C000
00618000
00618000
00330000
00330000
001E0000
001E0000
000C0000
000C0000
00000000
00000000
00000000
ENDCHAR

STARTCHAR Ca2e1
ENCODING 41697
SWIDTH 1000 0
DWIDTH 26 0
BBX 26 26 0 -4
BITMAP
00000000
00000000
00000000
00000000
00000000
00000000
1FFFFE00
1FFFFE00
00000000
00000000
00000000
00000000
1FFFFE00
1FFFFE00
00000000
00000000
00000000
00000000
1FFFFE00
1FFFFE00
00000000
00000000
00000000
00000000
00000000
00000000
ENDCHAR

STARTCHAR Ca2e2
ENCODING 41698
SWIDTH 1000 0
DWIDTH 26 0
BBX 26 26 0 -4
BITMAP
00000000
00000000
00C00000
01E00000
01E00000
00C00000
00000000
00000000
00000000
0FFFFC00
0FFFFC00
00000000
00000000
00000000
00000000
0FFFFC00
0FFFFC00
00000000
00000000
00000000
0000C000
0001E000
0001E000
0000C000
00000000
00000000
ENDCHAR

STARTCHAR Ca2e3
ENCODING 41699
SWIDTH 1000 0
DWIDTH 26 0
BBX 26 26 0 -4
BITMAP
00000000
00000000
00070E00
000E1C00
001C3800
00387000
0070E000
00E1C000
01C38000
03870000
070E0000
0E1C0000
1C380000
1C380000
0E1C0000
070E0000
03870000
01C38000
00E1C000
0070E000
00387000
001C3800
000E1C00
00070E00
00000000
00000000
ENDCHAR

STARTCHAR Ca2e4
ENCODING 41700
SWIDTH 1000 0
DWIDTH 26 0
BBX 26 26 0 -4
BITMAP
00000000
00000000
1C380000
0E1C0000
070E0000
03870000
01C38000
00E1C000
0070E000
00387000
001C3800
000E1C00
00070E00
00070E00
000E1C00
001C3800
00387000
0070E000
00E1C000
01C38000
03870000
070E0000
0E1C0000
1C380000
00000000
00000000
ENDCHAR

STARTCHAR Ca2e5
ENCODING 41701
SWIDTH 1000 0
DWIDTH 26 0
BBX 26 26 0 -4
BITMAP
00000000
0003FF80
00030000
00030000
00030000
00060000
00060000
00060000
000C0000
000C0000
000C0000
00180000
08180000
0C180000
1C300000
1E300000
1E300000
37600000
37600000
23E00000
03C00000
01C00000
01C00000
00800000
00000000
00000000
ENDCHAR

STARTCHAR Ca2e6
ENCODING 41702
SWIDTH 1000 0
DWIDTH 26 0
BBX 26 26 0 -4
BITMAP
00000000
00000000
00000000
00000000
00000000
00000000
00000000
00000000
07807800
1F81FE00
1C03CE00
38070700
300E0300
301C0300
38380700
1CF00E00
1FE07E00
07807800
00000000
00000000
00000000
00000000
00000000
00000000
00000000
00000000
ENDCHAR

STARTCHAR Ca2e7
ENCODING 41703
SWIDTH 1000 0
DWIDTH 26 0
BBX 26 26 0 -4
BITMAP
00000000
00000000
00000000
00000000
00000000
00000000
00000000
00000000
07C07C00
1FF1FE00
1C7BC600
381F0000
300E0000
300E0000
381F0000
1C7BC600
1FF1FE00
07C07C00
00000000
00000000
00000000
00000000
00000000
00000000
00000000
00000000
ENDCHAR

STARTCHAR Ca2e8
ENCODING 41704
SWIDTH 1000 0
DWIDTH 26 0
BBX 26 26 0 -4
BITMAP
00000000
00000000
00000000
00000000
00000000
06001800
0F003C00
0F003C00
06001800
00000000
00000000
00000000
00000000
00000000
00000000
00000000
00000000
000C0000
001E0000
001E0000
000C0000
00000000
00000000
00000000
00000000
00000000
ENDCHAR

STARTCHAR Ca2e9
ENCODING 41705
SWIDTH 1000 0
DWIDTH 26 0
BBX 26 26 0 -4
BITMAP
00000000
0001C000
0003E000
00036000
00066000
00064000
00060000
00060000
00060000
00060000
00060000
00060000
00060000
000C0000
000C0000
000C0000
000C0000
000C0000
000C0000
000C0000
004C0000
00CC0000
00D80000
00F80000
00700000
00000000
ENDCHAR

STARTCHAR Ca2ea
ENCODING 41706
SWIDTH 1000 0
DWIDTH 26 0
BBX 26 26 0 -4
BITMAP
00000000
001C3800
003E7C00
00366C00
0066CC00
0064C800
0060C000
0060C000
0060C000
0060C000
0060C000
0060C000
0060C000
00C18000
00C18000
00C18000
00C18000
00C18000
00C18000
00C18000
04C98000
0CD98000
0D9B0000
0F9F0000
070E0000
00000000
ENDCHAR

STARTCHAR Ca2eb
ENCODING 41707
SWIDTH 1000 0
DWIDTH 26 0
BBX 26 26 0 -4
BITMAP
00000000
00000000
00000000
00000000
00000000
00000000
00000000
00000000
00000000
00000000
00000000
00000000
00000000
00000000
00000000
00000000
00000000
00000000
00000000
00000000
00000000
00000000
00000000
00000000
00000000
00000000
ENDCHAR

STARTCHAR Ca2ec
ENCODING 41708
SWIDTH 1000 0
DWIDTH 26 0
BBX 26 26 0 -4
BITMAP
00000000
00000000
00000000
00000000
00000000
00000000
00000000
00000000
00000000
00000000
00000000
00000000
00000000
00000000
00000000
00000000
00000000
00000000
00000000
00000000
00000000
00000000
00000000
00000000
00000000
00000000
ENDCHAR

STARTCHAR Ca2ed
ENCODING 41709
SWIDTH 1000 0
DWIDTH 26 0
BBX 26 26 0 -4
BITMAP
00000000
00000000
00000000
00000000
00000000
00000000
00000000
00000000
00000000
00000000
00000000
00000000
00000000
00000000
00000000
00000000
00000000
00000000
00000000
00000000
00000000
00000000
00000000
00000000
00000000
00000000
ENDCHAR

STARTCHAR Ca2ee
ENCODING 41710
SWIDTH 1000 0
DWIDTH 26 0
BBX 26 26 0 -4
BITMAP
00000000
00000000
00000000
00000000
00000000
00000000
00000000
00000000
00000000
00000000
00000000
00000000
00000000
00000000
00000000
00000000
00000000
00000000
00000000
00000000
00000000
00000000
00000000
00000000
00000000
00000000
ENDCHAR

STARTCHAR Ca2ef
ENCODING 41711
SWIDTH 1000 0
DWIDTH 26 0
BBX 26 26 0 -4
BITMAP
00000000
00000000
00000000
00000000
00000000
00000000
00000000
00000000
00000000
00000000
00000000
00000000
00000000
00000000
00000000
00000000
00000000
00000000
00000000
00000000
00000000
00000000
00000000
00000000
00000000
00000000
ENDCHAR

STARTCHAR Ca2f0
ENCODING 41712
SWIDTH 1000 0
DWIDTH 26 0
BBX 26 26 0 -4
BITMAP
00000000
00000000
00000000
00000000
00000000
00000000
00000000
00000000
00000000
00000000
00000000
00000000
00000000
00000000
00000000
00000000
00000000
00000000
00000000
00000000
00000000
00000000
00000000
00000000
00000000
00000000
ENDCHAR

STARTCHAR Ca2f1
ENCODING 41713
SWIDTH 1000 0
DWIDTH 26 0
BBX 26 26 0 -4
BITMAP
00000000
00000000
00000000
00000000
00000000
00000000
00000000
00000000
00000000
00000000
00000000
00000000
00000000
00000000
00000000
00000000
00000000
00000000
00000000
00000000
00000000
00000000
00000000
00000000
00000000
00000000
ENDCHAR

STARTCHAR Ca2f2
ENCODING 41714
SWIDTH 1000 0
DWIDTH 26 0
BBX 26 26 0 -4
BITMAP
00000000
001E0000
00330000
00210000
00210000
00330000
001E0000
000C0000
001E0000
001E0000
00330000
00330000
00618000
00618000
00C0C000
00FFC000
01FFE000
01806000
03003000
03003000
06001800
06001800
00000000
00000000
00000000
00000000
ENDCHAR

STARTCHAR Ca2f3
ENCODING 41715
SWIDTH 1000 0
DWIDTH 26 0
BBX 26 26 0 -4
BITMAP
00000000
00000000
00060000
00060000
0E0C0000
1F0C0000
31980000
31980000
31B00000
31B00000
31E00000
1F600000
0EC00000
00DC1C00
01BE3E00
01E36300
03636300
03636300
06636300
06636300
0C3E3E00
0C1C1C00
18000000
18000000
00000000
00000000
ENDCHAR

STARTCHAR Ca2f4
ENCODING 41716
SWIDTH 1000 0
DWIDTH 26 0
BBX 26 26 0 -4
BITMAP
00000000
00000000
00018000
00C18000
00C18000
00C18000
00C1F000
00FFF000
07FF8000
07C18000
00C18000
00C18000
00C18000
00C18000
00C18000
00C1F000
00FFF000
07FF8000
07C18000
00C18000
00C18000
00C18000
00C18000
00C00000
00000000
00000000
ENDCHAR

STARTCHAR Ca2f5
ENCODING 41717
SWIDTH 1000 0
DWIDTH 26 0
BBX 26 26 0 -4
BITMAP
00000000
00000000
00C00000
00C00000
00C00000
00C00000
00C00000
00C00000
00C00000
00C00000
00C00000
00CF0000
00DFC000
00F8C000
00E06000
00C06000
00C0E000
00C0C000
00C1C000
00C38000
00C70000
00DE0000
00F80000
00E00000
00000000
00000000
ENDCHAR

STARTCHAR Ca2f6
ENCODING 41718
SWIDTH 1000 0
DWIDTH 26 0
BBX 26 26 0 -4
BITMAP
00000000
00000000
00180000
001C0000
001E0000
001F0000
001B8000
0019E000
00187000
00183800
00181800
00181C00
00180C00
00181C00
00181800
00183800
00187000
00186000
00780000
01F80000
03F80000
07F00000
07E00000
03800000
00000000
00000000
ENDCHAR

STARTCHAR Ca2f7
ENCODING 41719
SWIDTH 1000 0
DWIDTH 26 0
BBX 26 26 0 -4
BITMAP
00000000
00000000
000C0000
001E0000
001E0000
001E0000
000C0000
000C0000
00CCC000
01FFE000
01FFE000
00CCC000
000C0000
001E0000
003F0000
001E0000
000C0000
000C0000
000C0000
000C0000
000C0000
000C0000
000C0000
000C0000
00000000
00000000
ENDCHAR

STARTCHAR Ca2f8
ENCODING 41720
SWIDTH 1000 0
DWIDTH 26 0
BBX 26 26 0 -4
BITMAP
00000000
00000000
000C0000
001E0000
001E0000
000C0000
00CCC000
01FFE000
01FFE000
00CCC000
001E0000
000C0000
000C0000
000C0000
000C0000
001E0000
00CCC000
01FFE000
01FFE000
00CCC000
000C0000
001E0000
001E0000
000C0000
00000000
00000000
ENDCHAR

STARTCHAR Ca2f9
ENCODING 41721
SWIDTH 1000 0
DWIDTH 26 0
BBX 26 26 0 -4
BITMAP
00000000
00000000
00FF8000
03FF8000
03F18000
07F18000
07F18000
07F18000
03F18000
03F18000
00F18000
00318000
00318000
00318000
00318000
00318000
00318000
00318000
00318000
00318000
00318000
00318000
00318000
00318000
00000000
00000000
ENDCHAR

STARTCHAR Ca2fa
ENCODING 41722
SWIDTH 1000 0
DWIDTH 26 0
BBX 26 26 0 -4
BITMAP
00000000
00000000
00000000
00000000
00000000
00000000
00000000
00000000
00000000
00000000
00000000
00000000
00000000
00000000
00000000
00000000
00000000
00000000
00000000
00000000
00000000
00000000
00000000
00000000
00000000
00000000
ENDCHAR

STARTCHAR Ca2fb
ENCODING 41723
SWIDTH 1000 0
DWIDTH 26 0
BBX 26 26 0 -4
BITMAP
00000000
00000000
00000000
00000000
00000000
00000000
00000000
00000000
00000000
00000000
00000000
00000000
00000000
00000000
00000000
00000000
00000000
00000000
00000000
00000000
00000000
00000000
00000000
00000000
00000000
00000000
ENDCHAR

STARTCHAR Ca2fc
ENCODING 41724
SWIDTH 1000 0
DWIDTH 26 0
BBX 26 26 0 -4
BITMAP
00000000
00000000
00000000
00000000
00000000
00000000
00000000
00000000
00000000
00000000
00000000
00000000
00000000
00000000
00000000
00000000
00000000
00000000
00000000
00000000
00000000
00000000
00000000
00000000
00000000
00000000
ENDCHAR

STARTCHAR Ca2fd
ENCODING 41725
SWIDTH 1000 0
DWIDTH 26 0
BBX 26 26 0 -4
BITMAP
00000000
00000000
00000000
00000000
00000000
00000000
00000000
00000000
00000000
00000000
00000000
00000000
00000000
00000000
00000000
00000000
00000000
00000000
00000000
00000000
00000000
00000000
00000000
00000000
00000000
00000000
ENDCHAR

STARTCHAR Ca2fe
ENCODING 41726
SWIDTH 1000 0
DWIDTH 26 0
BBX 26 26 0 -4
BITMAP
00000000
007F8000
01FFE000
07C0F800
0F003C00
1C000E00
18000600
38000700
30000300
70000380
60000180
60000180
60000180
60000180
60000180
60000180
70000380
30000300
38000700
18000600
1C000E00
0F003C00
07C0F800
01FFE000
007F8000
00000000
ENDCHAR

STARTCHAR Ca3a2
ENCODING 41890
SWIDTH 1000 0
DWIDTH 26 0
BBX 26 26 0 -4
BITMAP
00000000
00000000
00000000
00000000
00000000
00000000
00000000
00000000
00000000
00000000
00000000
00000000
00000000
00000000
00000000
00000000
00000000
00000000
00000000
00000000
00000000
00000000
00000000
00000000
00000000
00000000
ENDCHAR

STARTCHAR Ca3a3
ENCODING 41891
SWIDTH 1000 0
DWIDTH 26 0
BBX 26 26 0 -4
BITMAP
00000000
00000000
00000000
00000000
00000000
00000000
00000000
00000000
00000000
00000000
00000000
00000000
00000000
00000000
00000000
00000000
00000000
00000000
00000000
00000000
00000000
00000000
00000000
00000000
00000000
00000000
ENDCHAR

STARTCHAR Ca3a4
ENCODING 41892
SWIDTH 1000 0
DWIDTH 26 0
BBX 26 26 0 -4
BITMAP
00000000
00000000
00000000
00000000
00000000
00000000
00000000
00000000
00000000
00000000
00000000
00000000
00000000
00000000
00000000
00000000
00000000
00000000
00000000
00000000
00000000
00000000
00000000
00000000
00000000
00000000
ENDCHAR

STARTCHAR Ca3a5
ENCODING 41893
SWIDTH 1000 0
DWIDTH 26 0
BBX 26 26 0 -4
BITMAP
00000000
00000000
00000000
00000000
00000000
00000000
00000000
00000000
00000000
00000000
00000000
00000000
00000000
00000000
00000000
00000000
00000000
00000000
00000000
00000000
00000000
00000000
00000000
00000000
00000000
00000000
ENDCHAR

STARTCHAR Ca3a6
ENCODING 41894
SWIDTH 1000 0
DWIDTH 26 0
BBX 26 26 0 -4
BITMAP
00000000
00000000
00000000
00000000
00000000
00000000
00000000
00000000
00000000
00000000
00000000
00000000
00000000
00000000
00000000
00000000
00000000
00000000
00000000
00000000
00000000
00000000
00000000
00000000
00000000
00000000
ENDCHAR

STARTCHAR Ca3a7
ENCODING 41895
SWIDTH 1000 0
DWIDTH 26 0
BBX 26 26 0 -4
BITMAP
00000000
00000000
00000000
00000000
00000000
00000000
00000000
00000000
00000000
00000000
00000000
00000000
00000000
00000000
00000000
00000000
00000000
00000000
00000000
00000000
00000000
00000000
00000000
00000000
00000000
00000000
ENDCHAR

STARTCHAR Ca3a8
ENCODING 41896
SWIDTH 1000 0
DWIDTH 26 0
BBX 26 26 0 -4
BITMAP
00000000
00000000
00000000
00000000
00000000
00000000
00000000
00000000
00000000
00000000
00000000
00000000
00000000
00000000
00000000
00000000
00000000
00000000
00000000
00000000
00000000
00000000
00000000
00000000
00000000
00000000
ENDCHAR

STARTCHAR Ca3a9
ENCODING 41897
SWIDTH 1000 0
DWIDTH 26 0
BBX 26 26 0 -4
BITMAP
00000000
00000000
00000000
00000000
00000000
00000000
00000000
00000000
00000000
00000000
00000000
00000000
00000000
00000000
00000000
00000000
00000000
00000000
00000000
00000000
00000000
00000000
00000000
00000000
00000000
00000000
ENDCHAR

STARTCHAR Ca3aa
ENCODING 41898
SWIDTH 1000 0
DWIDTH 26 0
BBX 26 26 0 -4
BITMAP
00000000
00000000
00000000
00000000
00000000
00000000
00000000
00000000
00000000
00000000
00000000
00000000
00000000
00000000
00000000
00000000
00000000
00000000
00000000
00000000
00000000
00000000
00000000
00000000
00000000
00000000
ENDCHAR

STARTCHAR Ca3ab
ENCODING 41899
SWIDTH 1000 0
DWIDTH 26 0
BBX 26 26 0 -4
BITMAP
00000000
00000000
00000000
00000000
00000000
00000000
00000000
00000000
00000000
00000000
00000000
00000000
00000000
00000000
00000000
00000000
00000000
00000000
00000000
00000000
00000000
00000000
00000000
00000000
00000000
00000000
ENDCHAR

STARTCHAR Ca3ac
ENCODING 41900
SWIDTH 1000 0
DWIDTH 26 0
BBX 26 26 0 -4
BITMAP
00000000
00000000
00000000
00000000
00000000
00000000
00000000
00000000
00000000
00000000
00000000
00000000
00000000
00000000
00000000
00000000
00000000
00000000
00000000
00000000
00000000
00000000
00000000
00000000
00000000
00000000
ENDCHAR

STARTCHAR Ca3ad
ENCODING 41901
SWIDTH 1000 0
DWIDTH 26 0
BBX 26 26 0 -4
BITMAP
00000000
00000000
00000000
00000000
00000000
00000000
00000000
00000000
00000000
00000000
00000000
00000000
00000000
00000000
00000000
00000000
00000000
00000000
00000000
00000000
00000000
00000000
00000000
00000000
00000000
00000000
ENDCHAR

STARTCHAR Ca3ae
ENCODING 41902
SWIDTH 1000 0
DWIDTH 26 0
BBX 26 26 0 -4
BITMAP
00000000
00000000
00000000
00000000
00000000
00000000
00000000
00000000
00000000
00000000
00000000
00000000
00000000
00000000
00000000
00000000
00000000
00000000
00000000
00000000
00000000
00000000
00000000
00000000
00000000
00000000
ENDCHAR

STARTCHAR Ca3af
ENCODING 41903
SWIDTH 1000 0
DWIDTH 26 0
BBX 26 26 0 -4
BITMAP
00000000
00000000
00000000
00000000
00000000
00000000
00000000
00000000
00000000
00000000
00000000
00000000
00000000
00000000
00000000
00000000
00000000
00000000
00000000
00000000
00000000
00000000
00000000
00000000
00000000
00000000
ENDCHAR

STARTCHAR Ca3b0
ENCODING 41904
SWIDTH 1000 0
DWIDTH 26 0
BBX 26 26 0 -4
BITMAP
00000000
00000000
00000000
001E0000
007F8000
00F3C000
00C0C000
01C0E000
01806000
03807000
03003000
03003000
03003000
03003000
03003000
03807000
01806000
01C0E000
00C0C000
00F3C000
007F8000
001E0000
00000000
00000000
00000000
00000000
ENDCHAR

STARTCHAR Ca3b1
ENCODING 41905
SWIDTH 1000 0
DWIDTH 26 0
BBX 26 26 0 -4
BITMAP
00000000
00000000
00000000
000C0000
001C0000
007C0000
006C0000
000C0000
000C0000
000C0000
000C0000
000C0000
000C0000
000C0000
000C0000
000C0000
000C0000
000C0000
000C0000
000C0000
000C0000
000C0000
00000000
00000000
00000000
00000000
ENDCHAR

STARTCHAR Ca3b2
ENCODING 41906
SWIDTH 1000 0
DWIDTH 26 0
BBX 26 26 0 -4
BITMAP
00000000
00000000
00000000
003E0000
00FF8000
01E3C000
0180C000
03006000
03006000
0000E000
0000C000
0001C000
00038000
000F0000
001E0000
00380000
00700000
00E00000
01C00000
01800000
03FFF000
03FFF000
00000000
00000000
00000000
00000000
ENDCHAR

STARTCHAR Ca3b3
ENCODING 41907
SWIDTH 1000 0
DWIDTH 26 0
BBX 26 26 0 -4
BITMAP
00000000
00000000
00000000
003E0000
00FF8000
01E3C000
0380E000
03006000
00006000
0000E000
0003C000
003F0000
003FC000
0001E000
00007000
00003000
00003000
03003000
03807000
01E1E000
00FFC000
003F0000
00000000
00000000
00000000
00000000
ENDCHAR

STARTCHAR Ca3b4
ENCODING 41908
SWIDTH 1000 0
DWIDTH 26 0
BBX 26 26 0 -4
BITMAP
00000000
00000000
00000000
00030000
00070000
000F0000
001F0000
001B0000
003B0000
00730000
00E30000
00C30000
01C30000
03830000
07030000
0FFFF000
0FFFF000
00030000
00030000
00030000
00030000
00030000
00000000
00000000
00000000
00000000
ENDCHAR

STARTCHAR Ca3b5
ENCODING 41909
SWIDTH 1000 0
DWIDTH 26 0
BBX 26 26 0 -4
BITMAP
00000000
00000000
00000000
01FFC000
01FFC000
01800000
01800000
01800000
01800000
01800000
01BF0000
01FFC000
01E1E000
00006000
00007000
00003000
00003000
03007000
03806000
01E1E000
00FFC000
003F0000
00000000
00000000
00000000
00000000
ENDCHAR

STARTCHAR Ca3b6
ENCODING 41910
SWIDTH 1000 0
DWIDTH 26 0
BBX 26 26 0 -4
BITMAP
00000000
00000000
00000000
003F0000
00FFC000
01E1E000
01806000
01800000
03000000
03000000
033F0000
03FFC000
03E1E000
03806000
03007000
03003000
03003000
03807000
01806000
01E1E000
00FFC000
003F0000
00000000
00000000
00000000
00000000
ENDCHAR

STARTCHAR Ca3b7
ENCODING 41911
SWIDTH 1000 0
DWIDTH 26 0
BBX 26 26 0 -4
BITMAP
00000000
00000000
00000000
03FFE000
03FFE000
00006000
0000C000
0000C000
0001C000
00018000
00018000
00038000
00030000
00070000
00060000
00060000
000E0000
000C0000
000C0000
001C0000
00180000
00180000
00000000
00000000
00000000
00000000
ENDCHAR

STARTCHAR Ca3b8
ENCODING 41912
SWIDTH 1000 0
DWIDTH 26 0
BBX 26 26 0 -4
BITMAP
00000000
00000000
00000000
003F0000
00FFC000
00C0C000
01806000
01806000
01806000
00C0C000
00FBC000
003F0000
00FFC000
01E1E000
03807000
03003000
03003000
03003000
03807000
01E1E000
00FFC000
003F0000
00000000
00000000
00000000
00000000
ENDCHAR

STARTCHAR Ca3b9
ENCODING 41913
SWIDTH 1000 0
DWIDTH 26 0
BBX 26 26 0 -4
BITMAP
00000000
00000000
00000000
003F0000
00FFC000
01E1E000
01806000
03807000
03003000
03003000
03803000
01807000
01E1F000
00FFF000
003F3000
00003000
00003000
00006000
01806000
01E1E000
00FFC000
003F0000
00000000
00000000
00000000
00000000
ENDCHAR

STARTCHAR Ca3ba
ENCODING 41914
SWIDTH 1000 0
DWIDTH 26 0
BBX 26 26 0 -4
BITMAP
00000000
00000000
00000000
00000000
00000000
00000000
00000000
00000000
00000000
00000000
00000000
00000000
00000000
00000000
00000000
00000000
00000000
00000000
00000000
00000000
00000000
00000000
00000000
00000000
00000000
00000000
ENDCHAR

STARTCHAR Ca3bb
ENCODING 41915
SWIDTH 1000 0
DWIDTH 26 0
BBX 26 26 0 -4
BITMAP
00000000
00000000
00000000
00000000
00000000
00000000
00000000
00000000
00000000
00000000
00000000
00000000
00000000
00000000
00000000
00000000
00000000
00000000
00000000
00000000
00000000
00000000
00000000
00000000
00000000
00000000
ENDCHAR

STARTCHAR Ca3bc
ENCODING 41916
SWIDTH 1000 0
DWIDTH 26 0
BBX 26 26 0 -4
BITMAP
00000000
00000000
00000000
00000000
00000000
00000000
00000000
00000000
00000000
00000000
00000000
00000000
00000000
00000000
00000000
00000000
00000000
00000000
00000000
00000000
00000000
00000000
00000000
00000000
00000000
00000000
ENDCHAR

STARTCHAR Ca3bd
ENCODING 41917
SWIDTH 1000 0
DWIDTH 26 0
BBX 26 26 0 -4
BITMAP
00000000
00000000
00000000
00000000
00000000
00000000
00000000
00000000
00000000
00000000
00000000
00000000
00000000
00000000
00000000
00000000
00000000
00000000
00000000
00000000
00000000
00000000
00000000
00000000
00000000
00000000
ENDCHAR

STARTCHAR Ca3be
ENCODING 41918
SWIDTH 1000 0
DWIDTH 26 0
BBX 26 26 0 -4
BITMAP
00000000
00000000
00000000
00000000
00000000
00000000
00000000
00000000
00000000
00000000
00000000
00000000
00000000
00000000
00000000
00000000
00000000
00000000
00000000
00000000
00000000
00000000
00000000
00000000
00000000
00000000
ENDCHAR

STARTCHAR Ca3bf
ENCODING 41919
SWIDTH 1000 0
DWIDTH 26 0
BBX 26 26 0 -4
BITMAP
00000000
00000000
00000000
00000000
00000000
00000000
00000000
00000000
00000000
00000000
00000000
00000000
00000000
00000000
00000000
00000000
00000000
00000000
00000000
00000000
00000000
00000000
00000000
00000000
00000000
00000000
ENDCHAR

STARTCHAR Ca3c0
ENCODING 41920
SWIDTH 1000 0
DWIDTH 26 0
BBX 26 26 0 -4
BITMAP
00000000
00000000
00000000
00000000
00000000
00000000
00000000
00000000
00000000
00000000
00000000
00000000
00000000
00000000
00000000
00000000
00000000
00000000
00000000
00000000
00000000
00000000
00000000
00000000
00000000
00000000
ENDCHAR

STARTCHAR Ca3c1
ENCODING 41921
SWIDTH 1000 0
DWIDTH 26 0
BBX 26 26 0 -4
BITMAP
00000000
00000000
00000000
000C0000
000C0000
001E0000
001E0000
00330000
00330000
00330000
00618000
00618000
00C0C000
00C0C000
00FFC000
01FFE000
01806000
03003000
03003000
03003000
06001800
06001800
00000000
00000000
00000000
00000000
ENDCHAR

STARTCHAR Ca3c2
ENCODING 41922
SWIDTH 1000 0
DWIDTH 26 0
BBX 26 26 0 -4
BITMAP
00000000
00000000
00000000
03FF8000
03FFE000
03006000
03003000
03003000
03003000
03006000
0300E000
03FFC000
03FFE000
03007000
03003000
03001800
03001800
03003800
03003000
0300F000
03FFE000
03FF8000
00000000
00000000
00000000
00000000
ENDCHAR

STARTCHAR Ca3c3
ENCODING 41923
SWIDTH 1000 0
DWIDTH 26 0
BBX 26 26 0 -4
BITMAP
00000000
00000000
00000000
001F8000
007FE000
00F0F000
01C03800
03801800
03000000
07000000
06000000
06000000
06000000
06000000
06000000
07000000
03000000
03801800
01C03800
00F0F000
007FE000
001F8000
00000000
00000000
00000000
00000000
ENDCHAR

STARTCHAR Ca3c4
ENCODING 41924
SWIDTH 1000 0
DWIDTH 26 0
BBX 26 26 0 -4
BITMAP
00000000
00000000
00000000
03FF0000
03FFC000
0301E000
03007000
03003000
03003800
03001800
03001800
03001800
03001800
03001800
03001800
03001800
03003800
03003000
03007000
0301E000
03FFC000
03FF0000
00000000
00000000
00000000
00000000
ENDCHAR

STARTCHAR Ca3c5
ENCODING 41925
SWIDTH 1000 0
DWIDTH 26 0
BBX 26 26 0 -4
BITMAP
00000000
00000000
00000000
03FFF000
03FFF000
03000000
03000000
03000000
03000000
03000000
03000000
03FFE000
03FFE000
03000000
03000000
03000000
03000000
03000000
03000000
03000000
03FFF000
03FFF000
00000000
00000000
00000000
00000000
ENDCHAR

STARTCHAR Ca3c6
ENCODING 41926
SWIDTH 1000 0
DWIDTH 26 0
BBX 26 26 0 -4
BITMAP
00000000
00000000
00000000
03FFF000
03FFF000
03000000
03000000
03000000
03000000
03000000
03000000
03FFE000
03FFE000
03000000
03000000
03000000
03000000
03000000
03000000
03000000
03000000
03000000
00000000
00000000
00000000
00000000
ENDCHAR

STARTCHAR Ca3c7
ENCODING 41927
SWIDTH 1000 0
DWIDTH 26 0
BBX 26 26 0 -4
BITMAP
00000000
00000000
00000000
003F0000
00FFC000
01E1E000
03807000
03003000
07000000
06000000
06000000
06000000
06000000
0603F000
0603F000
06003000
07003000
03007000
03807000
01E1F000
00FFB000
003F3000
00000000
00000000
00000000
00000000
ENDCHAR

STARTCHAR Ca3c8
ENCODING 41928
SWIDTH 1000 0
DWIDTH 26 0
BBX 26 26 0 -4
BITMAP
00000000
00000000
00000000
06003000
06003000
06003000
06003000
06003000
06003000
06003000
06003000
07FFF000
07FFF000
06003000
06003000
06003000
06003000
06003000
06003000
06003000
06003000
06003000
00000000
00000000
00000000
00000000
ENDCHAR

STARTCHAR Ca3c9
ENCODING 41929
SWIDTH 1000 0
DWIDTH 26 0
BBX 26 26 0 -4
BITMAP
00000000
00000000
00000000
000C0000
000C0000
000C0000
000C0000
000C0000
000C0000
000C0000
000C0000
000C0000
000C0000
000C0000
000C0000
000C0000
000C0000
000C0000
000C0000
000C0000
000C0000
000C0000
00000000
00000000
00000000
00000000
ENDCHAR

STARTCHAR Ca3ca
ENCODING 41930
SWIDTH 1000 0
DWIDTH 26 0
BBX 26 26 0 -4
BITMAP
00000000
00000000
00000000
0000C000
0000C000
0000C000
0000C000
0000C000
0000C000
0000C000
0000C000
0000C000
0000C000
0000C000
0000C000
0000C000
0000C000
0180C000
0180C000
01C1C000
00FF8000
007F0000
00000000
00000000
00000000
00000000
ENDCHAR

STARTCHAR Ca3cb
ENCODING 41931
SWIDTH 1000 0
DWIDTH 26 0
BBX 26 26 0 -4
BITMAP
00000000
00000000
00000000
03003800
03007000
0300E000
0301C000
03038000
03070000
030E0000
031C0000
033C0000
037E0000
03E70000
03C30000
03838000
0301C000
0300E000
03006000
03007000
03003800
03001C00
00000000
00000000
00000000
00000000
ENDCHAR

STARTCHAR Ca3cc
ENCODING 41932
SWIDTH 1000 0
DWIDTH 26 0
BBX 26 26 0 -4
BITMAP
00000000
00000000
00000000
00C00000
00C00000
00C00000
00C00000
00C00000
00C00000
00C00000
00C00000
00C00000
00C00000
00C00000
00C00000
00C00000
00C00000
00C00000
00C00000
00C00000
00FFF800
00FFF800
00000000
00000000
00000000
00000000
ENDCHAR

STARTCHAR Ca3cd
ENCODING 41933
SWIDTH 1000 0
DWIDTH 26 0
BBX 26 26 0 -4
BITMAP
00000000
00000000
00000000
0E001C00
0E001C00
0F003C00
0F003C00
0F807C00
0D806C00
0D806C00
0CC0CC00
0CC0CC00
0CC0CC00
0C618C00
0C618C00
0C330C00
0C330C00
0C330C00
0C1E0C00
0C1E0C00
0C0C0C00
0C0C0C00
00000000
00000000
00000000
00000000
ENDCHAR

STARTCHAR Ca3ce
ENCODING 41934
SWIDTH 1000 0
DWIDTH 26 0
BBX 26 26 0 -4
BITMAP
00000000
00000000
00000000
03801800
03C01800
03C01800
03601800
03701800
03301800
03381800
03181800
030C1800
030E1800
03061800
03071800
03039800
03019800
0301D800
0300F800
03007800
03007800
03003800
00000000
00000000
00000000
00000000
ENDCHAR

STARTCHAR Ca3cf
ENCODING 41935
SWIDTH 1000 0
DWIDTH 26 0
BBX 26 26 0 -4
BITMAP
00000000
00000000
00000000
003F0000
00FFC000
01E1E000
03807000
07003800
06001800
0E001C00
0C000C00
0C000C00
0C000C00
0C000C00
0C000C00
0E001C00
06001800
07003800
03807000
01E1E000
00FFC000
003F0000
00000000
00000000
00000000
00000000
ENDCHAR

STARTCHAR Ca3d0
ENCODING 41936
SWIDTH 1000 0
DWIDTH 26 0
BBX 26 26 0 -4
BITMAP
00000000
00000000
00000000
01FF8000
01FFE000
0180F000
01803800
01801800
01801800
01801800
01803800
0180F000
01FFE000
01FF8000
01800000
01800000
01800000
01800000
01800000
01800000
01800000
01800000
00000000
00000000
00000000
00000000
ENDCHAR

STARTCHAR Ca3d1
ENCODING 41937
SWIDTH 1000 0
DWIDTH 26 0
BBX 26 26 0 -4
BITMAP
00000000
00000000
00000000
003F0000
00FFC000
01E1E000
03807000
07003800
06001800
0E001C00
0C000C00
0C000C00
0C000C00
0C000C00
0C000C00
0E001C00
06061800
07073800
0383F000
01E1E000
00FFE000
003F7000
00003800
00001800
00000000
00000000
ENDCHAR

STARTCHAR Ca3d2
ENCODING 41938
SWIDTH 1000 0
DWIDTH 26 0
BBX 26 26 0 -4
BITMAP
00000000
00000000
00000000
03FF0000
03FFC000
0301E000
03007000
03003000
03003000
03007000
0301E000
03FFC000
03FF0000
03038000
03018000
0301C000
0300C000
0300E000
03006000
03007000
03003000
03003800
00000000
00000000
00000000
00000000
ENDCHAR

STARTCHAR Ca3d3
ENCODING 41939
SWIDTH 1000 0
DWIDTH 26 0
BBX 26 26 0 -4
BITMAP
00000000
00000000
00000000
007F0000
01FFC000
03C1E000
03006000
03000000
03000000
03C00000
01F80000
007F0000
000FC000
0001E000
00007000
00003000
00003000
06003000
07007000
03C1E000
01FFC000
007F0000
00000000
00000000
00000000
00000000
ENDCHAR

STARTCHAR Ca3d4
ENCODING 41940
SWIDTH 1000 0
DWIDTH 26 0
BBX 26 26 0 -4
BITMAP
00000000
00000000
00000000
0FFFFC00
0FFFFC00
000C0000
000C0000
000C0000
000C0000
000C0000
000C0000
000C0000
000C0000
000C0000
000C0000
000C0000
000C0000
000C0000
000C0000
000C0000
000C0000
000C0000
00000000
00000000
00000000
00000000
ENDCHAR

STARTCHAR Ca3d5
ENCODING 41941
SWIDTH 1000 0
DWIDTH 26 0
BBX 26 26 0 -4
BITMAP
00000000
00000000
00000000
06001800
06001800
06001800
06001800
06001800
06001800
06001800
06001800
06001800
06001800
06001800
06001800
06001800
07003800
03003000
03807000
01E1E000
00FFC000
003F0000
00000000
00000000
00000000
00000000
ENDCHAR

STARTCHAR Ca3d6
ENCODING 41942
SWIDTH 1000 0
DWIDTH 26 0
BBX 26 26 0 -4
BITMAP
00000000
00000000
00000000
06001800
06001800
07003800
03003000
03807000
01806000
01806000
01C0E000
00C0C000
00E1C000
00618000
00618000
00738000
00330000
003F0000
001E0000
001E0000
000C0000
000C0000
00000000
00000000
00000000
00000000
ENDCHAR

STARTCHAR Ca3d7
ENCODING 41943
SWIDTH 1000 0
DWIDTH 26 0
BBX 26 26 0 -4
BITMAP
00000000
00000000
00000000
300C0300
300C0300
300C0300
181E0600
181E0600
181E0600
18330600
0C330C00
0C330C00
0C330C00
06619800
06619800
06619800
06619800
03C0F000
03C0F000
01C0E000
01806000
01806000
00000000
00000000
00000000
00000000
ENDCHAR

STARTCHAR Ca3d8
ENCODING 41944
SWIDTH 1000 0
DWIDTH 26 0
BBX 26 26 0 -4
BITMAP
00000000
00000000
00000000
07001C00
03803800
01C07000
00C06000
00E0E000
0071C000
00318000
003B8000
001F0000
000E0000
001F0000
003B8000
0071C000
0060C000
00E0E000
01C07000
03803800
07001C00
0E000E00
00000000
00000000
00000000
00000000
ENDCHAR

STARTCHAR Ca3d9
ENCODING 41945
SWIDTH 1000 0
DWIDTH 26 0
BBX 26 26 0 -4
BITMAP
00000000
00000000
00000000
07003800
03003000
03807000
01C0E000
00C0C000
00E1C000
00738000
00330000
003F0000
001E0000
000C0000
000C0000
000C0000
000C0000
000C0000
000C0000
000C0000
000C0000
000C0000
00000000
00000000
00000000
00000000
ENDCHAR

STARTCHAR Ca3da
ENCODING 41946
SWIDTH 1000 0
DWIDTH 26 0
BBX 26 26 0 -4
BITMAP
00000000
00000000
00000000
03FFE000
03FFE000
0000C000
0001C000
00038000
00030000
00070000
000E0000
000C0000
001C0000
00380000
00300000
00700000
00E00000
00C00000
01C00000
03800000
07FFF000
07FFF000
00000000
00000000
00000000
00000000
ENDCHAR

STARTCHAR Ca3db
ENCODING 41947
SWIDTH 1000 0
DWIDTH 26 0
BBX 26 26 0 -4
BITMAP
00000000
00000000
00000000
00000000
00000000
00000000
00000000
00000000
00000000
00000000
00000000
00000000
00000000
00000000
00000000
00000000
00000000
00000000
00000000
00000000
00000000
00000000
00000000
00000000
00000000
00000000
ENDCHAR

STARTCHAR Ca3dc
ENCODING 41948
SWIDTH 1000 0
DWIDTH 26 0
BBX 26 26 0 -4
BITMAP
00000000
00000000
00000000
00000000
00000000
00000000
00000000
00000000
00000000
00000000
00000000
00000000
00000000
00000000
00000000
00000000
00000000
00000000
00000000
00000000
00000000
00000000
00000000
00000000
00000000
00000000
ENDCHAR

STARTCHAR Ca3dd
ENCODING 41949
SWIDTH 1000 0
DWIDTH 26 0
BBX 26 26 0 -4
BITMAP
00000000
00000000
00000000
00000000
00000000
00000000
00000000
00000000
00000000
00000000
00000000
00000000
00000000
00000000
00000000
00000000
00000000
00000000
00000000
00000000
00000000
00000000
00000000
00000000
00000000
00000000
ENDCHAR

STARTCHAR Ca3de
ENCODING 41950
SWIDTH 1000 0
DWIDTH 26 0
BBX 26 26 0 -4
BITMAP
00000000
00000000
00000000
00000000
00000000
00000000
00000000
00000000
00000000
00000000
00000000
00000000
00000000
00000000
00000000
00000000
00000000
00000000
00000000
00000000
00000000
00000000
00000000
00000000
00000000
00000000
ENDCHAR

STARTCHAR Ca3df
ENCODING 41951
SWIDTH 1000 0
DWIDTH 26 0
BBX 26 26 0 -4
BITMAP
00000000
00000000
00000000
00000000
00000000
00000000
00000000
00000000
00000000
00000000
00000000
00000000
00000000
00000000
00000000
00000000
00000000
00000000
00000000
00000000
00000000
00000000
00000000
00000000
00000000
00000000
ENDCHAR

STARTCHAR Ca3e0
ENCODING 41952
SWIDTH 1000 0
DWIDTH 26 0
BBX 26 26 0 -4
BITMAP
00000000
00000000
00000000
00000000
00000000
00000000
00000000
00000000
00000000
00000000
00000000
00000000
00000000
00000000
00000000
00000000
00000000
00000000
00000000
00000000
00000000
00000000
00000000
00000000
00000000
00000000
ENDCHAR

STARTCHAR Ca3e1
ENCODING 41953
SWIDTH 1000 0
DWIDTH 26 0
BBX 26 26 0 -4
BITMAP
00000000
00000000
00000000
00000000
00000000
00000000
00000000
00000000
00000000
003E0000
007F8000
00E18000
00C0C000
0000C000
003FC000
00FFC000
00C0C000
0180C000
0180C000
01C1C000
00FFF000
007E7000
00000000
00000000
00000000
00000000
ENDCHAR

STARTCHAR Ca3e2
ENCODING 41954
SWIDTH 1000 0
DWIDTH 26 0
BBX 26 26 0 -4
BITMAP
00000000
00000000
00000000
01800000
01800000
01800000
01800000
01800000
01800000
01BE0000
01FF8000
01E3C000
0180C000
0180E000
01806000
01806000
01806000
0180E000
0180C000
01E3C000
01FF8000
01BE0000
00000000
00000000
00000000
00000000
ENDCHAR

STARTCHAR Ca3e3
ENCODING 41955
SWIDTH 1000 0
DWIDTH 26 0
BBX 26 26 0 -4
BITMAP
00000000
00000000
00000000
00000000
00000000
00000000
00000000
00000000
00000000
001F0000
007FC000
00F1E000
00C06000
01C06000
01800000
01800000
01800000
01C00000
00C06000
00F1E000
007FC000
001F0000
00000000
00000000
00000000
00000000
ENDCHAR

STARTCHAR Ca3e4
ENCODING 41956
SWIDTH 1000 0
DWIDTH 26 0
BBX 26 26 0 -4
BITMAP
00000000
00000000
00000000
0000C000
0000C000
0000C000
0000C000
0000C000
0000C000
003EC000
00FFC000
01E3C000
0180C000
0380C000
0300C000
0300C000
0300C000
0380C000
0180C000
01E3C000
00FFC000
003EC000
00000000
00000000
00000000
00000000
ENDCHAR

STARTCHAR Ca3e5
ENCODING 41957
SWIDTH 1000 0
DWIDTH 26 0
BBX 26 26 0 -4
BITMAP
00000000
00000000
00000000
00000000
00000000
00000000
00000000
00000000
00000000
001E0000
007F8000
00F3C000
00C0C000
01806000
01FFE000
01FFE000
01800000
01800000
00C06000
00F1E000
007FC000
001F0000
00000000
00000000
00000000
00000000
ENDCHAR

STARTCHAR Ca3e6
ENCODING 41958
SWIDTH 1000 0
DWIDTH 26 0
BBX 26 26 0 -4
BITMAP
00000000
00000000
00000000
0007C000
000FC000
001C0000
00180000
00180000
00180000
01FFC000
01FFC000
00180000
00180000
00180000
00180000
00180000
00180000
00180000
00180000
00180000
00180000
00180000
00000000
00000000
00000000
00000000
ENDCHAR

STARTCHAR Ca3e7
ENCODING 41959
SWIDTH 1000 0
DWIDTH 26 0
BBX 26 26 0 -4
BITMAP
00000000
00000000
00000000
00000000
00000000
00000000
00000000
00000000
00000000
003EC000
00FFC000
00E3C000
01C1C000
0180C000
0180C000
0180C000
01C1C000
00E3C000
00FFC000
003EC000
0000C000
0180C000
01C1C000
00FF8000
007F0000
00000000
ENDCHAR

STARTCHAR Ca3e8
ENCODING 41960
SWIDTH 1000 0
DWIDTH 26 0
BBX 26 26 0 -4
BITMAP
00000000
00000000
00000000
00C00000
00C00000
00C00000
00C00000
00C00000
00C00000
00DF0000
00FFC000
00E0C000
00C06000
00C06000
00C06000
00C06000
00C06000
00C06000
00C06000
00C06000
00C06000
00C06000
00000000
00000000
00000000
00000000
ENDCHAR

STARTCHAR Ca3e9
ENCODING 41961
SWIDTH 1000 0
DWIDTH 26 0
BBX 26 26 0 -4
BITMAP
00000000
00000000
00000000
000C0000
000C0000
000C0000
00000000
00000000
00000000
000C0000
000C0000
000C0000
000C0000
000C0000
000C0000
000C0000
000C0000
000C0000
000C0000
000C0000
000C0000
000C0000
00000000
00000000
00000000
00000000
ENDCHAR

STARTCHAR Ca3ea
ENCODING 41962
SWIDTH 1000 0
DWIDTH 26 0
BBX 26 26 0 -4
BITMAP
00000000
00000000
00000000
00030000
00030000
00030000
00000000
00000000
00000000
00030000
00030000
00030000
00030000
00030000
00030000
00030000
00030000
00030000
00030000
00030000
00030000
00030000
00070000
007E0000
007C0000
00000000
ENDCHAR

STARTCHAR Ca3eb
ENCODING 41963
SWIDTH 1000 0
DWIDTH 26 0
BBX 26 26 0 -4
BITMAP
00000000
00000000
00000000
01800000
01800000
01800000
01800000
01800000
01800000
0181C000
01838000
01870000
018E0000
019C0000
01B80000
01FC0000
01EE0000
01870000
01838000
0181C000
0180E000
01807000
00000000
00000000
00000000
00000000
ENDCHAR

STARTCHAR Ca3ec
ENCODING 41964
SWIDTH 1000 0
DWIDTH 26 0
BBX 26 26 0 -4
BITMAP
00000000
00000000
00000000
000C0000
000C0000
000C0000
000C0000
000C0000
000C0000
000C0000
000C0000
000C0000
000C0000
000C0000
000C0000
000C0000
000C0000
000C0000
000C0000
000C0000
000C0000
000C0000
00000000
00000000
00000000
00000000
ENDCHAR

STARTCHAR Ca3ed
ENCODING 41965
SWIDTH 1000 0
DWIDTH 26 0
BBX 26 26 0 -4
BITMAP
00000000
00000000
00000000
00000000
00000000
00000000
00000000
00000000
00000000
0DE3C000
0FF7F000
0E3C3000
0C181800
0C181800
0C181800
0C181800
0C181800
0C181800
0C181800
0C181800
0C181800
0C181800
00000000
00000000
00000000
00000000
ENDCHAR

STARTCHAR Ca3ee
ENCODING 41966
SWIDTH 1000 0
DWIDTH 26 0
BBX 26 26 0 -4
BITMAP
00000000
00000000
00000000
00000000
00000000
00000000
00000000
00000000
00000000
018E0000
01BF8000
01F1C000
01C0C000
0180C000
0180C000
0180C000
0180C000
0180C000
0180C000
0180C000
0180C000
0180C000
00000000
00000000
00000000
00000000
ENDCHAR

STARTCHAR Ca3ef
ENCODING 41967
SWIDTH 1000 0
DWIDTH 26 0
BBX 26 26 0 -4
BITMAP
00000000
00000000
00000000
00000000
00000000
00000000
00000000
00000000
00000000
001E0000
007F8000
00F3C000
00C0C000
01C0E000
01806000
01806000
01806000
01C0E000
00C0C000
00F3C000
007F8000
001E0000
00000000
00000000
00000000
00000000
ENDCHAR

STARTCHAR Ca3f0
ENCODING 41968
SWIDTH 1000 0
DWIDTH 26 0
BBX 26 26 0 -4
BITMAP
00000000
00000000
00000000
00000000
00000000
00000000
00000000
00000000
00000000
00DF0000
00FFC000
00F1E000
00C06000
00C07000
00C03000
00C03000
00C07000
00C06000
00F1E000
00FFC000
00DF0000
00C00000
00C00000
00C00000
00C00000
00000000
ENDCHAR

STARTCHAR Ca3f1
ENCODING 41969
SWIDTH 1000 0
DWIDTH 26 0
BBX 26 26 0 -4
BITMAP
00000000
00000000
00000000
00000000
00000000
00000000
00000000
00000000
00000000
007D8000
01FF8000
03C78000
03018000
07018000
06018000
06018000
07018000
03018000
03C78000
01FF8000
007D8000
00018000
00018000
00018000
00018000
00000000
ENDCHAR

STARTCHAR Ca3f2
ENCODING 41970
SWIDTH 1000 0
DWIDTH 26 0
BBX 26 26 0 -4
BITMAP
00000000
00000000
00000000
00000000
00000000
00000000
00000000
00000000
00000000
0030E000
0033E000
00370000
003C0000
00380000
00300000
00300000
00300000
00300000
00300000
00300000
00300000
00300000
00000000
00000000
00000000
00000000
ENDCHAR

STARTCHAR Ca3f3
ENCODING 41971
SWIDTH 1000 0
DWIDTH 26 0
BBX 26 26 0 -4
BITMAP
00000000
00000000
00000000
00000000
00000000
00000000
00000000
00000000
00000000
003E0000
007F8000
00E1C000
00C0C000
00E00000
007C0000
003F8000
0007C000
0000E000
01806000
01C0E000
00FFC000
003F8000
00000000
00000000
00000000
00000000
ENDCHAR

STARTCHAR Ca3f4
ENCODING 41972
SWIDTH 1000 0
DWIDTH 26 0
BBX 26 26 0 -4
BITMAP
00000000
00000000
00000000
00000000
00000000
00180000
00180000
00180000
00180000
00FF0000
00FF0000
00180000
00180000
00180000
00180000
00180000
00180000
00180000
00180000
00180000
001F8000
000F8000
00000000
00000000
00000000
00000000
ENDCHAR

STARTCHAR Ca3f5
ENCODING 41973
SWIDTH 1000 0
DWIDTH 26 0
BBX 26 26 0 -4
BITMAP
00000000
00000000
00000000
00000000
00000000
00000000
00000000
00000000
00000000
00C06000
00C06000
00C06000
00C06000
00C06000
00C06000
00C06000
00C06000
00C06000
00C0E000
00E3E000
007F6000
001C6000
00000000
00000000
00000000
00000000
ENDCHAR

STARTCHAR Ca3f6
ENCODING 41974
SWIDTH 1000 0
DWIDTH 26 0
BBX 26 26 0 -4
BITMAP
00000000
00000000
00000000
00000000
00000000
00000000
00000000
00000000
00000000
03807000
01806000
01C0E000
00C0C000
00E1C000
00618000
00738000
00330000
00330000
001E0000
001E0000
000C0000
000C0000
00000000
00000000
00000000
00000000
ENDCHAR

STARTCHAR Ca3f7
ENCODING 41975
SWIDTH 1000 0
DWIDTH 26 0
BBX 26 26 0 -4
BITMAP
00000000
00000000
00000000
00000000
00000000
00000000
00000000
00000000
00000000
0C0C0C00
0C0C0C00
0C1E0C00
061E1800
061E1800
06331800
03333000
03333000
03213000
01E1E000
01E1E000
00C0C000
00C0C000
00000000
00000000
00000000
00000000
ENDCHAR

STARTCHAR Ca3f8
ENCODING 41976
SWIDTH 1000 0
DWIDTH 26 0
BBX 26 26 0 -4
BITMAP
00000000
00000000
00000000
00000000
00000000
00000000
00000000
00000000
00000000
0380E000
01C1C000
00E38000
00770000
003E0000
001C0000
001C0000
003E0000
00770000
00E38000
01C1C000
0380E000
07007000
00000000
00000000
00000000
00000000
ENDCHAR

STARTCHAR Ca3f9
ENCODING 41977
SWIDTH 1000 0
DWIDTH 26 0
BBX 26 26 0 -4
BITMAP
00000000
00000000
00000000
00000000
00000000
00000000
00000000
00000000
00000000
01803000
01C07000
00C06000
00E0E000
0060C000
0071C000
00318000
003B8000
001B0000
001F0000
000E0000
000E0000
000C0000
001C0000
00F80000
00F00000
00000000
ENDCHAR

STARTCHAR Ca3fa
ENCODING 41978
SWIDTH 1000 0
DWIDTH 26 0
BBX 26 26 0 -4
BITMAP
00000000
00000000
00000000
00000000
00000000
00000000
00000000
00000000
00000000
00FF8000
00FF8000
00038000
00070000
000E0000
000C0000
001C0000
00380000
00300000
00700000
00E00000
01FFC000
01FFC000
00000000
00000000
00000000
00000000
ENDCHAR

STARTCHAR Ca4a1
ENCODING 42145
SWIDTH 1000 0
DWIDTH 26 0
BBX 26 26 0 -4
BITMAP
00000000
00000000
00000000
00000000
00000000
00300000
00300000
00300000
003F8000
07FF8000
07E00000
00630000
006F8000
007FE000
01F37000
03E33000
07671800
06661800
0C6E1800
0C7C1800
0C383800
0FF0F000
07C3E000
00038000
00000000
00000000
ENDCHAR

STARTCHAR Ca4a2
ENCODING 42146
SWIDTH 1000 0
DWIDTH 26 0
BBX 26 26 0 -4
BITMAP
00000000
00000000
00300000
00300000
00300000
003FE000
07FFE000
07E00000
00600000
00618000
006FC000
007FF000
01F1B800
03E19C00
07630C00
0E630E00
0C660600
1C6E0600
187C0600
18380E00
18F00C00
1FD83C00
0F01F800
0001E000
00000000
00000000
ENDCHAR

STARTCHAR Ca4a3
ENCODING 42147
SWIDTH 1000 0
DWIDTH 26 0
BBX 26 26 0 -4
BITMAP
00000000
00000000
00000000
00000000
00000000
00000000
00000000
00000000
00000000
00000000
00000000
06008000
0601C000
0600E000
06006000
06007000
06003000
06003800
06301800
03301800
03601800
03E00000
01C00000
00C00000
00000000
00000000
ENDCHAR

STARTCHAR Ca4a4
ENCODING 42148
SWIDTH 1000 0
DWIDTH 26 0
BBX 26 26 0 -4
BITMAP
00000000
00000000
00000000
00000000
00000000
00000000
0C000000
0C004000
0C00E000
0C007000
0C003800
0C001800
0C001C00
0C000C00
0E000E00
06100600
06180600
07180400
03380000
03B00000
01F00000
00E00000
00000000
00000000
00000000
00000000
ENDCHAR

STARTCHAR Ca4a5
ENCODING 42149
SWIDTH 1000 0
DWIDTH 26 0
BBX 26 26 0 -4
BITMAP
00000000
00000000
00000000
00000000
00000000
00000000
00780000
007E0000
000E0000
00000000
00000000
001F0000
007F8000
01F1C000
01C0C000
0000C000
0000C000
0000C000
0001C000
00018000
00038000
000F0000
003E0000
00380000
00000000
00000000
ENDCHAR

STARTCHAR Ca4a6
ENCODING 42150
SWIDTH 1000 0
DWIDTH 26 0
BBX 26 26 0 -4
BITMAP
00000000
00000000
00380000
007E0000
000F0000
00038000
00010000
00000000
000F8000
007FC000
03F8E000
03C07000
00003000
00003000
00003000
00003000
00007000
00006000
0000E000
0001C000
00038000
000F0000
007E0000
00380000
00000000
00000000
ENDCHAR

STARTCHAR Ca4a7
ENCODING 42151
SWIDTH 1000 0
DWIDTH 26 0
BBX 26 26 0 -4
BITMAP
00000000
00000000
00000000
00000000
00000000
00000000
00000000
001C0000
003F0000
00060000
00000000
001F0000
01FF8000
01E38000
00070000
000E0000
001C0000
003E0000
00770000
00E30000
01C30000
0383F800
0701F800
02000000
00000000
00000000
ENDCHAR

STARTCHAR Ca4a8
ENCODING 42152
SWIDTH 1000 0
DWIDTH 26 0
BBX 26 26 0 -4
BITMAP
00000000
00200000
00780000
003E0000
000F0000
00020000
00000000
00000000
003F8000
07FFC000
07C38000
00070000
000E0000
001C0000
00380000
003E0000
007F0000
00E30000
01C30000
03830000
07038000
0E01FE00
1C00FE00
08000000
00000000
00000000
ENDCHAR

STARTCHAR Ca4a9
ENCODING 42153
SWIDTH 1000 0
DWIDTH 26 0
BBX 26 26 0 -4
BITMAP
00000000
00000000
00000000
00000000
00000000
00000000
00000000
00300000
00300000
00303000
003E7C00
03FE1E00
03F00400
00300000
0037C000
007FF000
01F83000
03B01800
03301800
06301800
06303800
0730F000
03F3E000
00E18000
00000000
00000000
ENDCHAR

STARTCHAR Ca4aa
ENCODING 42154
SWIDTH 1000 0
DWIDTH 26 0
BBX 26 26 0 -4
BITMAP
00000000
00000000
00600000
00600000
00603000
00607800
007E1C00
0FFE0E00
0FE00400
00600000
00600000
0067C000
007FF800
01F83C00
03E00C00
07600E00
0E600600
0C600600
1C600600
18600E00
0C603C00
0FE7F800
03C3C000
00000000
00000000
00000000
ENDCHAR

STARTCHAR Ca4ab
ENCODING 42155
SWIDTH 1000 0
DWIDTH 26 0
BBX 26 26 0 -4
BITMAP
00000000
00000000
00000000
00300000
00300000
00300000
00301000
00603800
007E1C00
0FFF0E00
0FC38600
00C18700
00C18300
01818380
01818180
03818180
03018100
07038000
06030000
0E030000
0C670000
1C7E0000
081C0000
00000000
00000000
00000000
ENDCHAR

STARTCHAR Ca4ac
ENCODING 42156
SWIDTH 1000 0
DWIDTH 26 0
BBX 26 26 0 -4
BITMAP
00000000
00000200
00000700
00601380
00603900
00601C00
00602800
00C07000
00FC3800
1FFE1C00
1F870C00
01830E00
01830600
03030700
03030300
07030300
06030200
0E070000
0C060000
1C060000
18CE0000
38FC0000
10380000
00000000
00000000
00000000
ENDCHAR

STARTCHAR Ca4ad
ENCODING 42157
SWIDTH 1000 0
DWIDTH 26 0
BBX 26 26 0 -4
BITMAP
00000000
00200000
00700000
00300000
0038E000
001FE000
03FF0000
03FC0000
000E1C00
0006FC00
001FE000
07FF0000
03E18000
0001C000
0000C000
00FE6000
03FFF000
0300F000
06002000
06000000
07000000
03C00000
01FF8000
007F8000
00000000
00000000
ENDCHAR

STARTCHAR Ca4ae
ENCODING 42158
SWIDTH 1000 0
DWIDTH 26 0
BBX 26 26 0 -4
BITMAP
00000000
00200200
00700700
00300380
0038C900
001FDC00
03FF0E00
03FC0400
000E1800
0006FC00
001FE000
07FF0000
03E18000
0001C000
0000C000
00FE6000
03FFF000
0300F000
06002000
06000000
07000000
03C00000
01FF8000
007F8000
00000000
00000000
ENDCHAR

STARTCHAR Ca4af
ENCODING 42159
SWIDTH 1000 0
DWIDTH 26 0
BBX 26 26 0 -4
BITMAP
00000000
00000000
00008000
0000C000
0001C000
00038000
00070000
000E0000
001C0000
00780000
00E00000
01C00000
03800000
03800000
01C00000
00E00000
00780000
001C0000
000E0000
00070000
00038000
0001C000
0000E000
00004000
00000000
00000000
ENDCHAR

STARTCHAR Ca4b0
ENCODING 42160
SWIDTH 1000 0
DWIDTH 26 0
BBX 26 26 0 -4
BITMAP
00000000
00000000
00008000
0000C000
0001C200
00038700
00070380
000E0900
001C1C00
00780E00
00E00400
01C00000
03800000
03800000
01C00000
00E00000
00780000
001C0000
000E0000
00070000
00038000
0001C000
0000E000
00004000
00000000
00000000
ENDCHAR

STARTCHAR Ca4b1
ENCODING 42161
SWIDTH 1000 0
DWIDTH 26 0
BBX 26 26 0 -4
BITMAP
00000000
00000000
00003000
06003000
06003000
06003000
06003000
06003F00
061FFF00
0E1FF000
0C003000
0C003000
0C003000
0C003000
0C003000
0C003000
0C807000
0DC06000
0D806000
0780E000
0700C000
0301C000
00038000
00070000
00020000
00000000
ENDCHAR

STARTCHAR Ca4b2
ENCODING 42162
SWIDTH 1000 0
DWIDTH 26 0
BBX 26 26 0 -4
BITMAP
00000000
00000900
00007B00
0C006D80
0C006D80
0C006900
0C006000
0C007E00
0C3FFE00
1C3FE000
18006000
18006000
18006000
18006000
18006000
18006000
1900E000
1B80C000
1B00C000
0F01C000
0E018000
06038000
00070000
000E0000
00040000
00000000
ENDCHAR

STARTCHAR Ca4b3
ENCODING 42163
SWIDTH 1000 0
DWIDTH 26 0
BBX 26 26 0 -4
BITMAP
00000000
00000000
00000000
00000000
00004000
01FFE000
01FFE000
00078000
000E0000
001C0000
00080000
00000000
00000000
00000000
01000000
03800000
07000000
06000000
07000000
03C01C00
01FFFC00
007FF000
00000000
00000000
00000000
00000000
ENDCHAR

STARTCHAR Ca4b4
ENCODING 42164
SWIDTH 1000 0
DWIDTH 26 0
BBX 26 26 0 -4
BITMAP
00000000
00000000
00000000
00000200
00004700
01FFE380
01FFE900
00079C00
000E0E00
001C0400
00080000
00000000
00000000
00000000
01000000
03800000
07000000
06000000
07000000
03C01C00
01FFFC00
007FF000
00000000
00000000
00000000
00000000
ENDCHAR

STARTCHAR Ca4b5
ENCODING 42165
SWIDTH 1000 0
DWIDTH 26 0
BBX 26 26 0 -4
BITMAP
00000000
00000000
00200000
00700000
00300000
00387000
001BF000
003F8000
0FFE0000
0FC70000
00030000
00018000
0001C000
00FCE000
03FFF000
0383F000
06002000
06000000
07000000
03000000
03E00000
01FF8000
003F8000
00000000
00000000
00000000
ENDCHAR

STARTCHAR Ca4b6
ENCODING 42166
SWIDTH 1000 0
DWIDTH 26 0
BBX 26 26 0 -4
BITMAP
00000000
00000200
00201700
00703B80
00301D00
0038C800
001BE000
003F8000
0FFE0000
0FC70000
00030000
00018000
0001C000
00FCE000
03FFF000
0383F000
06002000
06000000
07000000
03000000
03E00000
01FF8000
003F8000
00000000
00000000
00000000
ENDCHAR

STARTCHAR Ca4b7
ENCODING 42167
SWIDTH 1000 0
DWIDTH 26 0
BBX 26 26 0 -4
BITMAP
00000000
00000000
00000000
01800000
01800000
01800000
01800000
01800000
01800000
01800000
01800000
01800000
01800000
01800000
01800000
01800800
01800C00
01801C00
01801800
01803800
01807000
00C1E000
00FFC000
003F0000
00000000
00000000
ENDCHAR

STARTCHAR Ca4b8
ENCODING 42168
SWIDTH 1000 0
DWIDTH 26 0
BBX 26 26 0 -4
BITMAP
00000000
00000000
00000000
01804000
0180E000
01807000
01823800
01871000
01838000
0181C000
01808000
01800000
01800000
01800000
01800000
01800800
01800C00
01801C00
01801800
01803800
01807000
00C1E000
00FFC000
003F0000
00000000
00000000
ENDCHAR

STARTCHAR Ca4b9
ENCODING 42169
SWIDTH 1000 0
DWIDTH 26 0
BBX 26 26 0 -4
BITMAP
00000000
00000000
00030000
00030000
00030000
00030000
0003FF00
3FFFFF00
3FFF0000
00030000
00030000
003F0000
007F0000
00E70000
00C38000
00E78000
007F8000
003B8000
00030000
00070000
00060000
000E0000
003C0000
00F80000
00600000
00000000
ENDCHAR

STARTCHAR Ca4ba
ENCODING 42170
SWIDTH 1000 0
DWIDTH 26 0
BBX 26 26 0 -4
BITMAP
00000000
00000200
00032700
00037380
00033900
00031000
0003FF00
3FFFFF00
3FFF0000
00030000
00030000
003F0000
007F0000
00E70000
00C38000
00E78000
007F8000
003B8000
00030000
00070000
00060000
000E0000
003C0000
00F80000
00600000
00000000
ENDCHAR

STARTCHAR Ca4bb
ENCODING 42171
SWIDTH 1000 0
DWIDTH 26 0
BBX 26 26 0 -4
BITMAP
00000000
00000000
00000000
0000C000
0180C000
0180C000
0180C000
0180C000
0180C000
0180FF80
01FFFF80
7FFFC000
7F80C000
0180C000
0180C000
0186C000
0187C000
01838000
01800000
01800000
01C00000
00FFFC00
007FFC00
00000000
00000000
00000000
ENDCHAR

STARTCHAR Ca4bc
ENCODING 42172
SWIDTH 1000 0
DWIDTH 26 0
BBX 26 26 0 -4
BITMAP
00000000
00000200
00000700
0000C380
0180C900
0180DC00
0180CE00
0180C400
0180C000
0180FF80
01FFFF80
7FFFC000
7F80C000
0180C000
0180C000
0186C000
0187C000
01838000
01800000
01800000
01C00000
00FFFC00
007FFC00
00000000
00000000
00000000
ENDCHAR

STARTCHAR Ca4bd
ENCODING 42173
SWIDTH 1000 0
DWIDTH 26 0
BBX 26 26 0 -4
BITMAP
00000000
00000000
00008000
000FC000
01FFE000
01F1C000
00038000
00070000
000E0000
001C0000
0038FE00
01FFFE00
3FFF0000
3E0E0000
001C0000
00180000
00380000
00300000
00300000
00300000
00380000
001E0000
000FE000
0003E000
00000000
00000000
ENDCHAR

STARTCHAR Ca4be
ENCODING 42174
SWIDTH 1000 0
DWIDTH 26 0
BBX 26 26 0 -4
BITMAP
00000000
00000200
00008700
000FC380
01FFE900
01F1DC00
00038E00
00070400
000E0000
001C0000
0038FE00
01FFFE00
3FFF0000
3E0E0000
001C0000
00180000
00380000
00300000
00300000
00300000
00380000
001E0000
000FE000
0003E000
00000000
00000000
ENDCHAR

STARTCHAR Ca4bf
ENCODING 42175
SWIDTH 1000 0
DWIDTH 26 0
BBX 26 26 0 -4
BITMAP
00000000
00000000
00600000
00600000
00600000
00600000
00C00000
00FC0000
1FFC0000
1FC00000
00C1FC00
0187FC00
01870000
03800000
03000000
03000000
06000000
06080000
0E180000
0C1C0000
1C0F0000
1807FE00
3801FE00
30000000
00000000
00000000
ENDCHAR

STARTCHAR Ca4c0
ENCODING 42176
SWIDTH 1000 0
DWIDTH 26 0
BBX 26 26 0 -4
BITMAP
00000000
00000000
00600400
00600E00
00602700
00607200
00C03800
00FC1000
1FFC0000
1FC00000
00C1FC00
0187FC00
01870000
03800000
03000000
03000000
06000000
06080000
0E180000
0C1C0000
1C0F0000
1807FE00
3801FE00
30000000
00000000
00000000
ENDCHAR

STARTCHAR Ca4c1
ENCODING 42177
SWIDTH 1000 0
DWIDTH 26 0
BBX 26 26 0 -4
BITMAP
00000000
00000000
00600000
00600000
00600000
00E00000
00C3C000
1FFFC000
1FFC0000
00C00000
01C00000
01800000
019FE000
037FF800
03E03800
07801C00
07000C00
02000C00
00000C00
00001C00
00007800
001FF000
001FC000
00000000
00000000
00000000
ENDCHAR

STARTCHAR Ca4c2
ENCODING 42178
SWIDTH 1000 0
DWIDTH 26 0
BBX 26 26 0 -4
BITMAP
00000000
00000200
00600700
00601380
00603900
00E01C00
00C3C800
1FFFC000
1FFC0000
00C00000
01C00000
01800000
019FE000
037FF800
03E03800
07801C00
07000C00
02000C00
00000C00
00001C00
00007800
001FF000
001FC000
00000000
00000000
00000000
ENDCHAR

STARTCHAR Ca4c3
ENCODING 42179
SWIDTH 1000 0
DWIDTH 26 0
BBX 26 26 0 -4
BITMAP
00000000
00000000
00000000
00000000
00000000
00000000
00000000
00000000
00000000
00000000
000FC000
00FFF000
0FF07000
0F003800
00001800
00001800
00001800
00003800
00003000
0000F000
0007E000
003F8000
003C0000
00000000
00000000
00000000
ENDCHAR

STARTCHAR Ca4c4
ENCODING 42180
SWIDTH 1000 0
DWIDTH 26 0
BBX 26 26 0 -4
BITMAP
00000000
00000000
00000000
00000000
00000000
00000000
000FE000
01FFF800
1FF03C00
1F000C00
00000E00
00000600
00000600
00000600
00000E00
00000C00
00001C00
00007800
0007F000
007FC000
007C0000
00000000
00000000
00000000
00000000
00000000
ENDCHAR

STARTCHAR Ca4c5
ENCODING 42181
SWIDTH 1000 0
DWIDTH 26 0
BBX 26 26 0 -4
BITMAP
00000000
00000200
00002700
00007380
00003900
00001000
000FE000
01FFF800
1FF03C00
1F000C00
00000E00
00000600
00000600
00000600
00000E00
00000C00
00001C00
00007800
0007F000
007FC000
007C0000
00000000
00000000
00000000
00000000
00000000
ENDCHAR

STARTCHAR Ca4c6
ENCODING 42182
SWIDTH 1000 0
DWIDTH 26 0
BBX 26 26 0 -4
BITMAP
00000000
00000000
00000000
00000000
0000FE00
007FFE00
3FFF8000
3F830000
000E0000
001C0000
00180000
00380000
00300000
00700000
00600000
00600000
00600000
00700000
00300000
00380000
001E0000
000FF000
0003F000
00000000
00000000
00000000
ENDCHAR

STARTCHAR Ca4c7
ENCODING 42183
SWIDTH 1000 0
DWIDTH 26 0
BBX 26 26 0 -4
BITMAP
00000000
00000000
00000000
00000000
00007E00
007FFE00
3FFF8000
3F830000
000E0400
001C0E00
00180700
00382200
00307000
00703800
00601000
00600000
00600000
00700000
00300000
00380000
001E0000
000FF000
0003F000
00000000
00000000
00000000
ENDCHAR

STARTCHAR Ca4c8
ENCODING 42184
SWIDTH 1000 0
DWIDTH 26 0
BBX 26 26 0 -4
BITMAP
00000000
00000000
00000000
00600000
00600000
00700000
00300000
00300000
00387000
0019F800
001FC000
003E0000
00F00000
01C00000
03800000
03000000
07000000
06000000
06000000
07000000
03E00000
01FFF800
003FF800
00000000
00000000
00000000
ENDCHAR

STARTCHAR Ca4c9
ENCODING 42185
SWIDTH 1000 0
DWIDTH 26 0
BBX 26 26 0 -4
BITMAP
00000000
00000200
00002700
00607380
00603900
00701000
00300000
00300000
00387000
0019F800
001FC000
003E0000
00F00000
01C00000
03800000
03000000
07000000
06000000
06000000
07000000
03E00000
01FFF800
003FF800
00000000
00000000
00000000
ENDCHAR

STARTCHAR Ca4ca
ENCODING 42186
SWIDTH 1000 0
DWIDTH 26 0
BBX 26 26 0 -4
BITMAP
00000000
00000000
00300000
00300000
00300000
00600000
007E1000
0FFE3C00
0FE01E00
00C00700
01C0C300
0180C200
0380C000
0300C000
0700C000
0600C000
0E0FC000
1C3FF000
0870FC00
0060DE00
0071C700
003FC200
000F0000
00000000
00000000
00000000
ENDCHAR

STARTCHAR Ca4cb
ENCODING 42187
SWIDTH 1000 0
DWIDTH 26 0
BBX 26 26 0 -4
BITMAP
00000000
00000000
00000000
06000000
06000000
0600FC00
060FFC00
060F0000
06000000
0E000000
0C000000
0C000000
0C000000
0C000000
0C000000
0C800000
0CC40000
0D8C0000
0D8C0000
0F070000
0707FE00
0601FE00
06000000
00000000
00000000
00000000
ENDCHAR

STARTCHAR Ca4cc
ENCODING 42188
SWIDTH 1000 0
DWIDTH 26 0
BBX 26 26 0 -4
BITMAP
00000000
00000000
00000000
00060000
00060000
0C060000
0C060000
063FC000
06FFF800
07CC3C00
038C0C00
070C0E00
07980600
0D980600
0D980600
18F00600
18E1F600
1873FC00
18D70E00
1DC61F00
0F877B80
0703E100
00000000
00000000
00000000
00000000
ENDCHAR

STARTCHAR Ca4cd
ENCODING 42189
SWIDTH 1000 0
DWIDTH 26 0
BBX 26 26 0 -4
BITMAP
00000000
00000000
01800000
01800000
01800000
01800000
01C00000
03E1F000
1FC7F800
1D9F1C00
01BC0C00
01F00E00
01E00600
03C00600
03800600
07800600
0F800600
0D81F600
1987FC00
39861F00
318C3B80
018FF100
0183C000
01800000
00000000
00000000
ENDCHAR

STARTCHAR Ca4ce
ENCODING 42190
SWIDTH 1000 0
DWIDTH 26 0
BBX 26 26 0 -4
BITMAP
00000000
00000000
00000000
00000000
001F8000
00FFE000
01E67000
03863800
07061C00
0E0E0C00
0C0C0E00
1C0C0600
181C0600
18180600
18180600
18380600
18300E00
1C700C00
0C601C00
0EE03800
07C0F000
0383E000
00018000
00000000
00000000
00000000
ENDCHAR

STARTCHAR Ca4cf
ENCODING 42191
SWIDTH 1000 0
DWIDTH 26 0
BBX 26 26 0 -4
BITMAP
00000000
00000000
0000C000
0C00C000
0C00C000
0C00C000
0C00C000
0C00FE00
0C3FFE00
0C3FC000
1C00C000
1800C000
1800C000
1800C000
1800C000
1800C000
190FC000
1B9FF000
1B30FC00
1E30DE00
1E38C700
0C1FC200
0C078000
00000000
00000000
00000000
ENDCHAR

STARTCHAR Ca4d0
ENCODING 42192
SWIDTH 1000 0
DWIDTH 26 0
BBX 26 26 0 -4
BITMAP
00000000
00000200
0000C700
0C00D380
0C00F900
0C00DC00
0C00C800
0C00FE00
0C3FFE00
0C3FC000
1C00C000
1800C000
1800C000
1800C000
1800C000
1800C000
190FC000
1B9FF000
1B30FC00
1E30DE00
1E38C700
0C1FC200
0C078000
00000000
00000000
00000000
ENDCHAR

STARTCHAR Ca4d1
ENCODING 42193
SWIDTH 1000 0
DWIDTH 26 0
BBX 26 26 0 -4
BITMAP
00000000
00000F00
0000D980
0C00D080
0C00D080
0C00D980
0C00CF00
0C00C000
0C3FFE00
0C3FFE00
1C00C000
1800C000
1800C000
1800C000
1800C000
1800C000
190FC000
1B9FF000
1B30FC00
1E30DE00
1E38C700
0C1FC200
0C078000
00000000
00000000
00000000
ENDCHAR

STARTCHAR Ca4d2
ENCODING 42194
SWIDTH 1000 0
DWIDTH 26 0
BBX 26 26 0 -4
BITMAP
00000000
00000000
00000000
00002000
00306000
01F87000
1FF03000
1E603800
00C03800
01C02C00
01802E00
03002700
03003380
07003380
06003100
06003000
06007000
06006000
07006000
0300E000
03C3C000
01FF8000
007E0000
00000000
00000000
00000000
ENDCHAR

STARTCHAR Ca4d3
ENCODING 42195
SWIDTH 1000 0
DWIDTH 26 0
BBX 26 26 0 -4
BITMAP
00000000
00000900
00001B00
00004D80
0060CD80
03F0E900
3FE06000
3CC07000
01807000
03805800
03005C00
06004E00
06006700
0E006700
0C006200
0C006000
0C00E000
0C00C000
0E00C000
0601C000
07878000
03FF0000
00FC0000
00000000
00000000
00000000
ENDCHAR

STARTCHAR Ca4d4
ENCODING 42196
SWIDTH 1000 0
DWIDTH 26 0
BBX 26 26 0 -4
BITMAP
00000000
00000F00
00001980
00005080
0060D080
03F0D980
3FE06F00
3CC06000
01807000
03805800
03005C00
06004E00
06006700
0E006700
0C006200
0C006000
0C00E000
0C00C000
0E00C000
0601C000
07878000
03FF0000
00FC0000
00000000
00000000
00000000
ENDCHAR

STARTCHAR Ca4d5
ENCODING 42197
SWIDTH 1000 0
DWIDTH 26 0
BBX 26 26 0 -4
BITMAP
00000000
00000000
00300000
007C0000
001F0000
00078000
000F8000
001D0000
00180000
00300000
00300000
00381000
041C3800
060E1C00
06070C00
0E030E00
0C038600
1C018600
38818700
71C18400
20E38000
007F0000
001E0000
00000000
00000000
00000000
ENDCHAR

STARTCHAR Ca4d6
ENCODING 42198
SWIDTH 1000 0
DWIDTH 26 0
BBX 26 26 0 -4
BITMAP
00000000
00000200
00300700
007C1380
001F3900
00079C00
000F8800
001D0000
00180000
00300000
00300000
00381000
041C3800
060E1C00
06070C00
0E030E00
0C038600
1C018600
38818700
71C18400
20E38000
007F0000
001E0000
00000000
00000000
00000000
ENDCHAR

STARTCHAR Ca4d7
ENCODING 42199
SWIDTH 1000 0
DWIDTH 26 0
BBX 26 26 0 -4
BITMAP
00000000
00000000
00301E00
007C3300
001F2100
0007A100
000FB300
001D1E00
00180000
00300000
00300000
00381000
041C3800
060E1C00
06070C00
0E030E00
0C038600
1C018600
38818700
71C18400
20E38000
007F0000
001E0000
00000000
00000000
00000000
ENDCHAR

STARTCHAR Ca4d8
ENCODING 42200
SWIDTH 1000 0
DWIDTH 26 0
BBX 26 26 0 -4
BITMAP
00000000
00000000
00000000
00000000
00000000
00000000
00000000
00380000
007C0000
00EE0000
01C70000
03838000
0701C000
0E00F000
3C007800
18001E00
00000F80
00000300
00000000
00000000
00000000
00000000
00000000
00000000
00000000
00000000
ENDCHAR

STARTCHAR Ca4d9
ENCODING 42201
SWIDTH 1000 0
DWIDTH 26 0
BBX 26 26 0 -4
BITMAP
00000000
00000000
00000000
00000000
00000800
00009C00
0001CE00
0038E400
007C4000
00EE0000
01C70000
03838000
0701C000
0E00F000
3C007800
18001E00
00000F80
00000300
00000000
00000000
00000000
00000000
00000000
00000000
00000000
00000000
ENDCHAR

STARTCHAR Ca4da
ENCODING 42202
SWIDTH 1000 0
DWIDTH 26 0
BBX 26 26 0 -4
BITMAP
00000000
00000000
00000000
00007800
0000CC00
00008400
00008400
0038CC00
007C7800
00EE0000
01C70000
03838000
0701C000
0E00F000
3C007800
18001E00
00000F80
00000300
00000000
00000000
00000000
00000000
00000000
00000000
00000000
00000000
ENDCHAR

STARTCHAR Ca4db
ENCODING 42203
SWIDTH 1000 0
DWIDTH 26 0
BBX 26 26 0 -4
BITMAP
00000000
00000000
00000000
0C003C00
0C3FFC00
0C3FC000
0C00C000
0C00C000
0C00C000
0C00FE00
1C3FFE00
183FC000
1800C000
1800C000
1800C000
1900C000
198FC000
1B3FF000
1B70FC00
1E60DE00
1E71C700
0C3FC200
0C0F0000
00000000
00000000
00000000
ENDCHAR

STARTCHAR Ca4dc
ENCODING 42204
SWIDTH 1000 0
DWIDTH 26 0
BBX 26 26 0 -4
BITMAP
00000000
00000100
00000300
0C003180
0C3FF500
0C3FCC00
0C00C600
0C00C400
0C00C000
0C00FE00
1C3FFE00
183FC000
1800C000
1800C000
1800C000
1900C000
198FC000
1B3FF000
1B70FC00
1E60DE00
1E71C700
0C3FC200
0C0F0000
00000000
00000000
00000000
ENDCHAR

STARTCHAR Ca4dd
ENCODING 42205
SWIDTH 1000 0
DWIDTH 26 0
BBX 26 26 0 -4
BITMAP
00000000
00000F00
00001980
0C003080
0C3FF080
0C3FD980
0C00CF00
0C00C000
0C00C000
0C00FE00
1C3FFE00
183FC000
1800C000
1800C000
1800C000
1900C000
198FC000
1B3FF000
1B70FC00
1E60DE00
1E71C700
0C3FC200
0C0F0000
00000000
00000000
00000000
ENDCHAR

STARTCHAR Ca4de
ENCODING 42206
SWIDTH 1000 0
DWIDTH 26 0
BBX 26 26 0 -4
BITMAP
00000000
00000000
00060000
00060000
00060000
00060000
0007FC00
0FFFFC00
0FFE0000
00060000
00060000
0007F800
03FFF800
03FE0000
00060000
00060000
00060000
00FE0000
03FFC000
0707F000
06067C00
07061E00
03FE0400
00FC0000
00000000
00000000
ENDCHAR

STARTCHAR Ca4df
ENCODING 42207
SWIDTH 1000 0
DWIDTH 26 0
BBX 26 26 0 -4
BITMAP
00000000
00000000
00000000
00000000
01FC0000
01FE0000
000C0000
000C0000
001C0000
00180000
00183000
00383000
00303000
01FF3000
0FFFF000
1E61F800
38E07C00
30C06E00
31C0E700
3B80C200
1F01C000
0E038000
00070000
00020000
00000000
00000000
ENDCHAR

STARTCHAR Ca4e0
ENCODING 42208
SWIDTH 1000 0
DWIDTH 26 0
BBX 26 26 0 -4
BITMAP
00000000
00000000
00C00000
00C00000
00C00000
00C01000
00FE3800
1FFE1C00
1FC00E00
00C00600
00C00700
07C00200
0FC00000
1CC00000
18C03000
18C03000
0DC01800
0F801800
07801800
01801800
01803800
01FFF000
00FFE000
00000000
00000000
00000000
ENDCHAR

STARTCHAR Ca4e1
ENCODING 42209
SWIDTH 1000 0
DWIDTH 26 0
BBX 26 26 0 -4
BITMAP
00000000
00000000
00030000
00030000
02030000
06030000
061FC000
067EF000
06E63800
03861C00
07060C00
078E0E00
0D8C0600
0CCC0600
18D80600
18780600
18300600
18780E00
18FC0C00
0DC81C00
0F807800
0601F000
0001C000
00000000
00000000
00000000
ENDCHAR

STARTCHAR Ca4e2
ENCODING 42210
SWIDTH 1000 0
DWIDTH 26 0
BBX 26 26 0 -4
BITMAP
00000000
00000000
00300000
00300000
00300000
00300000
00300000
0FFF0000
0FFF0000
00600000
00600000
00600000
00600000
0FFF1800
0FFF1800
00C00C00
00C00C00
00C00C00
00E01C00
00601800
00703800
003FF000
000FC000
00000000
00000000
00000000
ENDCHAR

STARTCHAR Ca4e3
ENCODING 42211
SWIDTH 1000 0
DWIDTH 26 0
BBX 26 26 0 -4
BITMAP
00000000
00000000
00000000
00000000
00000000
00000000
00000000
000C0000
019F8000
01830000
00C0E000
00C7F800
007F1C00
01F80C00
0FE00C00
0E301C00
0033F800
0019E000
00180000
000C0000
000C0000
000C0000
00060000
00060000
00000000
00000000
ENDCHAR

STARTCHAR Ca4e4
ENCODING 42212
SWIDTH 1000 0
DWIDTH 26 0
BBX 26 26 0 -4
BITMAP
00000000
00000000
00180000
00BE0000
038F8000
01830000
01800000
01C1F800
00CFFE00
00FF0600
01F80300
07E00300
3F600300
1C700700
00301E00
0031FC00
0038E000
00180000
00180000
00180000
001C0000
000C0000
000C0000
00080000
00000000
00000000
ENDCHAR

STARTCHAR Ca4e5
ENCODING 42213
SWIDTH 1000 0
DWIDTH 26 0
BBX 26 26 0 -4
BITMAP
00000000
00000000
00000000
00000000
00000000
00000000
00000000
00018000
00018000
01818000
0187E000
019FF800
033D9800
03718C00
03618C00
03C18C00
03C18C00
03899800
039DB800
030FF000
0187C000
01830000
00070000
000E0000
00040000
00000000
ENDCHAR

STARTCHAR Ca4e6
ENCODING 42214
SWIDTH 1000 0
DWIDTH 26 0
BBX 26 26 0 -4
BITMAP
00000000
00000000
00018000
00018000
06018000
06018000
06018000
0E0FE000
0C3FF800
0C79BC00
0CE18C00
19C18E00
1B818600
1B018600
1E118600
1E398C00
1C1D9C00
180FF800
1C03E000
0C070000
08060000
000E0000
001C0000
00080000
00000000
00000000
ENDCHAR

STARTCHAR Ca4e7
ENCODING 42215
SWIDTH 1000 0
DWIDTH 26 0
BBX 26 26 0 -4
BITMAP
00000000
00000000
00000000
00000000
00000000
00000000
00000000
000C0000
000C0000
000C0000
000C3000
000FF000
000FC000
000C0000
000C0000
000C0000
000C0000
000C0000
01FF0000
07FFC000
060CF000
070C3800
03FC1000
00F80000
00000000
00000000
ENDCHAR

STARTCHAR Ca4e8
ENCODING 42216
SWIDTH 1000 0
DWIDTH 26 0
BBX 26 26 0 -4
BITMAP
00000000
00000000
000C0000
000C0000
000C0000
000C0000
000C0000
000C1800
000FF800
000FE000
000C0000
000C0000
000C0000
000C0000
000C0000
000C0000
01FF0000
07FFC000
0E0DF000
0C0C7800
0F0C1C00
07FC0800
01F80000
00000000
00000000
00000000
ENDCHAR

STARTCHAR Ca4e9
ENCODING 42217
SWIDTH 1000 0
DWIDTH 26 0
BBX 26 26 0 -4
BITMAP
00000000
00000000
00300000
007C0000
001E0000
00070000
01020000
01C00000
01800000
01800000
01800000
030FC000
033FF000
03787800
03E01800
03800C00
07000C00
06001C00
02001800
00003800
0000F000
001FE000
001F8000
00000000
00000000
00000000
ENDCHAR

STARTCHAR Ca4ea
ENCODING 42218
SWIDTH 1000 0
DWIDTH 26 0
BBX 26 26 0 -4
BITMAP
00000000
00000000
00000000
00006000
01806000
01806000
01806000
01806000
03006000
03006000
03206000
03306000
03706000
03606000
03C06000
01C0E000
0180C000
0000C000
0001C000
00018000
00038000
000F0000
003E0000
00180000
00000000
00000000
ENDCHAR

STARTCHAR Ca4eb
ENCODING 42219
SWIDTH 1000 0
DWIDTH 26 0
BBX 26 26 0 -4
BITMAP
00000000
00000000
00000000
00010000
001F8000
01FDC000
01E38000
00070000
000E0000
001C0000
00380000
0077C000
00FFF000
01F07800
03801800
07001C00
0E000C00
047C0C00
00FE1C00
00C31800
00C33800
007FF000
003FC000
00000000
00000000
00000000
ENDCHAR

STARTCHAR Ca4ec
ENCODING 42220
SWIDTH 1000 0
DWIDTH 26 0
BBX 26 26 0 -4
BITMAP
00000000
00000000
00C00000
00C00000
00C00000
00E00000
00F00000
03E1C000
1FC7E000
1CDE7000
00F83000
00F03000
01E03000
03C03000
03C07000
06C06000
0EC06000
0CC06000
18C06100
38C07380
10C03F00
00C03E00
00C01800
00C00000
00000000
00000000
ENDCHAR

STARTCHAR Ca4ed
ENCODING 42221
SWIDTH 1000 0
DWIDTH 26 0
BBX 26 26 0 -4
BITMAP
00000000
00000000
00000000
00008000
001FC000
01FFE000
01E1C000
00038000
00070000
000E0000
001C0000
003BE000
007FF800
01F83C00
03C00E00
07000600
0E000600
04000E00
00000C00
00003C00
0001F800
007FE000
007F0000
00000000
00000000
00000000
ENDCHAR

STARTCHAR Ca4ee
ENCODING 42222
SWIDTH 1000 0
DWIDTH 26 0
BBX 26 26 0 -4
BITMAP
00000000
00000000
00000000
00000000
00000000
00000000
00000000
00600000
00600000
00600000
00E00000
07E3E000
076FF800
007C1800
00700C00
00E00C00
01E00C00
01E00C00
03600C00
07601C00
0E607800
0463F000
0063C000
00600000
00000000
00000000
ENDCHAR

STARTCHAR Ca4ef
ENCODING 42223
SWIDTH 1000 0
DWIDTH 26 0
BBX 26 26 0 -4
BITMAP
00000000
00000000
00C00000
00C00000
00C00000
00C00000
00E00000
03F00000
1FE3F000
1CCFFC00
00DE1E00
00F80600
01E00700
03C00300
03C00300
07C00700
0EC00600
0CC00E00
1CC01C00
38C07C00
10C3F000
00C1C000
00C00000
00C00000
00000000
00000000
ENDCHAR

STARTCHAR Ca4f0
ENCODING 42224
SWIDTH 1000 0
DWIDTH 26 0
BBX 26 26 0 -4
BITMAP
00000000
00000000
00000000
00FE0000
00FF0000
00060000
00060000
00060000
000C0000
000FE000
007FF800
01FC3C00
03980C00
07180E00
0E300600
0C300600
1C600600
18670E00
18CFCC00
19D8DC00
1F9C7800
0E0FF000
0003C000
00000000
00000000
00000000
ENDCHAR

STARTCHAR Ca4f1
ENCODING 42225
SWIDTH 1000 0
DWIDTH 26 0
BBX 26 26 0 -4
BITMAP
00000000
00000000
00000000
001F8000
01FFC000
01E38000
00070000
000E0000
003FE000
00787000
01E01800
079C1800
03363800
0022F000
003FC000
00180000
00700000
00E0E000
01C3F800
07F71C00
0F3E0E00
1C1C0700
380C0300
10000200
00000000
00000000
ENDCHAR

STARTCHAR Ca4f2
ENCODING 42226
SWIDTH 1000 0
DWIDTH 26 0
BBX 26 26 0 -4
BITMAP
00000000
00000000
001C0000
00180000
00180000
0031C000
03FFC000
03FE0000
00600000
00E00000
00DC0400
01FF1C00
01E3FE00
0381F000
07078000
061F8000
023D8000
00718000
00E18000
00C00000
00F00000
007FF800
001FF800
00000000
00000000
00000000
ENDCHAR

STARTCHAR Ca4f3
ENCODING 42227
SWIDTH 1000 0
DWIDTH 26 0
BBX 26 26 0 -4
BITMAP
00000000
00000000
00080000
000C0000
001C0000
00180000
00380000
00300000
00700000
00600000
00E00000
00C00000
00DC0000
01FE0000
01E70000
03C30200
03830300
07030700
06030600
0E030E00
0C03BC00
1C01F800
0800E000
00000000
00000000
00000000
ENDCHAR

STARTCHAR Ca5a1
ENCODING 42401
SWIDTH 1000 0
DWIDTH 26 0
BBX 26 26 0 -4
BITMAP
00000000
00000000
00000000
00000000
00000000
00000000
00000000
00000000
00000000
07FFE000
07FFF000
00006000
0000E000
0019C000
001B8000
001F0000
001A0000
00380000
00300000
00700000
00600000
00E00000
01C00000
03800000
01000000
00000000
ENDCHAR

STARTCHAR Ca5a2
ENCODING 42402
SWIDTH 1000 0
DWIDTH 26 0
BBX 26 26 0 -4
BITMAP
00000000
00000000
00000000
00000000
00000000
1FFFFC00
1FFFFE00
00000C00
00001800
00183800
00187000
0018E000
0019C000
001B8000
00190000
00380000
00300000
00300000
00700000
00600000
00E00000
01C00000
03800000
01000000
00000000
00000000
ENDCHAR

STARTCHAR Ca5a3
ENCODING 42403
SWIDTH 1000 0
DWIDTH 26 0
BBX 26 26 0 -4
BITMAP
00000000
00000000
00000000
00000000
00000000
00000000
00000000
00004000
0000E000
0001C000
00038000
00070000
000E0000
001E0000
007E0000
01F60000
07C60000
03060000
00060000
00060000
00060000
00060000
00060000
00060000
00000000
00000000
ENDCHAR

STARTCHAR Ca5a4
ENCODING 42404
SWIDTH 1000 0
DWIDTH 26 0
BBX 26 26 0 -4
BITMAP
00000000
00000000
00001000
00003800
00007000
0000E000
0001C000
00038000
00070000
000E0000
003E0000
007E0000
01E60000
07C60000
1F060000
0C060000
00060000
00060000
00060000
00060000
00060000
00060000
00060000
00060000
00000000
00000000
ENDCHAR

STARTCHAR Ca5a5
ENCODING 42405
SWIDTH 1000 0
DWIDTH 26 0
BBX 26 26 0 -4
BITMAP
00000000
00000000
00000000
00000000
00000000
00000000
00000000
000C0000
000C0000
000C0000
03FFF000
03FFF000
03003000
03003000
03003000
03006000
03006000
0000E000
0000C000
0001C000
00038000
000F0000
003E0000
00180000
00000000
00000000
ENDCHAR

STARTCHAR Ca5a6
ENCODING 42406
SWIDTH 1000 0
DWIDTH 26 0
BBX 26 26 0 -4
BITMAP
00000000
00000000
000C0000
000C0000
000C0000
000C0000
000C0000
07FFF800
07FFF800
06001800
06001800
06001800
06001800
06003800
06003000
00007000
00006000
0000E000
0001C000
00038000
000F0000
003E0000
00180000
00000000
00000000
00000000
ENDCHAR

STARTCHAR Ca5a7
ENCODING 42407
SWIDTH 1000 0
DWIDTH 26 0
BBX 26 26 0 -4
BITMAP
00000000
00000000
00000000
00000000
00000000
00000000
00000000
00000000
00000000
00000000
01FFE000
01FFE000
000C0000
000C0000
000C0000
000C0000
000C0000
000C0000
000C0000
07FFF800
07FFF800
00000000
00000000
00000000
00000000
00000000
ENDCHAR

STARTCHAR Ca5a8
ENCODING 42408
SWIDTH 1000 0
DWIDTH 26 0
BBX 26 26 0 -4
BITMAP
00000000
00000000
00000000
00000000
00000000
00000000
00000000
07FFF800
07FFF800
000C0000
000C0000
000C0000
000C0000
000C0000
000C0000
000C0000
000C0000
000C0000
000C0000
3FFFFF00
3FFFFF00
00000000
00000000
00000000
00000000
00000000
ENDCHAR

STARTCHAR Ca5a9
ENCODING 42409
SWIDTH 1000 0
DWIDTH 26 0
BBX 26 26 0 -4
BITMAP
00000000
00000000
00000000
00000000
00000000
00000000
00000000
00030000
00030000
00030000
00030000
07FFF800
07FFF800
000F0000
001F0000
001B0000
003B0000
00730000
00E30000
01C30000
07830000
03030000
001F0000
000E0000
00000000
00000000
ENDCHAR

STARTCHAR Ca5aa
ENCODING 42410
SWIDTH 1000 0
DWIDTH 26 0
BBX 26 26 0 -4
BITMAP
00000000
00000000
00018000
00018000
00018000
00018000
00018000
00018000
0FFFFE00
0FFFFE00
00078000
000F8000
001D8000
00198000
00398000
00718000
00E18000
03C18000
0F818000
3E018000
18018000
001F8000
000F0000
00000000
00000000
00000000
ENDCHAR

STARTCHAR Ca5ab
ENCODING 42411
SWIDTH 1000 0
DWIDTH 26 0
BBX 26 26 0 -4
BITMAP
00000000
00000000
00000000
000C0000
000C0000
000C0000
000C0000
000C0000
0FFFF800
0FFFF800
00181800
00181800
00181800
00381800
00301800
00701800
00601800
00E01800
01C23800
03833000
0703F000
1E01E000
0C000000
00000000
00000000
00000000
ENDCHAR

STARTCHAR Ca5ac
ENCODING 42412
SWIDTH 1000 0
DWIDTH 26 0
BBX 26 26 0 -4
BITMAP
00000000
00000200
00000700
000C1380
000C3900
000C1C00
000C0800
000C0000
0FFFF800
0FFFF800
00181800
00181800
00181800
00381800
00301800
00701800
00601800
00E01800
01C23800
03833000
0703F000
1E01E000
0C000000
00000000
00000000
00000000
ENDCHAR

STARTCHAR Ca5ad
ENCODING 42413
SWIDTH 1000 0
DWIDTH 26 0
BBX 26 26 0 -4
BITMAP
00000000
00000000
00000000
00300000
00300000
00380000
00180000
0018F800
007FF800
0FFF0000
0F8C0000
000C0000
00060000
00067E00
003FFE00
0FFF8000
0FC30000
00030000
00030000
00018000
00018000
00018000
00018000
00000000
00000000
00000000
ENDCHAR

STARTCHAR Ca5ae
ENCODING 42414
SWIDTH 1000 0
DWIDTH 26 0
BBX 26 26 0 -4
BITMAP
00000000
00000200
00000700
00301380
00303900
00381C00
00180800
0018F000
007FF000
0FFF0000
0F8C0000
000C0000
00060000
00067E00
003FFE00
0FFF8000
0FC30000
00030000
00030000
00018000
00018000
00018000
00018000
00000000
00000000
00000000
ENDCHAR

STARTCHAR Ca5af
ENCODING 42415
SWIDTH 1000 0
DWIDTH 26 0
BBX 26 26 0 -4
BITMAP
00000000
00000000
00000000
000C0000
000C0000
00180000
001FF000
003FF800
00703800
00603000
00E07000
01C06000
0380E000
0F00C000
0601C000
00038000
00030000
00070000
000E0000
001C0000
00380000
00F00000
03E00000
01800000
00000000
00000000
ENDCHAR

STARTCHAR Ca5b0
ENCODING 42416
SWIDTH 1000 0
DWIDTH 26 0
BBX 26 26 0 -4
BITMAP
00000000
00000200
00002700
000C7380
000C3900
00181000
001FF000
003FF800
00703800
00603000
00E07000
01C06000
0380E000
0F00C000
0601C000
00038000
00030000
00070000
000E0000
001C0000
00380000
00F00000
03E00000
01800000
00000000
00000000
ENDCHAR

STARTCHAR Ca5b1
ENCODING 42417
SWIDTH 1000 0
DWIDTH 26 0
BBX 26 26 0 -4
BITMAP
00000000
00000000
00600000
00600000
00600000
00600000
00C00000
00C00000
01FFFE00
01FFFE00
03830000
07030000
0E030000
1C030000
08030000
00070000
00060000
000E0000
000C0000
001C0000
00380000
00700000
00E00000
00400000
00000000
00000000
ENDCHAR

STARTCHAR Ca5b2
ENCODING 42418
SWIDTH 1000 0
DWIDTH 26 0
BBX 26 26 0 -4
BITMAP
00000000
00000200
00602700
00607380
00603900
00601000
00C00000
00C00000
01FFFE00
01FFFE00
03830000
07030000
0E030000
1C030000
08030000
00070000
00060000
000E0000
000C0000
001C0000
00380000
00700000
00E00000
00400000
00000000
00000000
ENDCHAR

STARTCHAR Ca5b3
ENCODING 42419
SWIDTH 1000 0
DWIDTH 26 0
BBX 26 26 0 -4
BITMAP
00000000
00000000
00000000
00000000
00000000
00000000
00000000
07FFF800
07FFF800
00001800
00001800
00001800
00001800
00001800
00001800
00001800
00001800
00001800
00001800
07FFF800
07FFF800
00001800
00000000
00000000
00000000
00000000
ENDCHAR

STARTCHAR Ca5b4
ENCODING 42420
SWIDTH 1000 0
DWIDTH 26 0
BBX 26 26 0 -4
BITMAP
00000000
00000200
00000700
00001380
00003900
00001C00
00000800
0FFFF000
0FFFF000
00003000
00003000
00003000
00003000
00003000
00003000
00003000
00003000
00003000
00003000
0FFFF000
0FFFF000
00003000
00000000
00000000
00000000
00000000
ENDCHAR

STARTCHAR Ca5b5
ENCODING 42421
SWIDTH 1000 0
DWIDTH 26 0
BBX 26 26 0 -4
BITMAP
00000000
00000000
00000000
0000C000
00C0C000
00C0C000
00C0C000
00C0C000
00C0C000
3FFFFF00
3FFFFF00
00C0C000
00C0C000
00C0C000
00C0C000
00C1C000
00C18000
00038000
00030000
00070000
000E0000
003C0000
00180000
00000000
00000000
00000000
ENDCHAR

STARTCHAR Ca5b6
ENCODING 42422
SWIDTH 1000 0
DWIDTH 26 0
BBX 26 26 0 -4
BITMAP
00000000
00000200
00000700
0000D380
00C0F900
00C0DC00
00C0C800
00C0C000
00C0C000
3FFFFF00
3FFFFF00
00C0C000
00C0C000
00C0C000
00C0C000
00C1C000
00C18000
00038000
00030000
00070000
000E0000
003C0000
00180000
00000000
00000000
00000000
ENDCHAR

STARTCHAR Ca5b7
ENCODING 42423
SWIDTH 1000 0
DWIDTH 26 0
BBX 26 26 0 -4
BITMAP
00000000
00000000
00000000
00000000
00800000
01E00000
00F00000
00380000
00100400
04000600
0F000E00
07800C00
01C01C00
00801800
00003800
00007000
0000E000
0001C000
00078000
001F0000
007C0000
03F00000
03C00000
00000000
00000000
00000000
ENDCHAR

STARTCHAR Ca5b8
ENCODING 42424
SWIDTH 1000 0
DWIDTH 26 0
BBX 26 26 0 -4
BITMAP
00000000
00000400
00000E00
00002700
00807200
01E03800
00F01000
00380000
00100400
04000600
0F000E00
07800C00
01C01C00
00801800
00003800
00007000
0000E000
0001C000
00078000
001F0000
007C0000
03F00000
03C00000
00000000
00000000
00000000
ENDCHAR

STARTCHAR Ca5b9
ENCODING 42425
SWIDTH 1000 0
DWIDTH 26 0
BBX 26 26 0 -4
BITMAP
00000000
00000000
00000000
00000000
00000000
07FFE000
07FFE000
0000E000
0000C000
0001C000
00018000
00038000
00070000
00060000
000E0000
001F0000
003BC000
0071E000
00E07000
03C03800
07801C00
1E000E00
0C000400
00000000
00000000
00000000
ENDCHAR

STARTCHAR Ca5ba
ENCODING 42426
SWIDTH 1000 0
DWIDTH 26 0
BBX 26 26 0 -4
BITMAP
00000000
00000200
00000700
00001380
00003900
07FFDC00
07FFE800
0000E000
0000C000
0001C000
00018000
00038000
00070000
00060000
000E0000
001F0000
003BC000
0071E000
00E07000
03C03800
07801C00
1E000E00
0C000400
00000000
00000000
00000000
ENDCHAR

STARTCHAR Ca5bb
ENCODING 42427
SWIDTH 1000 0
DWIDTH 26 0
BBX 26 26 0 -4
BITMAP
00000000
00000000
00000000
00600000
00600000
00600000
00600000
00600800
007FFC00
1FFFFE00
1FE01C00
00603800
00603000
00607000
0060E000
0061C000
00608000
00600000
00600000
00700000
003FFC00
001FFC00
00000000
00000000
00000000
00000000
ENDCHAR

STARTCHAR Ca5bc
ENCODING 42428
SWIDTH 1000 0
DWIDTH 26 0
BBX 26 26 0 -4
BITMAP
00000000
00000200
00002700
00607380
00603900
00601000
00600000
00600800
007FFC00
1FFFFE00
1FE01C00
00603800
00603000
00607000
0060E000
0061C000
00608000
00600000
00600000
00700000
003FFC00
001FFC00
00000000
00000000
00000000
00000000
ENDCHAR

STARTCHAR Ca5bd
ENCODING 42429
SWIDTH 1000 0
DWIDTH 26 0
BBX 26 26 0 -4
BITMAP
00000000
00000000
00000000
00000000
00000800
04000C00
0E000C00
07001C00
03801800
01801800
01C03800
00803000
00007000
00006000
0000E000
0001C000
00018000
00038000
00070000
000E0000
003C0000
00F80000
00600000
00000000
00000000
00000000
ENDCHAR

STARTCHAR Ca5be
ENCODING 42430
SWIDTH 1000 0
DWIDTH 26 0
BBX 26 26 0 -4
BITMAP
00000000
00000200
00000700
00001380
00003900
04001C00
0E000800
07001000
03801C00
01801800
01C03800
00803000
00007000
00006000
0000E000
0001C000
00018000
00038000
00070000
000E0000
003C0000
00F80000
00600000
00000000
00000000
00000000
ENDCHAR

STARTCHAR Ca5bf
ENCODING 42431
SWIDTH 1000 0
DWIDTH 26 0
BBX 26 26 0 -4
BITMAP
00000000
00000000
00000000
000C0000
000C0000
00180000
001FF000
003FF800
00303000
00607000
00E06000
01C0E000
03F0C000
073DC000
0E0F8000
04038000
00070000
000E0000
001C0000
00380000
00700000
01E00000
03C00000
01000000
00000000
00000000
ENDCHAR

STARTCHAR Ca5c0
ENCODING 42432
SWIDTH 1000 0
DWIDTH 26 0
BBX 26 26 0 -4
BITMAP
00000000
00000200
00000700
000C0380
000C0900
00181C00
001FEE00
003FF400
00303000
00607000
00E06000
01C0E000
03F0C000
073DC000
0E0F8000
04038000
00070000
000E0000
001C0000
00380000
00700000
01E00000
03C00000
01000000
00000000
00000000
ENDCHAR

STARTCHAR Ca5c1
ENCODING 42433
SWIDTH 1000 0
DWIDTH 26 0
BBX 26 26 0 -4
BITMAP
00000000
00000000
00000000
00006000
0007F000
07FFC000
03FE0000
00060000
00060000
00060000
00060000
3FFFFF00
3FFFFF00
00060000
00060000
00060000
000E0000
000C0000
001C0000
00180000
00380000
00700000
01E00000
00C00000
00000000
00000000
ENDCHAR

STARTCHAR Ca5c2
ENCODING 42434
SWIDTH 1000 0
DWIDTH 26 0
BBX 26 26 0 -4
BITMAP
00000000
00000200
00000700
0000C380
0007E900
07FF9C00
03FE0E00
00060400
00060000
00060000
00060000
3FFFFF00
3FFFFF00
00060000
00060000
00060000
000E0000
000C0000
001C0000
00180000
00380000
00700000
01E00000
00C00000
00000000
00000000
ENDCHAR

STARTCHAR Ca5c3
ENCODING 42435
SWIDTH 1000 0
DWIDTH 26 0
BBX 26 26 0 -4
BITMAP
00000000
00000000
00000000
00000000
00000000
00000000
00000000
00000000
00102000
00383000
02183000
071C3000
030C3000
03887000
01806000
0100E000
0000C000
0001C000
00038000
00070000
001E0000
00FC0000
00700000
00000000
00000000
00000000
ENDCHAR

STARTCHAR Ca5c4
ENCODING 42436
SWIDTH 1000 0
DWIDTH 26 0
BBX 26 26 0 -4
BITMAP
00000000
00000000
00000000
00000000
00000000
00200800
00700C00
08380C00
1C181C00
0E1C1800
07081800
03003800
02003000
00007000
00006000
0000E000
0001C000
00038000
00070000
000E0000
003C0000
00F80000
00600000
00000000
00000000
00000000
ENDCHAR

STARTCHAR Ca5c5
ENCODING 42437
SWIDTH 1000 0
DWIDTH 26 0
BBX 26 26 0 -4
BITMAP
00000000
00000200
00000700
00000380
00000900
00201C00
00700E00
08380400
1C181000
0E1C1800
07081800
03003800
02003000
00007000
00006000
0000E000
0001C000
00038000
00070000
000E0000
003C0000
00F80000
00600000
00000000
00000000
00000000
ENDCHAR

STARTCHAR Ca5c6
ENCODING 42438
SWIDTH 1000 0
DWIDTH 26 0
BBX 26 26 0 -4
BITMAP
00000000
00000000
00000000
00000000
03FFE000
03FFE000
00000000
00000000
00000000
00000000
1FFFFE00
1FFFFE00
000C0000
000C0000
000C0000
000C0000
000C0000
001C0000
00180000
00380000
00700000
00E00000
03C00000
01800000
00000000
00000000
ENDCHAR

STARTCHAR Ca5c7
ENCODING 42439
SWIDTH 1000 0
DWIDTH 26 0
BBX 26 26 0 -4
BITMAP
00000000
00000200
00000700
00001380
03FFF900
03FFDC00
00000800
00000000
00000000
00000000
1FFFFE00
1FFFFE00
000C0000
000C0000
000C0000
000C0000
000C0000
001C0000
00180000
00380000
00700000
00E00000
03C00000
01800000
00000000
00000000
ENDCHAR

STARTCHAR Ca5c8
ENCODING 42440
SWIDTH 1000 0
DWIDTH 26 0
BBX 26 26 0 -4
BITMAP
00000000
00000000
00000000
00600000
00600000
00600000
00600000
00600000
00600000
00600000
00700000
007C0000
007F0000
0067C000
0061E000
00607000
00602000
00600000
00600000
00600000
00600000
00600000
00600000
00600000
00000000
00000000
ENDCHAR

STARTCHAR Ca5c9
ENCODING 42441
SWIDTH 1000 0
DWIDTH 26 0
BBX 26 26 0 -4
BITMAP
00000000
00000000
00000800
00601C00
00608E00
0061C400
0060E000
00604000
00600000
00600000
00700000
007C0000
007F0000
0067C000
0061E000
00607000
00602000
00600000
00600000
00600000
00600000
00600000
00600000
00600000
00000000
00000000
ENDCHAR

STARTCHAR Ca5ca
ENCODING 42442
SWIDTH 1000 0
DWIDTH 26 0
BBX 26 26 0 -4
BITMAP
00000000
00000000
00060000
00060000
00060000
00060000
00060000
00060000
1FFFFF00
1FFFFF00
00060000
00060000
00060000
00060000
000E0000
000C0000
001C0000
00180000
00380000
00700000
00E00000
03C00000
01800000
00000000
00000000
00000000
ENDCHAR

STARTCHAR Ca5cb
ENCODING 42443
SWIDTH 1000 0
DWIDTH 26 0
BBX 26 26 0 -4
BITMAP
00000000
00000000
00000000
00000000
00000000
00000000
00000000
03FFF000
03FFF000
00000000
00000000
00000000
00000000
00000000
00000000
00000000
00000000
00000000
1FFFFE00
1FFFFE00
00000000
00000000
00000000
00000000
00000000
00000000
ENDCHAR

STARTCHAR Ca5cc
ENCODING 42444
SWIDTH 1000 0
DWIDTH 26 0
BBX 26 26 0 -4
BITMAP
00000000
00000000
00000000
00000000
00000000
03FFF000
03FFF000
00003000
00003000
00007000
00606000
00F8E000
003CC000
000FC000
00078000
0003C000
0007E000
000E7000
001C3800
00781000
01F00000
03C00000
01000000
00000000
00000000
00000000
ENDCHAR

STARTCHAR Ca5cd
ENCODING 42445
SWIDTH 1000 0
DWIDTH 26 0
BBX 26 26 0 -4
BITMAP
00000000
00000000
00000000
000C0000
000C0000
000C0000
000C0000
07FFC000
07FFE000
0001C000
00038000
00070000
000E0000
001C4000
003CF000
007C7800
01EC1C00
07CC0E00
1F0C0400
0C0C0000
000C0000
000C0000
000C0000
000C0000
00000000
00000000
ENDCHAR

STARTCHAR Ca5ce
ENCODING 42446
SWIDTH 1000 0
DWIDTH 26 0
BBX 26 26 0 -4
BITMAP
00000000
00000000
00000000
00000000
00002000
00003000
00007000
00006000
00006000
0000E000
0000C000
0001C000
00018000
00038000
00070000
000E0000
001C0000
00380000
00F00000
03E00000
0F800000
06000000
00000000
00000000
00000000
00000000
ENDCHAR

STARTCHAR Ca5cf
ENCODING 42447
SWIDTH 1000 0
DWIDTH 26 0
BBX 26 26 0 -4
BITMAP
00000000
00000000
00000000
00000000
00000000
00000000
00000000
00804000
00C0E000
00C07000
01C03000
01803800
03801800
03001C00
07000C00
0E000E00
0C000600
1C000700
38000400
10000000
00000000
00000000
00000000
00000000
00000000
00000000
ENDCHAR

STARTCHAR Ca5d0
ENCODING 42448
SWIDTH 1000 0
DWIDTH 26 0
BBX 26 26 0 -4
BITMAP
00000000
00000200
00000700
00002380
00007100
00003800
00001000
00804000
00C0E000
00C07000
01C03000
01803800
03801800
03001C00
07000C00
0E000E00
0C000600
1C000700
38000400
10000000
00000000
00000000
00000000
00000000
00000000
00000000
ENDCHAR

STARTCHAR Ca5d1
ENCODING 42449
SWIDTH 1000 0
DWIDTH 26 0
BBX 26 26 0 -4
BITMAP
00000000
00000F00
00001980
00001080
00001080
00001980
00000F00
00804000
00C0E000
00C07000
01C03000
01803800
03801800
03001C00
07000C00
0E000E00
0C000600
1C000700
38000400
10000000
00000000
00000000
00000000
00000000
00000000
00000000
ENDCHAR

STARTCHAR Ca5d2
ENCODING 42450
SWIDTH 1000 0
DWIDTH 26 0
BBX 26 26 0 -4
BITMAP
00000000
00000000
00000000
00000000
03000000
03000000
03000000
03006000
0301F000
0307C000
033F0000
03FC0000
03E00000
03000000
03000000
03000000
03000000
03000000
03000000
03800000
01FFF800
00FFF800
00000000
00000000
00000000
00000000
ENDCHAR

STARTCHAR Ca5d3
ENCODING 42451
SWIDTH 1000 0
DWIDTH 26 0
BBX 26 26 0 -4
BITMAP
00000000
00000200
00000700
00001380
03003900
03001C00
03000800
03006000
0301F000
0307C000
033F0000
03FC0000
03E00000
03000000
03000000
03000000
03000000
03000000
03000000
03800000
01FFF800
00FFF800
00000000
00000000
00000000
00000000
ENDCHAR

STARTCHAR Ca5d4
ENCODING 42452
SWIDTH 1000 0
DWIDTH 26 0
BBX 26 26 0 -4
BITMAP
00000000
00000F00
00001980
00001080
03001080
03001980
03000F00
03006000
0301F000
0307C000
033F0000
03FC0000
03E00000
03000000
03000000
03000000
03000000
03000000
03000000
03800000
01FFF800
00FFF800
00000000
00000000
00000000
00000000
ENDCHAR

STARTCHAR Ca5d5
ENCODING 42453
SWIDTH 1000 0
DWIDTH 26 0
BBX 26 26 0 -4
BITMAP
00000000
00000000
00000000
00000000
00000000
0FFFF000
0FFFF800
00001800
00003800
00003000
00007000
00006000
0000E000
0001C000
00018000
00038000
00070000
000E0000
001C0000
00780000
01F00000
00C00000
00000000
00000000
00000000
00000000
ENDCHAR

STARTCHAR Ca5d6
ENCODING 42454
SWIDTH 1000 0
DWIDTH 26 0
BBX 26 26 0 -4
BITMAP
00000000
00001100
00003300
00001980
00001980
1FFFF100
1FFFF000
00003000
00007000
00006000
0000E000
0000C000
0001C000
00038000
00030000
00070000
000E0000
001C0000
00380000
00F00000
03E00000
01800000
00000000
00000000
00000000
00000000
ENDCHAR

STARTCHAR Ca5d7
ENCODING 42455
SWIDTH 1000 0
DWIDTH 26 0
BBX 26 26 0 -4
BITMAP
00000000
00000F00
00001980
00001080
00001080
0FFFF980
0FFFFF00
00001800
00003800
00003000
00007000
00006000
0000E000
0001C000
00018000
00038000
00070000
000E0000
001C0000
00780000
01F00000
00C00000
00000000
00000000
00000000
00000000
ENDCHAR

STARTCHAR Ca5d8
ENCODING 42456
SWIDTH 1000 0
DWIDTH 26 0
BBX 26 26 0 -4
BITMAP
00000000
00000000
00000000
00000000
00000000
00000000
00000000
00380000
007C0000
00EE0000
01C70000
03838000
0701C000
1E00E000
3C007000
18003C00
00001E00
00000F00
00000600
00000000
00000000
00000000
00000000
00000000
00000000
00000000
ENDCHAR

STARTCHAR Ca5d9
ENCODING 42457
SWIDTH 1000 0
DWIDTH 26 0
BBX 26 26 0 -4
BITMAP
00000000
00000000
00000000
00000000
00000800
00001C00
00008E00
0039C400
007CE000
00EE4000
01C70000
03838000
0701C000
1E00E000
3C007000
18003C00
00001E00
00000F00
00000600
00000000
00000000
00000000
00000000
00000000
00000000
00000000
ENDCHAR

STARTCHAR Ca5da
ENCODING 42458
SWIDTH 1000 0
DWIDTH 26 0
BBX 26 26 0 -4
BITMAP
00000000
00000000
00000000
00007800
0000CC00
00008400
00008400
0038CC00
007C7800
00EE0000
01C70000
03838000
0701C000
1E00E000
3C007000
18003C00
00001E00
00000F00
00000600
00000000
00000000
00000000
00000000
00000000
00000000
00000000
ENDCHAR

STARTCHAR Ca5db
ENCODING 42459
SWIDTH 1000 0
DWIDTH 26 0
BBX 26 26 0 -4
BITMAP
00000000
00000000
00000000
000C0000
000C0000
000C0000
000C0000
000C0000
1FFFFE00
1FFFFE00
000C0000
000C0000
020C2000
038C7000
030C3800
070C1800
060C1C00
0E0C0C00
1C0C0E00
1C0C0400
080C0000
000C0000
000C0000
00000000
00000000
00000000
ENDCHAR

STARTCHAR Ca5dc
ENCODING 42460
SWIDTH 1000 0
DWIDTH 26 0
BBX 26 26 0 -4
BITMAP
00000000
00000200
00000700
000C1380
000C3900
000C1C00
000C0800
000C0000
1FFFFE00
1FFFFE00
000C0000
000C0000
020C2000
038C7000
030C3800
070C1800
060C1C00
0E0C0C00
1C0C0E00
1C0C0400
080C0000
000C0000
000C0000
00000000
00000000
00000000
ENDCHAR

STARTCHAR Ca5dd
ENCODING 42461
SWIDTH 1000 0
DWIDTH 26 0
BBX 26 26 0 -4
BITMAP
00000000
00003C00
00006600
000C4200
000C4200
000C6600
000C3C00
000C0000
1FFFFE00
1FFFFE00
000C0000
000C0000
020C2000
038C7000
030C3800
070C1800
060C1C00
0E0C0C00
1C0C0E00
1C0C0400
080C0000
000C0000
000C0000
00000000
00000000
00000000
ENDCHAR

STARTCHAR Ca5de
ENCODING 42462
SWIDTH 1000 0
DWIDTH 26 0
BBX 26 26 0 -4
BITMAP
00000000
00000000
00000000
00000000
00000000
00000000
00000800
1FFFFC00
1FFFFE00
00001C00
00003800
00007000
0001E000
0083C000
01EF0000
00FE0000
00380000
001C0000
000E0000
00070000
00038000
00030000
00000000
00000000
00000000
00000000
ENDCHAR

STARTCHAR Ca5df
ENCODING 42463
SWIDTH 1000 0
DWIDTH 26 0
BBX 26 26 0 -4
BITMAP
00000000
00000000
00000000
00000000
00F80000
01FF0000
000FC000
0001F000
00006000
00000000
00F00000
01FE0000
001F8000
0003E000
0000C000
00000000
00000000
03E00000
07FC0000
003F0000
0007C000
0001F000
00006000
00000000
00000000
00000000
ENDCHAR

STARTCHAR Ca5e0
ENCODING 42464
SWIDTH 1000 0
DWIDTH 26 0
BBX 26 26 0 -4
BITMAP
00000000
00000000
00000000
00000000
000C0000
000C0000
001C0000
00180000
00180000
00380000
00300000
00300000
00708000
0061C000
00E0E000
00C07000
01C03800
01801800
038FFC00
1FFFFC00
1FF00E00
00000600
00000400
00000000
00000000
00000000
ENDCHAR

STARTCHAR Ca5e1
ENCODING 42465
SWIDTH 1000 0
DWIDTH 26 0
BBX 26 26 0 -4
BITMAP
00000000
00000000
00000000
00000000
00006000
00006000
00006000
0000E000
0080C000
01E0C000
00F1C000
003D8000
001F8000
00070000
000F8000
000DC000
001CE000
00387000
00703800
00E01000
03C00000
0F800000
06000000
00000000
00000000
00000000
ENDCHAR

STARTCHAR Ca5e2
ENCODING 42466
SWIDTH 1000 0
DWIDTH 26 0
BBX 26 26 0 -4
BITMAP
00000000
00000000
00000000
00000000
00000000
07FFF800
07FFF800
00180000
00180000
00180000
00180000
1FFFFE00
1FFFFE00
00180000
00180000
00180000
00180000
00180000
00180000
001C0000
000FFC00
0007FC00
00000000
00000000
00000000
00000000
ENDCHAR

STARTCHAR Ca5e3
ENCODING 42467
SWIDTH 1000 0
DWIDTH 26 0
BBX 26 26 0 -4
BITMAP
00000000
00000000
00000000
00000000
00000000
00000000
00000000
00000000
00600000
00600000
00600000
0033F000
00FFF800
0FFC3800
0F307000
0030E000
0019C000
00188000
00180000
00180000
000C0000
000C0000
000C0000
000C0000
00000000
00000000
ENDCHAR

STARTCHAR Ca5e4
ENCODING 42468
SWIDTH 1000 0
DWIDTH 26 0
BBX 26 26 0 -4
BITMAP
00000000
00000000
00000000
00C00000
00C00000
00C00000
00600000
00607C00
006FFE00
00FF8E00
3FF81C00
1F301800
00303800
00307000
0018E000
00184000
00180000
00180000
000C0000
000C0000
000C0000
000C0000
000C0000
00080000
00000000
00000000
ENDCHAR

STARTCHAR Ca5e5
ENCODING 42469
SWIDTH 1000 0
DWIDTH 26 0
BBX 26 26 0 -4
BITMAP
00000000
00000000
00000000
00000000
00000000
00000000
00000000
00000000
00000000
00000000
00FF8000
00FF8000
00018000
00018000
00018000
00018000
00018000
00018000
00018000
07FFFC00
07FFFC00
00000000
00000000
00000000
00000000
00000000
ENDCHAR

STARTCHAR Ca5e6
ENCODING 42470
SWIDTH 1000 0
DWIDTH 26 0
BBX 26 26 0 -4
BITMAP
00000000
00000000
00000000
00000000
00000000
00000000
03FFC000
03FFC000
0000C000
0000C000
0000C000
0000C000
0000C000
0000C000
0000C000
0000C000
0000C000
0000C000
1FFFFF00
1FFFFF00
00000000
00000000
00000000
00000000
00000000
00000000
ENDCHAR

STARTCHAR Ca5e7
ENCODING 42471
SWIDTH 1000 0
DWIDTH 26 0
BBX 26 26 0 -4
BITMAP
00000000
00000000
00000000
00000000
00000000
00000000
00000000
00000000
01FFE000
01FFE000
00006000
00006000
00006000
00006000
00FFE000
00FFE000
00006000
00006000
00006000
00006000
01FFE000
01FFE000
00006000
00000000
00000000
00000000
ENDCHAR

STARTCHAR Ca5e8
ENCODING 42472
SWIDTH 1000 0
DWIDTH 26 0
BBX 26 26 0 -4
BITMAP
00000000
00000000
00000000
00000000
00000000
03FFF000
03FFF000
00003000
00003000
00003000
00003000
00003000
01FFF000
01FFF000
00003000
00003000
00003000
00003000
00003000
03FFF000
03FFF000
00003000
00000000
00000000
00000000
00000000
ENDCHAR

STARTCHAR Ca5e9
ENCODING 42473
SWIDTH 1000 0
DWIDTH 26 0
BBX 26 26 0 -4
BITMAP
00000000
00000000
00000000
00000000
03FFE000
03FFE000
00000000
00000000
00000000
00000000
0FFFF000
0FFFF800
00001800
00003800
00003000
00007000
00006000
0000E000
0001C000
00038000
000F0000
003E0000
00F80000
00600000
00000000
00000000
ENDCHAR

STARTCHAR Ca5ea
ENCODING 42474
SWIDTH 1000 0
DWIDTH 26 0
BBX 26 26 0 -4
BITMAP
00000000
00000000
00000000
00006000
01806000
01806000
01806000
01806000
01806000
01806000
01806000
01806000
01806000
01806000
01806000
01806000
0000E000
0000C000
0001C000
00018000
00038000
000F0000
003E0000
00180000
00000000
00000000
ENDCHAR

STARTCHAR Ca5eb
ENCODING 42475
SWIDTH 1000 0
DWIDTH 26 0
BBX 26 26 0 -4
BITMAP
00000000
00000000
00000000
00000000
00060000
00060000
01860000
01860000
01860000
01860000
01860000
01860200
01860300
01860700
03860E00
03061C00
07063800
0606F000
0E07E000
1C07C000
38070000
10020000
00000000
00000000
00000000
00000000
ENDCHAR

STARTCHAR Ca5ec
ENCODING 42476
SWIDTH 1000 0
DWIDTH 26 0
BBX 26 26 0 -4
BITMAP
00000000
00000000
00000000
00000000
03000000
03000000
03000000
03000000
03000000
03000000
03000800
03001C00
03003800
03007000
0300E000
0301C000
03078000
030F0000
033C0000
03F80000
03E00000
01800000
00000000
00000000
00000000
00000000
ENDCHAR

STARTCHAR Ca5ed
ENCODING 42477
SWIDTH 1000 0
DWIDTH 26 0
BBX 26 26 0 -4
BITMAP
00000000
00000000
00000000
00000000
00000000
07FFF800
07FFF800
06001800
06001800
06001800
06001800
06001800
06001800
06001800
06001800
06001800
06001800
06001800
07FFF800
07FFF800
06001800
06001800
00000000
00000000
00000000
00000000
ENDCHAR

STARTCHAR Ca5ee
ENCODING 42478
SWIDTH 1000 0
DWIDTH 26 0
BBX 26 26 0 -4
BITMAP
00000000
00000000
00000000
00000000
00000000
00000000
00000000
00000000
00000000
03FFE000
03FFE000
03006000
03006000
03006000
03006000
03006000
0000E000
0000C000
0001C000
00018000
00038000
000F0000
003E0000
00180000
00000000
00000000
ENDCHAR

STARTCHAR Ca5ef
ENCODING 42479
SWIDTH 1000 0
DWIDTH 26 0
BBX 26 26 0 -4
BITMAP
00000000
00000000
00000000
00000000
00000000
07FFF000
07FFF800
06001800
06001800
06001800
06001800
06003800
06003000
06007000
00006000
0000E000
0000C000
0001C000
00038000
00070000
001E0000
007C0000
00300000
00000000
00000000
00000000
ENDCHAR

STARTCHAR Ca5f0
ENCODING 42480
SWIDTH 1000 0
DWIDTH 26 0
BBX 26 26 0 -4
BITMAP
00000000
00000000
00018000
00018000
00018000
00018000
00018000
07FFFC00
07FFFC00
00C18000
00C18000
00C18000
00C18000
00C18000
00C18000
00C18000
1FFFFF00
1FFFFF00
00018000
00018000
00018000
00018000
00018000
00018000
00000000
00000000
ENDCHAR

STARTCHAR Ca5f1
ENCODING 42481
SWIDTH 1000 0
DWIDTH 26 0
BBX 26 26 0 -4
BITMAP
00000000
00000000
00000000
00000000
00000000
0FFFF800
0FFFFC00
00001C00
00003800
00003000
000C7000
000CE000
000DC000
000C8000
000C0000
000C0000
000C0000
000C0000
000C0000
3FFFFF00
3FFFFF00
00000000
00000000
00000000
00000000
00000000
ENDCHAR

STARTCHAR Ca5f2
ENCODING 42482
SWIDTH 1000 0
DWIDTH 26 0
BBX 26 26 0 -4
BITMAP
00000000
00000000
00000000
00000000
00000000
07FFF800
07FFF800
00001800
00001800
00001800
00001800
03FFF800
03FFF000
00003000
00007000
00006000
0000E000
0001C000
00038000
000F0000
003E0000
01F80000
00E00000
00000000
00000000
00000000
ENDCHAR

STARTCHAR Ca5f3
ENCODING 42483
SWIDTH 1000 0
DWIDTH 26 0
BBX 26 26 0 -4
BITMAP
00000000
00000000
00000000
00000000
00000000
06000000
0F800000
03C00400
01E00600
00C00E00
00000C00
00001C00
00003800
00007000
0000E000
0001C000
00078000
000F0000
003C0000
01F80000
0FE00000
07000000
00000000
00000000
00000000
00000000
ENDCHAR

STARTCHAR Ca5f4
ENCODING 42484
SWIDTH 1000 0
DWIDTH 26 0
BBX 26 26 0 -4
BITMAP
00000000
00000200
000C0700
000C1380
000C3900
000C1C00
000C0800
07FFF800
07FFF800
06001800
06001800
06001800
06001800
06003800
06003000
00007000
00006000
0000E000
0001C000
00038000
000F0000
003E0000
00180000
00000000
00000000
00000000
ENDCHAR

STARTCHAR Ca5f5
ENCODING 42485
SWIDTH 1000 0
DWIDTH 26 0
BBX 26 26 0 -4
BITMAP
00000000
00000000
00000000
00000000
00000000
00000000
00000000
00180000
00180000
00180000
00180000
03FFE000
03FFE000
00186000
00186000
00386000
00306000
00706000
00606000
00E0E000
01C4C000
0387C000
01038000
00000000
00000000
00000000
ENDCHAR

STARTCHAR Ca5f6
ENCODING 42486
SWIDTH 1000 0
DWIDTH 26 0
BBX 26 26 0 -4
BITMAP
00000000
00000000
00000000
00000000
00000000
00000000
00000000
00200000
00380000
00300000
00700000
00600000
00FFFC00
00FFFC00
01C18000
03818000
07018000
02038000
00030000
00070000
000E0000
001C0000
00380000
00100000
00000000
00000000
ENDCHAR

STARTCHAR Ca6a1
ENCODING 42657
SWIDTH 1000 0
DWIDTH 26 0
BBX 26 26 0 -4
BITMAP
00000000
00000000
00000000
000C0000
000C0000
001E0000
001E0000
00330000
00330000
00330000
00618000
00618000
00C0C000
00C0C000
00FFC000
01FFE000
01806000
03003000
03003000
03003000
06001800
06001800
00000000
00000000
00000000
00000000
ENDCHAR

STARTCHAR Ca6a2
ENCODING 42658
SWIDTH 1000 0
DWIDTH 26 0
BBX 26 26 0 -4
BITMAP
00000000
00000000
00000000
03FF8000
03FFE000
03006000
03003000
03003000
03003000
03006000
0300E000
03FFC000
03FFE000
03007000
03003000
03001800
03001800
03003800
03003000
0300F000
03FFE000
03FF8000
00000000
00000000
00000000
00000000
ENDCHAR

STARTCHAR Ca6a3
ENCODING 42659
SWIDTH 1000 0
DWIDTH 26 0
BBX 26 26 0 -4
BITMAP
00000000
00000000
00000000
01FFF800
01FFF800
01800000
01800000
01800000
01800000
01800000
01800000
01800000
01800000
01800000
01800000
01800000
01800000
01800000
01800000
01800000
01800000
01800000
00000000
00000000
00000000
00000000
ENDCHAR

STARTCHAR Ca6a4
ENCODING 42660
SWIDTH 1000 0
DWIDTH 26 0
BBX 26 26 0 -4
BITMAP
00000000
00000000
00000000
000C0000
000C0000
001E0000
001E0000
00330000
00330000
00330000
00618000
00618000
00618000
00C0C000
00C0C000
01806000
01806000
01806000
03003000
03003000
07FFF800
07FFF800
00000000
00000000
00000000
00000000
ENDCHAR

STARTCHAR Ca6a5
ENCODING 42661
SWIDTH 1000 0
DWIDTH 26 0
BBX 26 26 0 -4
BITMAP
00000000
00000000
00000000
03FFF000
03FFF000
03000000
03000000
03000000
03000000
03000000
03000000
03FFE000
03FFE000
03000000
03000000
03000000
03000000
03000000
03000000
03000000
03FFF000
03FFF000
00000000
00000000
00000000
00000000
ENDCHAR

STARTCHAR Ca6a6
ENCODING 42662
SWIDTH 1000 0
DWIDTH 26 0
BBX 26 26 0 -4
BITMAP
00000000
00000000
00000000
03FFE000
03FFE000
0000C000
0001C000
00038000
00030000
00070000
000E0000
000C0000
001C0000
00380000
00300000
00700000
00E00000
00C00000
01C00000
03800000
07FFF000
07FFF000
00000000
00000000
00000000
00000000
ENDCHAR

STARTCHAR Ca6a7
ENCODING 42663
SWIDTH 1000 0
DWIDTH 26 0
BBX 26 26 0 -4
BITMAP
00000000
00000000
00000000
06003000
06003000
06003000
06003000
06003000
06003000
06003000
06003000
07FFF000
07FFF000
06003000
06003000
06003000
06003000
06003000
06003000
06003000
06003000
06003000
00000000
00000000
00000000
00000000
ENDCHAR

STARTCHAR Ca6a8
ENCODING 42664
SWIDTH 1000 0
DWIDTH 26 0
BBX 26 26 0 -4
BITMAP
00000000
00000000
00000000
003F0000
00FFC000
01E1E000
03807000
07003800
06001800
0E001C00
0C000C00
0C7F8C00
0C7F8C00
0C000C00
0C000C00
0E001C00
06001800
07003800
03807000
01E1E000
00FFC000
003F0000
00000000
00000000
00000000
00000000
ENDCHAR

STARTCHAR Ca6a9
ENCODING 42665
SWIDTH 1000 0
DWIDTH 26 0
BBX 26 26 0 -4
BITMAP
00000000
00000000
00000000
000C0000
000C0000
000C0000
000C0000
000C0000
000C0000
000C0000
000C0000
000C0000
000C0000
000C0000
000C0000
000C0000
000C0000
000C0000
000C0000
000C0000
000C0000
000C0000
00000000
00000000
00000000
00000000
ENDCHAR

STARTCHAR Ca6aa
ENCODING 42666
SWIDTH 1000 0
DWIDTH 26 0
BBX 26 26 0 -4
BITMAP
00000000
00000000
00000000
03003800
03007000
0300E000
0301C000
03038000
03070000
030E0000
031C0000
03380000
037C0000
03EE0000
03C70000
03830000
03038000
0301C000
0300E000
03007000
03003800
03001C00
00000000
00000000
00000000
00000000
ENDCHAR

STARTCHAR Ca6ab
ENCODING 42667
SWIDTH 1000 0
DWIDTH 26 0
BBX 26 26 0 -4
BITMAP
00000000
00000000
00000000
000C0000
000C0000
001E0000
001E0000
00330000
00330000
00330000
00618000
00618000
00C0C000
00C0C000
00C0C000
01806000
01806000
03003000
03003000
03003000
06001800
06001800
00000000
00000000
00000000
00000000
ENDCHAR

STARTCHAR Ca6ac
ENCODING 42668
SWIDTH 1000 0
DWIDTH 26 0
BBX 26 26 0 -4
BITMAP
00000000
00000000
00000000
0E001C00
0E001C00
0F003C00
0F003C00
0F807C00
0D806C00
0D806C00
0CC0CC00
0CC0CC00
0CC0CC00
0C618C00
0C618C00
0C330C00
0C330C00
0C330C00
0C1E0C00
0C1E0C00
0C0C0C00
0C0C0C00
00000000
00000000
00000000
00000000
ENDCHAR

STARTCHAR Ca6ad
ENCODING 42669
SWIDTH 1000 0
DWIDTH 26 0
BBX 26 26 0 -4
BITMAP
00000000
00000000
00000000
03801800
03C01800
03C01800
03601800
03701800
03301800
03381800
03181800
030C1800
030E1800
03061800
03071800
03039800
03019800
0301D800
0300F800
03007800
03007800
03003800
00000000
00000000
00000000
00000000
ENDCHAR

STARTCHAR Ca6ae
ENCODING 42670
SWIDTH 1000 0
DWIDTH 26 0
BBX 26 26 0 -4
BITMAP
00000000
00000000
00000000
03FFF000
03FFF000
00000000
00000000
00000000
00000000
00000000
00000000
01FFE000
01FFE000
00000000
00000000
00000000
00000000
00000000
00000000
00000000
03FFF000
03FFF000
00000000
00000000
00000000
00000000
ENDCHAR

STARTCHAR Ca6af
ENCODING 42671
SWIDTH 1000 0
DWIDTH 26 0
BBX 26 26 0 -4
BITMAP
00000000
00000000
00000000
003F0000
00FFC000
01E1E000
03807000
07003800
06001800
0E001C00
0C000C00
0C000C00
0C000C00
0C000C00
0C000C00
0E001C00
06001800
07003800
03807000
01E1E000
00FFC000
003F0000
00000000
00000000
00000000
00000000
ENDCHAR

STARTCHAR Ca6b0
ENCODING 42672
SWIDTH 1000 0
DWIDTH 26 0
BBX 26 26 0 -4
BITMAP
00000000
00000000
00000000
03FFF000
03FFF000
03003000
03003000
03003000
03003000
03003000
03003000
03003000
03003000
03003000
03003000
03003000
03003000
03003000
03003000
03003000
03003000
03003000
00000000
00000000
00000000
00000000
ENDCHAR

STARTCHAR Ca6b1
ENCODING 42673
SWIDTH 1000 0
DWIDTH 26 0
BBX 26 26 0 -4
BITMAP
00000000
00000000
00000000
01FF8000
01FFE000
0180F000
01803800
01801800
01801800
01801800
01803800
0180F000
01FFE000
01FF8000
01800000
01800000
01800000
01800000
01800000
01800000
01800000
01800000
00000000
00000000
00000000
00000000
ENDCHAR

STARTCHAR Ca6b2
ENCODING 42674
SWIDTH 1000 0
DWIDTH 26 0
BBX 26 26 0 -4
BITMAP
00000000
00000000
00000000
07FFF800
07FFF800
07000000
03800000
01C00000
00E00000
00700000
00380000
001C0000
000E0000
001C0000
00380000
00700000
00E00000
01C00000
03800000
07000000
0FFFF800
0FFFF800
00000000
00000000
00000000
00000000
ENDCHAR

STARTCHAR Ca6b3
ENCODING 42675
SWIDTH 1000 0
DWIDTH 26 0
BBX 26 26 0 -4
BITMAP
00000000
00000000
00000000
0FFFFC00
0FFFFC00
000C0000
000C0000
000C0000
000C0000
000C0000
000C0000
000C0000
000C0000
000C0000
000C0000
000C0000
000C0000
000C0000
000C0000
000C0000
000C0000
000C0000
00000000
00000000
00000000
00000000
ENDCHAR

STARTCHAR Ca6b4
ENCODING 42676
SWIDTH 1000 0
DWIDTH 26 0
BBX 26 26 0 -4
BITMAP
00000000
00000000
00000000
07003800
03003000
03807000
01C0E000
00C0C000
00E1C000
00738000
00330000
003F0000
001E0000
000C0000
000C0000
000C0000
000C0000
000C0000
000C0000
000C0000
000C0000
000C0000
00000000
00000000
00000000
00000000
ENDCHAR

STARTCHAR Ca6b5
ENCODING 42677
SWIDTH 1000 0
DWIDTH 26 0
BBX 26 26 0 -4
BITMAP
00000000
00000000
00000000
000C0000
000C0000
000C0000
00FFC000
03FFF000
078C7800
060C1800
0E0C1C00
0C0C0C00
0C0C0C00
0E0C1C00
060C1800
078C7800
03FFF000
00FFC000
000C0000
000C0000
000C0000
000C0000
00000000
00000000
00000000
00000000
ENDCHAR

STARTCHAR Ca6b6
ENCODING 42678
SWIDTH 1000 0
DWIDTH 26 0
BBX 26 26 0 -4
BITMAP
00000000
00000000
00000000
07001C00
03803800
01C07000
00C06000
00E0E000
0071C000
00318000
003B8000
001F0000
000E0000
001F0000
003B8000
0071C000
0060C000
00E0E000
01C07000
03803800
07001C00
0E000E00
00000000
00000000
00000000
00000000
ENDCHAR

STARTCHAR Ca6b7
ENCODING 42679
SWIDTH 1000 0
DWIDTH 26 0
BBX 26 26 0 -4
BITMAP
00000000
00000000
00000000
030C3000
030C3000
030C3000
030C3000
030C3000
030C3000
030C3000
030C3000
030C3000
038C7000
018C6000
01EDE000
00FFC000
003F0000
000C0000
000C0000
000C0000
000C0000
000C0000
00000000
00000000
00000000
00000000
ENDCHAR

STARTCHAR Ca6b8
ENCODING 42680
SWIDTH 1000 0
DWIDTH 26 0
BBX 26 26 0 -4
BITMAP
00000000
00000000
00000000
003F0000
00FFC000
01E1E000
03807000
03003000
07003800
06001800
06001800
06001800
06001800
07003800
03003000
03807000
01C0E000
00E1C000
00738000
00330000
0FF3FC00
0FF3FC00
00000000
00000000
00000000
00000000
ENDCHAR

STARTCHAR Ca6b9
ENCODING 42681
SWIDTH 1000 0
DWIDTH 26 0
BBX 26 26 0 -4
BITMAP
00000000
00000000
00000000
00000000
00000000
00000000
00000000
00000000
00000000
00000000
00000000
00000000
00000000
00000000
00000000
00000000
00000000
00000000
00000000
00000000
00000000
00000000
00000000
00000000
00000000
00000000
ENDCHAR

STARTCHAR Ca6ba
ENCODING 42682
SWIDTH 1000 0
DWIDTH 26 0
BBX 26 26 0 -4
BITMAP
00000000
00000000
00000000
00000000
00000000
00000000
00000000
00000000
00000000
00000000
00000000
00000000
00000000
00000000
00000000
00000000
00000000
00000000
00000000
00000000
00000000
00000000
00000000
00000000
00000000
00000000
ENDCHAR

STARTCHAR Ca6bb
ENCODING 42683
SWIDTH 1000 0
DWIDTH 26 0
BBX 26 26 0 -4
BITMAP
00000000
00000000
00000000
00000000
00000000
00000000
00000000
00000000
00000000
00000000
00000000
00000000
00000000
00000000
00000000
00000000
00000000
00000000
00000000
00000000
00000000
00000000
00000000
00000000
00000000
00000000
ENDCHAR

STARTCHAR Ca6bc
ENCODING 42684
SWIDTH 1000 0
DWIDTH 26 0
BBX 26 26 0 -4
BITMAP
00000000
00000000
00000000
00000000
00000000
00000000
00000000
00000000
00000000
00000000
00000000
00000000
00000000
00000000
00000000
00000000
00000000
00000000
00000000
00000000
00000000
00000000
00000000
00000000
00000000
00000000
ENDCHAR

STARTCHAR Ca6bd
ENCODING 42685
SWIDTH 1000 0
DWIDTH 26 0
BBX 26 26 0 -4
BITMAP
00000000
00000000
00000000
00000000
00000000
00000000
00000000
00000000
00000000
00000000
00000000
00000000
00000000
00000000
00000000
00000000
00000000
00000000
00000000
00000000
00000000
00000000
00000000
00000000
00000000
00000000
ENDCHAR

STARTCHAR Ca6be
ENCODING 42686
SWIDTH 1000 0
DWIDTH 26 0
BBX 26 26 0 -4
BITMAP
00000000
00000000
00000000
00000000
00000000
00000000
00000000
00000000
00000000
00000000
00000000
00000000
00000000
00000000
00000000
00000000
00000000
00000000
00000000
00000000
00000000
00000000
00000000
00000000
00000000
00000000
ENDCHAR

STARTCHAR Ca6bf
ENCODING 42687
SWIDTH 1000 0
DWIDTH 26 0
BBX 26 26 0 -4
BITMAP
00000000
00000000
00000000
00000000
00000000
00000000
00000000
00000000
00000000
00000000
00000000
00000000
00000000
00000000
00000000
00000000
00000000
00000000
00000000
00000000
00000000
00000000
00000000
00000000
00000000
00000000
ENDCHAR

STARTCHAR Ca6c0
ENCODING 42688
SWIDTH 1000 0
DWIDTH 26 0
BBX 26 26 0 -4
BITMAP
00000000
00000000
00000000
00000000
00000000
00000000
00000000
00000000
00000000
00000000
00000000
00000000
00000000
00000000
00000000
00000000
00000000
00000000
00000000
00000000
00000000
00000000
00000000
00000000
00000000
00000000
ENDCHAR

STARTCHAR Ca6c1
ENCODING 42689
SWIDTH 1000 0
DWIDTH 26 0
BBX 26 26 0 -4
BITMAP
00000000
00000000
00000000
00000000
00000000
00000000
00000000
00000000
00000000
000E3000
003F3000
00736000
00E1E000
00C1C000
0181C000
01818000
03038000
03030000
03071800
038FB800
01FDF000
00F0E000
00000000
00000000
00000000
00000000
ENDCHAR

STARTCHAR Ca6c2
ENCODING 42690
SWIDTH 1000 0
DWIDTH 26 0
BBX 26 26 0 -4
BITMAP
00000000
00000000
00000000
00078000
000FE000
001C6000
00383000
00303000
00703000
00603000
00606000
00CDC000
00CF0000
00C1C000
01C0C000
01806000
01806000
01806000
01C0C000
01F1C000
03BF8000
031E0000
03000000
03000000
03000000
00000000
ENDCHAR

STARTCHAR Ca6c3
ENCODING 42691
SWIDTH 1000 0
DWIDTH 26 0
BBX 26 26 0 -4
BITMAP
00000000
00000000
00000000
00000000
00000000
00000000
00000000
00000000
00000000
00F02000
01F87800
039CF000
031CE000
000DC000
000F8000
000F0000
000F0000
000E0000
000E0000
001C0000
001C0000
003C0000
00380000
00180000
00100000
00000000
ENDCHAR

STARTCHAR Ca6c4
ENCODING 42692
SWIDTH 1000 0
DWIDTH 26 0
BBX 26 26 0 -4
BITMAP
00000000
00000000
00000000
001E0000
003F8000
0071C000
0060E000
00704000
00380000
001C0000
000E0000
003F0000
007B8000
00E18000
00C0C000
01C0C000
0181C000
01818000
01C38000
00CF0000
00FE0000
00780000
00000000
00000000
00000000
00000000
ENDCHAR

STARTCHAR Ca6c5
ENCODING 42693
SWIDTH 1000 0
DWIDTH 26 0
BBX 26 26 0 -4
BITMAP
00000000
00000000
00000000
00000000
00000000
00000000
00000000
00000000
00000000
000F0000
003FC000
0070E000
00604000
00600000
00370000
007F0000
00E00000
00C00000
01808000
01C1C000
00FF8000
003F0000
00000000
00000000
00000000
00000000
ENDCHAR

STARTCHAR Ca6c6
ENCODING 42694
SWIDTH 1000 0
DWIDTH 26 0
BBX 26 26 0 -4
BITMAP
00000000
00000000
00000000
00182000
00387000
0070F000
0061E000
003B8000
001F0000
000E0000
001C0000
00380000
00700000
00600000
00E00000
00C00000
00C00000
00F00000
007E0000
001F8000
0001C000
0000C000
0031C000
003F8000
001F0000
00000000
ENDCHAR

STARTCHAR Ca6c7
ENCODING 42695
SWIDTH 1000 0
DWIDTH 26 0
BBX 26 26 0 -4
BITMAP
00000000
00000000
00000000
00000000
00000000
00000000
00000000
00000000
00000000
03C38000
07EFE000
067C7000
00383000
00303000
00703000
00606000
00606000
00C06000
00C0C000
01C0C000
0180C000
0381C000
00018000
00018000
00038000
00000000
ENDCHAR

STARTCHAR Ca6c8
ENCODING 42696
SWIDTH 1000 0
DWIDTH 26 0
BBX 26 26 0 -4
BITMAP
00000000
00000000
00000000
00070000
001F8000
0039C000
0070C000
0060E000
00E06000
00C06000
00C06000
01FFE000
01FFE000
0180E000
0180C000
0180C000
0181C000
01818000
01C38000
00C70000
00FE0000
00380000
00000000
00000000
00000000
00000000
ENDCHAR

STARTCHAR Ca6c9
ENCODING 42697
SWIDTH 1000 0
DWIDTH 26 0
BBX 26 26 0 -4
BITMAP
00000000
00000000
00000000
00000000
00000000
00000000
00000000
00000000
00000000
00100000
001C0000
00180000
00380000
00300000
00300000
00300000
00600000
00600000
00610000
00778000
003F0000
001C0000
00000000
00000000
00000000
00000000
ENDCHAR

STARTCHAR Ca6ca
ENCODING 42698
SWIDTH 1000 0
DWIDTH 26 0
BBX 26 26 0 -4
BITMAP
00000000
00000000
00000000
00000000
00000000
00000000
00000000
00000000
00000000
00300000
00306000
0031E000
00678000
006E0000
00780000
00700000
00DC0000
00CC0000
00C62000
01C67000
0187E000
0181C000
00000000
00000000
00000000
00000000
ENDCHAR

STARTCHAR Ca6cb
ENCODING 42699
SWIDTH 1000 0
DWIDTH 26 0
BBX 26 26 0 -4
BITMAP
00000000
00000000
00000000
001C0000
007E0000
00E60000
01C30000
00830000
00030000
00070000
00070000
000F8000
000D8000
001D8000
00198000
0038C000
0030C000
0070C000
00E0C000
00C06000
01C06000
03807000
00000000
00000000
00000000
00000000
ENDCHAR

STARTCHAR Ca6cc
ENCODING 42700
SWIDTH 1000 0
DWIDTH 26 0
BBX 26 26 0 -4
BITMAP
00000000
00000000
00000000
00000000
00000000
00000000
00000000
00000000
00000000
00606000
00606000
00606000
00C06000
00C0C000
00C0C000
00C0C000
0181C000
01818800
01C38E00
01C7DC00
037EF800
03387000
03000000
06000000
06000000
00000000
ENDCHAR

STARTCHAR Ca6cd
ENCODING 42701
SWIDTH 1000 0
DWIDTH 26 0
BBX 26 26 0 -4
BITMAP
00000000
00000000
00000000
00000000
00000000
00000000
00000000
00000000
00000000
00406000
01C06000
00E06000
00606000
0070C000
0030C000
0031C000
00318000
00638000
00670000
007E0000
00F80000
00E00000
00000000
00000000
00000000
00000000
ENDCHAR

STARTCHAR Ca6ce
ENCODING 42702
SWIDTH 1000 0
DWIDTH 26 0
BBX 26 26 0 -4
BITMAP
00000000
00010000
00038000
0001C000
0007F800
001FD800
003C0000
00700000
00600000
00700000
003C0000
001FC000
007EC000
00F00000
01C00000
01800000
01800000
01E00000
00FE0000
003F8000
0003C000
0000C000
00C1C000
00FF8000
003E0000
00000000
ENDCHAR

STARTCHAR Ca6cf
ENCODING 42703
SWIDTH 1000 0
DWIDTH 26 0
BBX 26 26 0 -4
BITMAP
00000000
00000000
00000000
00000000
00000000
00000000
00000000
00000000
00000000
00070000
001FC000
0038C000
00306000
00606000
00606000
00C06000
00C0C000
00C0C000
00C18000
00638000
007F0000
001C0000
00000000
00000000
00000000
00000000
ENDCHAR

STARTCHAR Ca6d0
ENCODING 42704
SWIDTH 1000 0
DWIDTH 26 0
BBX 26 26 0 -4
BITMAP
00000000
00000000
00000000
00000000
00000000
00000000
00000000
00000000
00001000
00FFF000
07FFE000
0F330000
04330000
00730000
00630000
00660000
00C60000
00C61000
01C63800
01837000
0383E000
0701C000
00000000
00000000
00000000
00000000
ENDCHAR

STARTCHAR Ca6d1
ENCODING 42705
SWIDTH 1000 0
DWIDTH 26 0
BBX 26 26 0 -4
BITMAP
00000000
00000000
00000000
00000000
00000000
00000000
00000000
00000000
00000000
00070000
001FC000
0038C000
00706000
00606000
00606000
00C06000
00C06000
00E0C000
00F1C000
01BF8000
018E0000
01800000
01800000
01800000
01800000
00000000
ENDCHAR

STARTCHAR Ca6d2
ENCODING 42706
SWIDTH 1000 0
DWIDTH 26 0
BBX 26 26 0 -4
BITMAP
00000000
00000000
00000000
00000000
00000000
00000000
00000000
00000000
00000000
0001FC00
000FF800
003F8000
0071C000
0060C000
00E0C000
00C0C000
00C0C000
00C1C000
00C18000
00E38000
007F0000
003C0000
00000000
00000000
00000000
00000000
ENDCHAR

STARTCHAR Ca6d3
ENCODING 42707
SWIDTH 1000 0
DWIDTH 26 0
BBX 26 26 0 -4
BITMAP
00000000
00000000
00000000
00000000
00000000
00000000
00000000
00000000
00001000
00FFF000
03FFE000
078C0000
021C0000
00180000
00380000
00300000
00700000
00608000
0061C000
00738000
003F0000
001C0000
00000000
00000000
00000000
00000000
ENDCHAR

STARTCHAR Ca6d4
ENCODING 42708
SWIDTH 1000 0
DWIDTH 26 0
BBX 26 26 0 -4
BITMAP
00000000
00000000
00000000
00000000
00000000
00000000
00000000
00000000
00000000
00E08000
03F1C000
0730C000
0230E000
00306000
00606000
00606000
00C0E000
00C0C000
00C1C000
00638000
007F0000
003C0000
00000000
00000000
00000000
00000000
ENDCHAR

STARTCHAR Ca6d5
ENCODING 42709
SWIDTH 1000 0
DWIDTH 26 0
BBX 26 26 0 -4
BITMAP
00000000
00000000
00000000
00038000
00030000
00030000
00070000
00060000
001F8000
007FE000
00E66000
01C63000
018C3000
030C3000
030C3000
030C6000
0318E000
0199C000
01FF8000
007E0000
00300000
00300000
00600000
00600000
00600000
00000000
ENDCHAR

STARTCHAR Ca6d6
ENCODING 42710
SWIDTH 1000 0
DWIDTH 26 0
BBX 26 26 0 -4
BITMAP
00000000
00000000
00000000
00000000
00000000
00000000
00000000
00000000
00000000
00E07000
03F0E000
01B8C000
0119C000
001B8000
001B0000
000E0000
000E0000
001C0000
001C0000
00360000
00760000
00662000
00E37000
01C3E000
0381C000
00000000
ENDCHAR

STARTCHAR Ca6d7
ENCODING 42711
SWIDTH 1000 0
DWIDTH 26 0
BBX 26 26 0 -4
BITMAP
00000000
00000000
00000000
0001C000
00018000
00018000
00038000
00030000
00030000
00232000
00766000
00E63000
00C63000
01C63000
018C7000
018C6000
018CE000
00D9C000
00FF8000
003E0000
00180000
00180000
00300000
00300000
00700000
00000000
ENDCHAR

STARTCHAR Ca6d8
ENCODING 42712
SWIDTH 1000 0
DWIDTH 26 0
BBX 26 26 0 -4
BITMAP
00000000
00000000
00000000
00000000
00000000
00000000
00000000
00000000
00000000
00404000
00E0E000
01C07000
03803000
07003800
060C1800
0E0C1800
0C181800
0C1C3800
0E3C7000
07F7F000
03E7E000
00C18000
00000000
00000000
00000000
00000000
ENDCHAR

STARTCHAR Ca7a1
ENCODING 42913
SWIDTH 1000 0
DWIDTH 26 0
BBX 26 26 0 -4
BITMAP
00000000
00000000
00000000
000C0000
000C0000
001E0000
001E0000
00330000
00330000
00330000
00618000
00618000
00C0C000
00C0C000
00FFC000
01FFE000
01806000
03003000
03003000
03003000
06001800
06001800
00000000
00000000
00000000
00000000
ENDCHAR

STARTCHAR Ca7a2
ENCODING 42914
SWIDTH 1000 0
DWIDTH 26 0
BBX 26 26 0 -4
BITMAP
00000000
00000000
00000000
03FFC000
03FFC000
03000000
03000000
03000000
03000000
03000000
03000000
03FF0000
03FFC000
0301E000
03006000
03007000
03003000
03007000
03006000
0301E000
03FFC000
03FF0000
00000000
00000000
00000000
00000000
ENDCHAR

STARTCHAR Ca7a3
ENCODING 42915
SWIDTH 1000 0
DWIDTH 26 0
BBX 26 26 0 -4
BITMAP
00000000
00000000
00000000
03FF8000
03FFE000
03006000
03003000
03003000
03003000
03006000
0300E000
03FFC000
03FFE000
03007000
03003000
03001800
03001800
03003800
03003000
0300F000
03FFE000
03FF8000
00000000
00000000
00000000
00000000
ENDCHAR

STARTCHAR Ca7a4
ENCODING 42916
SWIDTH 1000 0
DWIDTH 26 0
BBX 26 26 0 -4
BITMAP
00000000
00000000
00000000
01FFF800
01FFF800
01800000
01800000
01800000
01800000
01800000
01800000
01800000
01800000
01800000
01800000
01800000
01800000
01800000
01800000
01800000
01800000
01800000
00000000
00000000
00000000
00000000
ENDCHAR

STARTCHAR Ca7a5
ENCODING 42917
SWIDTH 1000 0
DWIDTH 26 0
BBX 26 26 0 -4
BITMAP
00000000
00000000
00000000
007FF000
007FF000
00603000
00603000
00603000
00603000
00603000
00603000
00C03000
00C03000
00C03000
00C03000
01803000
01803000
01803000
03003000
03003000
0FFFFC00
0FFFFC00
0C000C00
0C000C00
00000000
00000000
ENDCHAR

STARTCHAR Ca7a6
ENCODING 42918
SWIDTH 1000 0
DWIDTH 26 0
BBX 26 26 0 -4
BITMAP
00000000
00000000
00000000
03FFF000
03FFF000
03000000
03000000
03000000
03000000
03000000
03000000
03FFE000
03FFE000
03000000
03000000
03000000
03000000
03000000
03000000
03000000
03FFF000
03FFF000
00000000
00000000
00000000
00000000
ENDCHAR

STARTCHAR Ca7a7
ENCODING 42919
SWIDTH 1000 0
DWIDTH 26 0
BBX 26 26 0 -4
BITMAP
00000000
00618000
00618000
00000000
03FFF000
03FFF000
03000000
03000000
03000000
03000000
03000000
03000000
03FFE000
03FFE000
03000000
03000000
03000000
03000000
03000000
03000000
03FFF000
03FFF000
00000000
00000000
00000000
00000000
ENDCHAR

STARTCHAR Ca7a8
ENCODING 42920
SWIDTH 1000 0
DWIDTH 26 0
BBX 26 26 0 -4
BITMAP
00000000
00000000
00000000
1C0C0E00
0C0C0C00
0E0C1C00
060C1800
070C3800
030C3000
038C7000
01EDE000
00FFC000
007F8000
00EDC000
01CCE000
038C7000
030C3000
070C3800
0E0C1C00
0C0C0C00
1C0C0E00
380C0700
00000000
00000000
00000000
00000000
ENDCHAR

STARTCHAR Ca7a9
ENCODING 42921
SWIDTH 1000 0
DWIDTH 26 0
BBX 26 26 0 -4
BITMAP
00000000
00000000
00000000
003E0000
00FF8000
01E3C000
0380E000
03006000
00006000
0000E000
0003C000
003F0000
003FC000
0001E000
00007000
00003000
00003000
03003000
03807000
01E1E000
00FFC000
003F0000
00000000
00000000
00000000
00000000
ENDCHAR

STARTCHAR Ca7aa
ENCODING 42922
SWIDTH 1000 0
DWIDTH 26 0
BBX 26 26 0 -4
BITMAP
00000000
00000000
00000000
03001800
03001800
03001800
03003800
03007800
0300F800
0301D800
03039800
03071800
031E1800
033C1800
03701800
03E01800
03C01800
03801800
03001800
03001800
03001800
03001800
00000000
00000000
00000000
00000000
ENDCHAR

STARTCHAR Ca7ab
ENCODING 42923
SWIDTH 1000 0
DWIDTH 26 0
BBX 26 26 0 -4
BITMAP
00000000
0060C000
0071C000
033F9800
030E1800
03001800
03003800
03007800
0300F800
0301D800
03039800
03071800
031E1800
033C1800
03701800
03E01800
03C01800
03801800
03001800
03001800
03001800
03001800
00000000
00000000
00000000
00000000
ENDCHAR

STARTCHAR Ca7ac
ENCODING 42924
SWIDTH 1000 0
DWIDTH 26 0
BBX 26 26 0 -4
BITMAP
00000000
00000000
00000000
01807000
01807000
01806000
0180E000
0180C000
0181C000
01838000
018F0000
01FE0000
01FE0000
01870000
01838000
01818000
0181C000
0180E000
01806000
01807000
01803800
01801C00
00000000
00000000
00000000
00000000
ENDCHAR

STARTCHAR Ca7ad
ENCODING 42925
SWIDTH 1000 0
DWIDTH 26 0
BBX 26 26 0 -4
BITMAP
00000000
00000000
00000000
003FF000
003FF000
00303000
00303000
00303000
00303000
00303000
00303000
00303000
00303000
00703000
00603000
00603000
00603000
30E03000
30C03000
39C03000
1F803000
07003000
00000000
00000000
00000000
00000000
ENDCHAR

STARTCHAR Ca7ae
ENCODING 42926
SWIDTH 1000 0
DWIDTH 26 0
BBX 26 26 0 -4
BITMAP
00000000
00000000
00000000
0E001C00
0E001C00
0F003C00
0F003C00
0F807C00
0D806C00
0D806C00
0CC0CC00
0CC0CC00
0CC0CC00
0C618C00
0C618C00
0C330C00
0C330C00
0C330C00
0C1E0C00
0C1E0C00
0C0C0C00
0C0C0C00
00000000
00000000
00000000
00000000
ENDCHAR

STARTCHAR Ca7af
ENCODING 42927
SWIDTH 1000 0
DWIDTH 26 0
BBX 26 26 0 -4
BITMAP
00000000
00000000
00000000
06003000
06003000
06003000
06003000
06003000
06003000
06003000
06003000
07FFF000
07FFF000
06003000
06003000
06003000
06003000
06003000
06003000
06003000
06003000
06003000
00000000
00000000
00000000
00000000
ENDCHAR

STARTCHAR Ca7b0
ENCODING 42928
SWIDTH 1000 0
DWIDTH 26 0
BBX 26 26 0 -4
BITMAP
00000000
00000000
00000000
003F0000
00FFC000
01E1E000
03807000
07003800
06001800
0E001C00
0C000C00
0C000C00
0C000C00
0C000C00
0C000C00
0E001C00
06001800
07003800
03807000
01E1E000
00FFC000
003F0000
00000000
00000000
00000000
00000000
ENDCHAR

STARTCHAR Ca7b1
ENCODING 42929
SWIDTH 1000 0
DWIDTH 26 0
BBX 26 26 0 -4
BITMAP
00000000
00000000
00000000
03FFF000
03FFF000
03003000
03003000
03003000
03003000
03003000
03003000
03003000
03003000
03003000
03003000
03003000
03003000
03003000
03003000
03003000
03003000
03003000
00000000
00000000
00000000
00000000
ENDCHAR

STARTCHAR Ca7b2
ENCODING 42930
SWIDTH 1000 0
DWIDTH 26 0
BBX 26 26 0 -4
BITMAP
00000000
00000000
00000000
01FF8000
01FFE000
0180F000
01803800
01801800
01801800
01801800
01803800
0180F000
01FFE000
01FF8000
01800000
01800000
01800000
01800000
01800000
01800000
01800000
01800000
00000000
00000000
00000000
00000000
ENDCHAR

STARTCHAR Ca7b3
ENCODING 42931
SWIDTH 1000 0
DWIDTH 26 0
BBX 26 26 0 -4
BITMAP
00000000
00000000
00000000
001F8000
007FE000
00F0F000
01C03800
03801800
03000000
07000000
06000000
06000000
06000000
06000000
06000000
07000000
03000000
03801800
01C03800
00F0F000
007FE000
001F8000
00000000
00000000
00000000
00000000
ENDCHAR

STARTCHAR Ca7b4
ENCODING 42932
SWIDTH 1000 0
DWIDTH 26 0
BBX 26 26 0 -4
BITMAP
00000000
00000000
00000000
0FFFFC00
0FFFFC00
000C0000
000C0000
000C0000
000C0000
000C0000
000C0000
000C0000
000C0000
000C0000
000C0000
000C0000
000C0000
000C0000
000C0000
000C0000
000C0000
000C0000
00000000
00000000
00000000
00000000
ENDCHAR

STARTCHAR Ca7b5
ENCODING 42933
SWIDTH 1000 0
DWIDTH 26 0
BBX 26 26 0 -4
BITMAP
00000000
00000000
00000000
03801C00
01801800
01C03800
00C03000
00E03000
00607000
00706000
0030E000
0038C000
0019C000
001D8000
000F8000
000F0000
00070000
00060000
000E0000
003C0000
03F80000
03E00000
00000000
00000000
00000000
00000000
ENDCHAR

STARTCHAR Ca7b6
ENCODING 42934
SWIDTH 1000 0
DWIDTH 26 0
BBX 26 26 0 -4
BITMAP
00000000
00000000
00000000
000C0000
000C0000
000C0000
00FFC000
03FFF000
078C7800
060C1800
0E0C1C00
0C0C0C00
0C0C0C00
0C0C0C00
0E0C1C00
060C1800
078C7800
03FFF000
00FFC000
000C0000
000C0000
000C0000
00000000
00000000
00000000
00000000
ENDCHAR

STARTCHAR Ca7b7
ENCODING 42935
SWIDTH 1000 0
DWIDTH 26 0
BBX 26 26 0 -4
BITMAP
00000000
00000000
00000000
07001C00
03803800
01C07000
00C06000
00E0E000
0071C000
00318000
003B8000
001F0000
000E0000
001F0000
003B8000
0071C000
0060C000
00E0E000
01C07000
03803800
07001C00
0E000E00
00000000
00000000
00000000
00000000
ENDCHAR

STARTCHAR Ca7b8
ENCODING 42936
SWIDTH 1000 0
DWIDTH 26 0
BBX 26 26 0 -4
BITMAP
00000000
00000000
00000000
03003000
03003000
03003000
03003000
03003000
03003000
03003000
03003000
03003000
03003000
03003000
03003000
03003000
03003000
03003000
03003000
03003000
03FFFC00
03FFFC00
00000C00
00000C00
00000C00
00000000
ENDCHAR

STARTCHAR Ca7b9
ENCODING 42937
SWIDTH 1000 0
DWIDTH 26 0
BBX 26 26 0 -4
BITMAP
00000000
00000000
00000000
03006000
03006000
03006000
03006000
03006000
03006000
03006000
03006000
03006000
0380E000
01E3E000
00FFE000
003E6000
00006000
00006000
00006000
00006000
00006000
00006000
00000000
00000000
00000000
00000000
ENDCHAR

STARTCHAR Ca7ba
ENCODING 42938
SWIDTH 1000 0
DWIDTH 26 0
BBX 26 26 0 -4
BITMAP
00000000
00000000
00000000
0C0C0C00
0C0C0C00
0C0C0C00
0C0C0C00
0C0C0C00
0C0C0C00
0C0C0C00
0C0C0C00
0C0C0C00
0C0C0C00
0C0C0C00
0C0C0C00
0C0C0C00
0C0C0C00
0C0C0C00
0C0C0C00
0C0C0C00
0FFFFC00
0FFFFC00
00000000
00000000
00000000
00000000
ENDCHAR

STARTCHAR Ca7bb
ENCODING 42939
SWIDTH 1000 0
DWIDTH 26 0
BBX 26 26 0 -4
BITMAP
00000000
00000000
00000000
0C0C0C00
0C0C0C00
0C0C0C00
0C0C0C00
0C0C0C00
0C0C0C00
0C0C0C00
0C0C0C00
0C0C0C00
0C0C0C00
0C0C0C00
0C0C0C00
0C0C0C00
0C0C0C00
0C0C0C00
0C0C0C00
0C0C0C00
0FFFFF00
0FFFFF00
00000300
00000300
00000300
00000000
ENDCHAR

STARTCHAR Ca7bc
ENCODING 42940
SWIDTH 1000 0
DWIDTH 26 0
BBX 26 26 0 -4
BITMAP
00000000
00000000
00000000
0FE00000
0FE00000
00600000
00600000
00600000
00600000
00600000
00600000
007FC000
007FF000
00607800
00601800
00601C00
00600C00
00601C00
00601800
00607800
007FF000
007FC000
00000000
00000000
00000000
00000000
ENDCHAR

STARTCHAR Ca7bd
ENCODING 42941
SWIDTH 1000 0
DWIDTH 26 0
BBX 26 26 0 -4
BITMAP
00000000
00000000
00000000
0C001800
0C001800
0C001800
0C001800
0C001800
0C001800
0C001800
0C001800
0FF01800
0FFC1800
0C1E1800
0C061800
0C071800
0C031800
0C071800
0C061800
0C1E1800
0FFC1800
0FF01800
00000000
00000000
00000000
00000000
ENDCHAR

STARTCHAR Ca7be
ENCODING 42942
SWIDTH 1000 0
DWIDTH 26 0
BBX 26 26 0 -4
BITMAP
00000000
00000000
00000000
00C00000
00C00000
00C00000
00C00000
00C00000
00C00000
00C00000
00C00000
00FF0000
00FFC000
00C1E000
00C06000
00C07000
00C03000
00C07000
00C06000
00C1E000
00FFC000
00FF0000
00000000
00000000
00000000
00000000
ENDCHAR

STARTCHAR Ca7bf
ENCODING 42943
SWIDTH 1000 0
DWIDTH 26 0
BBX 26 26 0 -4
BITMAP
00000000
00000000
00000000
003E0000
00FF8000
03E3E000
0380E000
07007000
06003000
06003800
00001800
00E01800
01F89800
011F9800
00071800
06003800
06003000
07007000
0380E000
03E3E000
00FF8000
003E0000
00000000
00000000
00000000
00000000
ENDCHAR

STARTCHAR Ca7c0
ENCODING 42944
SWIDTH 1000 0
DWIDTH 26 0
BBX 26 26 0 -4
BITMAP
00000000
00000000
00000000
0C03C000
0C0FF000
0C1E7800
0C381C00
0C300C00
0C700E00
0C600600
0C600600
0FE00600
0FE00600
0C600600
0C600600
0C600600
0C700E00
0C300C00
0C381C00
0C1E7800
0C0FF000
0C03C000
00000000
00000000
00000000
00000000
ENDCHAR

STARTCHAR Ca7c1
ENCODING 42945
SWIDTH 1000 0
DWIDTH 26 0
BBX 26 26 0 -4
BITMAP
00000000
00000000
00000000
003FE000
00FFE000
00E06000
01C06000
01806000
01806000
01806000
01C06000
00E06000
00FFE000
003FE000
00186000
00386000
00306000
00706000
00E06000
01C06000
03806000
07006000
00000000
00000000
00000000
00000000
ENDCHAR

STARTCHAR Ca7c2
ENCODING 42946
SWIDTH 1000 0
DWIDTH 26 0
BBX 26 26 0 -4
BITMAP
00000000
00000000
00000000
00000000
00000000
00000000
00000000
00000000
00000000
00000000
00000000
00000000
00000000
00000000
00000000
00000000
00000000
00000000
00000000
00000000
00000000
00000000
00000000
00000000
00000000
00000000
ENDCHAR

STARTCHAR Ca7c3
ENCODING 42947
SWIDTH 1000 0
DWIDTH 26 0
BBX 26 26 0 -4
BITMAP
00000000
00000000
00000000
00000000
00000000
00000000
00000000
00000000
00000000
00000000
00000000
00000000
00000000
00000000
00000000
00000000
00000000
00000000
00000000
00000000
00000000
00000000
00000000
00000000
00000000
00000000
ENDCHAR

STARTCHAR Ca7c4
ENCODING 42948
SWIDTH 1000 0
DWIDTH 26 0
BBX 26 26 0 -4
BITMAP
00000000
00000000
00000000
00000000
00000000
00000000
00000000
00000000
00000000
00000000
00000000
00000000
00000000
00000000
00000000
00000000
00000000
00000000
00000000
00000000
00000000
00000000
00000000
00000000
00000000
00000000
ENDCHAR

STARTCHAR Ca7c5
ENCODING 42949
SWIDTH 1000 0
DWIDTH 26 0
BBX 26 26 0 -4
BITMAP
00000000
00000000
00000000
00000000
00000000
00000000
00000000
00000000
00000000
00000000
00000000
00000000
00000000
00000000
00000000
00000000
00000000
00000000
00000000
00000000
00000000
00000000
00000000
00000000
00000000
00000000
ENDCHAR

STARTCHAR Ca7c6
ENCODING 42950
SWIDTH 1000 0
DWIDTH 26 0
BBX 26 26 0 -4
BITMAP
00000000
00000000
00000000
00000000
00000000
00000000
00000000
00000000
00000000
00000000
00000000
00000000
00000000
00000000
00000000
00000000
00000000
00000000
00000000
00000000
00000000
00000000
00000000
00000000
00000000
00000000
ENDCHAR

STARTCHAR Ca7c7
ENCODING 42951
SWIDTH 1000 0
DWIDTH 26 0
BBX 26 26 0 -4
BITMAP
00000000
00000000
00000000
00000000
00000000
00000000
00000000
00000000
00000000
00000000
00000000
00000000
00000000
00000000
00000000
00000000
00000000
00000000
00000000
00000000
00000000
00000000
00000000
00000000
00000000
00000000
ENDCHAR

STARTCHAR Ca7c8
ENCODING 42952
SWIDTH 1000 0
DWIDTH 26 0
BBX 26 26 0 -4
BITMAP
00000000
00000000
00000000
00000000
00000000
00000000
00000000
00000000
00000000
00000000
00000000
00000000
00000000
00000000
00000000
00000000
00000000
00000000
00000000
00000000
00000000
00000000
00000000
00000000
00000000
00000000
ENDCHAR

STARTCHAR Ca7c9
ENCODING 42953
SWIDTH 1000 0
DWIDTH 26 0
BBX 26 26 0 -4
BITMAP
00000000
00000000
00000000
00000000
00000000
00000000
00000000
00000000
00000000
00000000
00000000
00000000
00000000
00000000
00000000
00000000
00000000
00000000
00000000
00000000
00000000
00000000
00000000
00000000
00000000
00000000
ENDCHAR

STARTCHAR Ca7ca
ENCODING 42954
SWIDTH 1000 0
DWIDTH 26 0
BBX 26 26 0 -4
BITMAP
00000000
00000000
00000000
00000000
00000000
00000000
00000000
00000000
00000000
00000000
00000000
00000000
00000000
00000000
00000000
00000000
00000000
00000000
00000000
00000000
00000000
00000000
00000000
00000000
00000000
00000000
ENDCHAR

STARTCHAR Ca7cb
ENCODING 42955
SWIDTH 1000 0
DWIDTH 26 0
BBX 26 26 0 -4
BITMAP
00000000
00000000
00000000
00000000
00000000
00000000
00000000
00000000
00000000
00000000
00000000
00000000
00000000
00000000
00000000
00000000
00000000
00000000
00000000
00000000
00000000
00000000
00000000
00000000
00000000
00000000
ENDCHAR

STARTCHAR Ca7cc
ENCODING 42956
SWIDTH 1000 0
DWIDTH 26 0
BBX 26 26 0 -4
BITMAP
00000000
00000000
00000000
00000000
00000000
00000000
00000000
00000000
00000000
00000000
00000000
00000000
00000000
00000000
00000000
00000000
00000000
00000000
00000000
00000000
00000000
00000000
00000000
00000000
00000000
00000000
ENDCHAR

STARTCHAR Ca7cd
ENCODING 42957
SWIDTH 1000 0
DWIDTH 26 0
BBX 26 26 0 -4
BITMAP
00000000
00000000
00000000
00000000
00000000
00000000
00000000
00000000
00000000
00000000
00000000
00000000
00000000
00000000
00000000
00000000
00000000
00000000
00000000
00000000
00000000
00000000
00000000
00000000
00000000
00000000
ENDCHAR

STARTCHAR Ca7ce
ENCODING 42958
SWIDTH 1000 0
DWIDTH 26 0
BBX 26 26 0 -4
BITMAP
00000000
00000000
00000000
00000000
00000000
00000000
00000000
00000000
00000000
00000000
00000000
00000000
00000000
00000000
00000000
00000000
00000000
00000000
00000000
00000000
00000000
00000000
00000000
00000000
00000000
00000000
ENDCHAR

STARTCHAR Ca7cf
ENCODING 42959
SWIDTH 1000 0
DWIDTH 26 0
BBX 26 26 0 -4
BITMAP
00000000
00000000
00000000
00000000
00000000
00000000
00000000
00000000
00000000
00000000
00000000
00000000
00000000
00000000
00000000
00000000
00000000
00000000
00000000
00000000
00000000
00000000
00000000
00000000
00000000
00000000
ENDCHAR

STARTCHAR Ca7d0
ENCODING 42960
SWIDTH 1000 0
DWIDTH 26 0
BBX 26 26 0 -4
BITMAP
00000000
00000000
00000000
00000000
00000000
00000000
00000000
00000000
00000000
00000000
00000000
00000000
00000000
00000000
00000000
00000000
00000000
00000000
00000000
00000000
00000000
00000000
00000000
00000000
00000000
00000000
ENDCHAR

STARTCHAR Ca7d1
ENCODING 42961
SWIDTH 1000 0
DWIDTH 26 0
BBX 26 26 0 -4
BITMAP
00000000
00000000
00000000
00000000
00000000
00000000
00000000
00000000
00000000
003E0000
007F8000
00E18000
00C0C000
0000C000
003FC000
00FFC000
00C0C000
0180C000
0180C000
01C1C000
00FFF000
007E7000
00000000
00000000
00000000
00000000
ENDCHAR

STARTCHAR Ca7d2
ENCODING 42962
SWIDTH 1000 0
DWIDTH 26 0
BBX 26 26 0 -4
BITMAP
00000000
00000000
00000000
0000C000
0001C000
000FC000
003F0000
00780000
00E00000
00C00000
019C0000
01FF0000
01E38000
01C18000
01C1C000
0180C000
0180C000
01C1C000
00C18000
00E38000
007F0000
001C0000
00000000
00000000
00000000
00000000
ENDCHAR

STARTCHAR Ca7d3
ENCODING 42963
SWIDTH 1000 0
DWIDTH 26 0
BBX 26 26 0 -4
BITMAP
00000000
00000000
00000000
00000000
00000000
00000000
00000000
00000000
00000000
00FE0000
00FF8000
00C1C000
00C0C000
00C18000
00FF0000
00FFC000
00C0C000
00C06000
00C06000
00C0E000
00FFC000
00FF0000
00000000
00000000
00000000
00000000
ENDCHAR

STARTCHAR Ca7d4
ENCODING 42964
SWIDTH 1000 0
DWIDTH 26 0
BBX 26 26 0 -4
BITMAP
00000000
00000000
00000000
00000000
00000000
00000000
00000000
00000000
00000000
007FE000
007FE000
00600000
00600000
00600000
00600000
00600000
00600000
00600000
00600000
00600000
00600000
00600000
00000000
00000000
00000000
00000000
ENDCHAR

STARTCHAR Ca7d5
ENCODING 42965
SWIDTH 1000 0
DWIDTH 26 0
BBX 26 26 0 -4
BITMAP
00000000
00000000
00000000
00000000
00000000
00000000
00000000
00000000
00000000
003FC000
003FC000
0030C000
0030C000
0030C000
0070C000
0060C000
0060C000
00E0C000
00C0C000
07FFE000
07FFE000
06006000
06006000
06006000
00000000
00000000
ENDCHAR

STARTCHAR Ca7d6
ENCODING 42966
SWIDTH 1000 0
DWIDTH 26 0
BBX 26 26 0 -4
BITMAP
00000000
00000000
00000000
00000000
00000000
00000000
00000000
00000000
00000000
001E0000
007F8000
00F3C000
00C0C000
01806000
01FFE000
01FFE000
01800000
01800000
00C06000
00F1E000
007FC000
001F0000
00000000
00000000
00000000
00000000
ENDCHAR

STARTCHAR Ca7d7
ENCODING 42967
SWIDTH 1000 0
DWIDTH 26 0
BBX 26 26 0 -4
BITMAP
00000000
00000000
00000000
00000000
00000000
00000000
00618000
00618000
00000000
00000000
001E0000
007F8000
00F3C000
00C0C000
01806000
01FFE000
01FFE000
01800000
00C06000
00F1E000
007FC000
001F0000
00000000
00000000
00000000
00000000
ENDCHAR

STARTCHAR Ca7d8
ENCODING 42968
SWIDTH 1000 0
DWIDTH 26 0
BBX 26 26 0 -4
BITMAP
00000000
00000000
00000000
00000000
00000000
00000000
00000000
00000000
00000000
030C3000
030C3000
018C6000
018C6000
00CCC000
007F8000
007F8000
00CCC000
01CCE000
018C6000
038C7000
030C3000
070C3800
00000000
00000000
00000000
00000000
ENDCHAR

STARTCHAR Ca7d9
ENCODING 42969
SWIDTH 1000 0
DWIDTH 26 0
BBX 26 26 0 -4
BITMAP
00000000
00000000
00000000
00000000
00000000
00000000
00000000
00000000
00000000
001E0000
007F0000
00E38000
00C18000
00038000
001F0000
001E0000
00070000
00038000
01818000
01C38000
00FF0000
003E0000
00000000
00000000
00000000
00000000
ENDCHAR

STARTCHAR Ca7da
ENCODING 42970
SWIDTH 1000 0
DWIDTH 26 0
BBX 26 26 0 -4
BITMAP
00000000
00000000
00000000
00000000
00000000
00000000
00000000
00000000
00000000
0180C000
0180C000
0181C000
0183C000
0187C000
018EC000
019CC000
01B8C000
01F0C000
01E0C000
01C0C000
0180C000
0180C000
00000000
00000000
00000000
00000000
ENDCHAR

STARTCHAR Ca7db
ENCODING 42971
SWIDTH 1000 0
DWIDTH 26 0
BBX 26 26 0 -4
BITMAP
00000000
00000000
00000000
00000000
00618000
00738000
003F0000
001E0000
00000000
0180C000
0180C000
0181C000
0183C000
0187C000
018EC000
019CC000
01B8C000
01F0C000
01E0C000
01C0C000
0180C000
0180C000
00000000
00000000
00000000
00000000
ENDCHAR

STARTCHAR Ca7dc
ENCODING 42972
SWIDTH 1000 0
DWIDTH 26 0
BBX 26 26 0 -4
BITMAP
00000000
00000000
00000000
00000000
00000000
00000000
00000000
00000000
00000000
0060C000
0061C000
00618000
00638000
00670000
007E0000
007E0000
00670000
00638000
0061C000
0060C000
0060E000
00607000
00000000
00000000
00000000
00000000
ENDCHAR

STARTCHAR Ca7dd
ENCODING 42973
SWIDTH 1000 0
DWIDTH 26 0
BBX 26 26 0 -4
BITMAP
00000000
00000000
00000000
00000000
00000000
00000000
00000000
00000000
00000000
003FC000
003FC000
0030C000
0030C000
0030C000
0030C000
0030C000
0060C000
0060C000
0C60C000
0CC0C000
07C0C000
0380C000
00000000
00000000
00000000
00000000
ENDCHAR

STARTCHAR Ca7de
ENCODING 42974
SWIDTH 1000 0
DWIDTH 26 0
BBX 26 26 0 -4
BITMAP
00000000
00000000
00000000
00000000
00000000
00000000
00000000
00000000
00000000
03C0F000
03C0F000
03E1F000
0361B000
0361B000
03333000
03333000
03333000
031E3000
031E3000
030C3000
030C3000
030C3000
00000000
00000000
00000000
00000000
ENDCHAR

STARTCHAR Ca7df
ENCODING 42975
SWIDTH 1000 0
DWIDTH 26 0
BBX 26 26 0 -4
BITMAP
00000000
00000000
00000000
00000000
00000000
00000000
00000000
00000000
00000000
0180C000
0180C000
0180C000
0180C000
0180C000
01FFC000
01FFC000
0180C000
0180C000
0180C000
0180C000
0180C000
0180C000
00000000
00000000
00000000
00000000
ENDCHAR

STARTCHAR Ca7e0
ENCODING 42976
SWIDTH 1000 0
DWIDTH 26 0
BBX 26 26 0 -4
BITMAP
00000000
00000000
00000000
00000000
00000000
00000000
00000000
00000000
00000000
001E0000
007F8000
00F3C000
00C0C000
01C0E000
01806000
01806000
01806000
01C0E000
00C0C000
00F3C000
007F8000
001E0000
00000000
00000000
00000000
00000000
ENDCHAR

STARTCHAR Ca7e1
ENCODING 42977
SWIDTH 1000 0
DWIDTH 26 0
BBX 26 26 0 -4
BITMAP
00000000
00000000
00000000
00000000
00000000
00000000
00000000
00000000
00000000
01FFC000
01FFC000
0180C000
0180C000
0180C000
0180C000
0180C000
0180C000
0180C000
0180C000
0180C000
0180C000
0180C000
00000000
00000000
00000000
00000000
ENDCHAR

STARTCHAR Ca7e2
ENCODING 42978
SWIDTH 1000 0
DWIDTH 26 0
BBX 26 26 0 -4
BITMAP
00000000
00000000
00000000
00000000
00000000
00000000
00000000
00000000
00000000
00DE0000
00FF8000
00E1C000
00C0C000
00C06000
00C06000
00C06000
00C06000
00C06000
00C0C000
00E1C000
00FF8000
00DE0000
00C00000
00C00000
00C00000
00000000
ENDCHAR

STARTCHAR Ca7e3
ENCODING 42979
SWIDTH 1000 0
DWIDTH 26 0
BBX 26 26 0 -4
BITMAP
00000000
00000000
00000000
00000000
00000000
00000000
00000000
00000000
00000000
001F0000
007FC000
00F1E000
00C06000
01C06000
01800000
01800000
01800000
01C00000
00C06000
00F1E000
007FC000
001F0000
00000000
00000000
00000000
00000000
ENDCHAR

STARTCHAR Ca7e4
ENCODING 42980
SWIDTH 1000 0
DWIDTH 26 0
BBX 26 26 0 -4
BITMAP
00000000
00000000
00000000
00000000
00000000
00000000
00000000
00000000
00000000
01FFE000
01FFE000
000C0000
000C0000
000C0000
000C0000
000C0000
000C0000
000C0000
000C0000
000C0000
000C0000
000C0000
00000000
00000000
00000000
00000000
ENDCHAR

STARTCHAR Ca7e5
ENCODING 42981
SWIDTH 1000 0
DWIDTH 26 0
BBX 26 26 0 -4
BITMAP
00000000
00000000
00000000
00000000
00000000
00000000
00000000
00000000
00000000
01803000
00C06000
00C06000
0060C000
0060C000
00318000
00318000
001B0000
001B0000
000E0000
000E0000
000C0000
001C0000
00180000
00F80000
00F00000
00000000
ENDCHAR

STARTCHAR Ca7e6
ENCODING 42982
SWIDTH 1000 0
DWIDTH 26 0
BBX 26 26 0 -4
BITMAP
00000000
00000000
00000000
00000000
00000000
000C0000
000C0000
000C0000
000C0000
00EDC000
01FFE000
039E7000
030C3000
030C3000
030C3000
030C3000
030C3000
030C3000
039E7000
01FFE000
00EDC000
000C0000
000C0000
000C0000
000C0000
00000000
ENDCHAR

STARTCHAR Ca7e7
ENCODING 42983
SWIDTH 1000 0
DWIDTH 26 0
BBX 26 26 0 -4
BITMAP
00000000
00000000
00000000
00000000
00000000
00000000
00000000
00000000
00000000
0380E000
01C1C000
00E38000
00770000
003E0000
001C0000
001C0000
003E0000
00770000
00E38000
01C1C000
0380E000
07007000
00000000
00000000
00000000
00000000
ENDCHAR

STARTCHAR Ca7e8
ENCODING 42984
SWIDTH 1000 0
DWIDTH 26 0
BBX 26 26 0 -4
BITMAP
00000000
00000000
00000000
00000000
00000000
00000000
00000000
00000000
00000000
00C0C000
00C0C000
00C0C000
00C0C000
00C0C000
00C0C000
00C0C000
00C0C000
00C0C000
00C0C000
00C0C000
00FFF000
00FFF000
00003000
00003000
00000000
00000000
ENDCHAR

STARTCHAR Ca7e9
ENCODING 42985
SWIDTH 1000 0
DWIDTH 26 0
BBX 26 26 0 -4
BITMAP
00000000
00000000
00000000
00000000
00000000
00000000
00000000
00000000
00000000
00C0C000
00C0C000
00C0C000
00C0C000
00C0C000
00E0C000
007FC000
003FC000
0000C000
0000C000
0000C000
0000C000
0000C000
00000000
00000000
00000000
00000000
ENDCHAR

STARTCHAR Ca7ea
ENCODING 42986
SWIDTH 1000 0
DWIDTH 26 0
BBX 26 26 0 -4
BITMAP
00000000
00000000
00000000
00000000
00000000
00000000
00000000
00000000
00000000
060C1800
060C1800
060C1800
060C1800
060C1800
060C1800
060C1800
060C1800
060C1800
060C1800
060C1800
07FFF800
07FFF800
00000000
00000000
00000000
00000000
ENDCHAR

STARTCHAR Ca7eb
ENCODING 42987
SWIDTH 1000 0
DWIDTH 26 0
BBX 26 26 0 -4
BITMAP
00000000
00000000
00000000
00000000
00000000
00000000
00000000
00000000
00000000
060C1800
060C1800
060C1800
060C1800
060C1800
060C1800
060C1800
060C1800
060C1800
060C1800
060C1800
07FFFE00
07FFFE00
00000600
00000600
00000600
00000000
ENDCHAR

STARTCHAR Ca7ec
ENCODING 42988
SWIDTH 1000 0
DWIDTH 26 0
BBX 26 26 0 -4
BITMAP
00000000
00000000
00000000
00000000
00000000
00000000
00000000
00000000
00000000
07E00000
07E00000
00600000
00600000
007F0000
007FC000
0060E000
00606000
00606000
00606000
0060E000
007FC000
007F0000
00000000
00000000
00000000
00000000
ENDCHAR

STARTCHAR Ca7ed
ENCODING 42989
SWIDTH 1000 0
DWIDTH 26 0
BBX 26 26 0 -4
BITMAP
00000000
00000000
00000000
00000000
00000000
00000000
00000000
00000000
00000000
03003000
03003000
03003000
03003000
03F83000
03FE3000
03073000
03033000
03033000
03033000
03073000
03FE3000
03F83000
00000000
00000000
00000000
00000000
ENDCHAR

STARTCHAR Ca7ee
ENCODING 42990
SWIDTH 1000 0
DWIDTH 26 0
BBX 26 26 0 -4
BITMAP
00000000
00000000
00000000
00000000
00000000
00000000
00000000
00000000
00000000
00C00000
00C00000
00C00000
00C00000
00FF0000
00FFC000
00C0E000
00C06000
00C06000
00C06000
00C0E000
00FFC000
00FF0000
00000000
00000000
00000000
00000000
ENDCHAR

STARTCHAR Ca7ef
ENCODING 42991
SWIDTH 1000 0
DWIDTH 26 0
BBX 26 26 0 -4
BITMAP
00000000
00000000
00000000
00000000
00000000
00000000
00000000
00000000
00000000
003E0000
00FF8000
00C1C000
0180C000
0180E000
00196000
003F6000
00266000
0180E000
0180C000
00C1C000
00FF8000
003E0000
00000000
00000000
00000000
00000000
ENDCHAR

STARTCHAR Ca7f0
ENCODING 42992
SWIDTH 1000 0
DWIDTH 26 0
BBX 26 26 0 -4
BITMAP
00000000
00000000
00000000
00000000
00000000
00000000
00000000
00000000
00000000
0603C000
060FF000
061E7800
06181800
06381C00
07F00C00
07F00C00
06300C00
06381C00
06181800
061E7800
060FF000
0603C000
00000000
00000000
00000000
00000000
ENDCHAR

STARTCHAR Ca7f1
ENCODING 42993
SWIDTH 1000 0
DWIDTH 26 0
BBX 26 26 0 -4
BITMAP
00000000
00000000
00000000
00000000
00000000
00000000
00000000
00000000
00000000
003F8000
00FF8000
01C18000
01818000
01818000
01C18000
00FF8000
003F8000
00718000
00E18000
00C18000
01C18000
03818000
00000000
00000000
00000000
00000000
ENDCHAR

STARTCHAR Ca8a1
ENCODING 43169
SWIDTH 1000 0
DWIDTH 26 0
BBX 26 26 0 -4
BITMAP
00000000
00000000
00000000
00000000
00000000
00000000
00000000
00000000
00000000
00000000
00000000
00000000
FFFFFFC0
00000000
00000000
00000000
00000000
00000000
00000000
00000000
00000000
00000000
00000000
00000000
00000000
00000000
ENDCHAR

STARTCHAR Ca8a2
ENCODING 43170
SWIDTH 1000 0
DWIDTH 26 0
BBX 26 26 0 -4
BITMAP
00080000
00080000
00080000
00080000
00080000
00080000
00080000
00080000
00080000
00080000
00080000
00080000
00080000
00080000
00080000
00080000
00080000
00080000
00080000
00080000
00080000
00080000
00080000
00080000
00080000
00080000
ENDCHAR

STARTCHAR Ca8a3
ENCODING 43171
SWIDTH 1000 0
DWIDTH 26 0
BBX 26 26 0 -4
BITMAP
00000000
00000000
00000000
00000000
00000000
00000000
00000000
00000000
00000000
00000000
00000000
00000000
000FFFC0
00080000
00080000
00080000
00080000
00080000
00080000
00080000
00080000
00080000
00080000
00080000
00080000
00080000
ENDCHAR

STARTCHAR Ca8a4
ENCODING 43172
SWIDTH 1000 0
DWIDTH 26 0
BBX 26 26 0 -4
BITMAP
00000000
00000000
00000000
00000000
00000000
00000000
00000000
00000000
00000000
00000000
00000000
00000000
FFF80000
00080000
00080000
00080000
00080000
00080000
00080000
00080000
00080000
00080000
00080000
00080000
00080000
00080000
ENDCHAR

STARTCHAR Ca8a5
ENCODING 43173
SWIDTH 1000 0
DWIDTH 26 0
BBX 26 26 0 -4
BITMAP
00080000
00080000
00080000
00080000
00080000
00080000
00080000
00080000
00080000
00080000
00080000
00080000
FFF80000
00000000
00000000
00000000
00000000
00000000
00000000
00000000
00000000
00000000
00000000
00000000
00000000
00000000
ENDCHAR

STARTCHAR Ca8a6
ENCODING 43174
SWIDTH 1000 0
DWIDTH 26 0
BBX 26 26 0 -4
BITMAP
00080000
00080000
00080000
00080000
00080000
00080000
00080000
00080000
00080000
00080000
00080000
00080000
000FFFC0
00000000
00000000
00000000
00000000
00000000
00000000
00000000
00000000
00000000
00000000
00000000
00000000
00000000
ENDCHAR

STARTCHAR Ca8a7
ENCODING 43175
SWIDTH 1000 0
DWIDTH 26 0
BBX 26 26 0 -4
BITMAP
00080000
00080000
00080000
00080000
00080000
00080000
00080000
00080000
00080000
00080000
00080000
00080000
000FFFC0
00080000
00080000
00080000
00080000
00080000
00080000
00080000
00080000
00080000
00080000
00080000
00080000
00080000
ENDCHAR

STARTCHAR Ca8a8
ENCODING 43176
SWIDTH 1000 0
DWIDTH 26 0
BBX 26 26 0 -4
BITMAP
00000000
00000000
00000000
00000000
00000000
00000000
00000000
00000000
00000000
00000000
00000000
00000000
FFFFFFC0
00080000
00080000
00080000
00080000
00080000
00080000
00080000
00080000
00080000
00080000
00080000
00080000
00080000
ENDCHAR

STARTCHAR Ca8a9
ENCODING 43177
SWIDTH 1000 0
DWIDTH 26 0
BBX 26 26 0 -4
BITMAP
00080000
00080000
00080000
00080000
00080000
00080000
00080000
00080000
00080000
00080000
00080000
00080000
FFF80000
00080000
00080000
00080000
00080000
00080000
00080000
00080000
00080000
00080000
00080000
00080000
00080000
00080000
ENDCHAR

STARTCHAR Ca8aa
ENCODING 43178
SWIDTH 1000 0
DWIDTH 26 0
BBX 26 26 0 -4
BITMAP
00080000
00080000
00080000
00080000
00080000
00080000
00080000
00080000
00080000
00080000
00080000
00080000
FFFFFFC0
00000000
00000000
00000000
00000000
00000000
00000000
00000000
00000000
00000000
00000000
00000000
00000000
00000000
ENDCHAR

STARTCHAR Ca8ab
ENCODING 43179
SWIDTH 1000 0
DWIDTH 26 0
BBX 26 26 0 -4
BITMAP
00080000
00080000
00080000
00080000
00080000
00080000
00080000
00080000
00080000
00080000
00080000
00080000
FFFFFFC0
00080000
00080000
00080000
00080000
00080000
00080000
00080000
00080000
00080000
00080000
00080000
00080000
00080000
ENDCHAR

STARTCHAR Ca8ac
ENCODING 43180
SWIDTH 1000 0
DWIDTH 26 0
BBX 26 26 0 -4
BITMAP
00000000
00000000
00000000
00000000
00000000
00000000
00000000
00000000
00000000
00000000
00000000
FFFFFFC0
FFFFFFC0
FFFFFFC0
00000000
00000000
00000000
00000000
00000000
00000000
00000000
00000000
00000000
00000000
00000000
00000000
ENDCHAR

STARTCHAR Ca8ad
ENCODING 43181
SWIDTH 1000 0
DWIDTH 26 0
BBX 26 26 0 -4
BITMAP
001C0000
001C0000
001C0000
001C0000
001C0000
001C0000
001C0000
001C0000
001C0000
001C0000
001C0000
001C0000
001C0000
001C0000
001C0000
001C0000
001C0000
001C0000
001C0000
001C0000
001C0000
001C0000
001C0000
001C0000
001C0000
001C0000
ENDCHAR

STARTCHAR Ca8ae
ENCODING 43182
SWIDTH 1000 0
DWIDTH 26 0
BBX 26 26 0 -4
BITMAP
00000000
00000000
00000000
00000000
00000000
00000000
00000000
00000000
00000000
00000000
00000000
001FFFC0
001FFFC0
001FFFC0
001C0000
001C0000
001C0000
001C0000
001C0000
001C0000
001C0000
001C0000
001C0000
001C0000
001C0000
001C0000
ENDCHAR

STARTCHAR Ca8af
ENCODING 43183
SWIDTH 1000 0
DWIDTH 26 0
BBX 26 26 0 -4
BITMAP
00000000
00000000
00000000
00000000
00000000
00000000
00000000
00000000
00000000
00000000
00000000
FFFC0000
FFFC0000
FFFC0000
001C0000
001C0000
001C0000
001C0000
001C0000
001C0000
001C0000
001C0000
001C0000
001C0000
001C0000
001C0000
ENDCHAR

STARTCHAR Ca8b0
ENCODING 43184
SWIDTH 1000 0
DWIDTH 26 0
BBX 26 26 0 -4
BITMAP
001C0000
001C0000
001C0000
001C0000
001C0000
001C0000
001C0000
001C0000
001C0000
001C0000
001C0000
FFFC0000
FFFC0000
FFFC0000
00000000
00000000
00000000
00000000
00000000
00000000
00000000
00000000
00000000
00000000
00000000
00000000
ENDCHAR

STARTCHAR Ca8b1
ENCODING 43185
SWIDTH 1000 0
DWIDTH 26 0
BBX 26 26 0 -4
BITMAP
001C0000
001C0000
001C0000
001C0000
001C0000
001C0000
001C0000
001C0000
001C0000
001C0000
001C0000
001FFFC0
001FFFC0
001FFFC0
00000000
00000000
00000000
00000000
00000000
00000000
00000000
00000000
00000000
00000000
00000000
00000000
ENDCHAR

STARTCHAR Ca8b2
ENCODING 43186
SWIDTH 1000 0
DWIDTH 26 0
BBX 26 26 0 -4
BITMAP
001C0000
001C0000
001C0000
001C0000
001C0000
001C0000
001C0000
001C0000
001C0000
001C0000
001C0000
001FFFC0
001FFFC0
001FFFC0
001C0000
001C0000
001C0000
001C0000
001C0000
001C0000
001C0000
001C0000
001C0000
001C0000
001C0000
001C0000
ENDCHAR

STARTCHAR Ca8b3
ENCODING 43187
SWIDTH 1000 0
DWIDTH 26 0
BBX 26 26 0 -4
BITMAP
00000000
00000000
00000000
00000000
00000000
00000000
00000000
00000000
00000000
00000000
00000000
FFFFFFC0
FFFFFFC0
FFFFFFC0
001C0000
001C0000
001C0000
001C0000
001C0000
001C0000
001C0000
001C0000
001C0000
001C0000
001C0000
001C0000
ENDCHAR

STARTCHAR Ca8b4
ENCODING 43188
SWIDTH 1000 0
DWIDTH 26 0
BBX 26 26 0 -4
BITMAP
001C0000
001C0000
001C0000
001C0000
001C0000
001C0000
001C0000
001C0000
001C0000
001C0000
001C0000
FFFC0000
FFFC0000
FFFC0000
001C0000
001C0000
001C0000
001C0000
001C0000
001C0000
001C0000
001C0000
001C0000
001C0000
001C0000
001C0000
ENDCHAR

STARTCHAR Ca8b5
ENCODING 43189
SWIDTH 1000 0
DWIDTH 26 0
BBX 26 26 0 -4
BITMAP
001C0000
001C0000
001C0000
001C0000
001C0000
001C0000
001C0000
001C0000
001C0000
001C0000
001C0000
FFFFFFC0
FFFFFFC0
FFFFFFC0
00000000
00000000
00000000
00000000
00000000
00000000
00000000
00000000
00000000
00000000
00000000
00000000
ENDCHAR

STARTCHAR Ca8b6
ENCODING 43190
SWIDTH 1000 0
DWIDTH 26 0
BBX 26 26 0 -4
BITMAP
001C0000
001C0000
001C0000
001C0000
001C0000
001C0000
001C0000
001C0000
001C0000
001C0000
001C0000
FFFFFFC0
FFFFFFC0
FFFFFFC0
001C0000
001C0000
001C0000
001C0000
001C0000
001C0000
001C0000
001C0000
001C0000
001C0000
001C0000
001C0000
ENDCHAR

STARTCHAR Ca8b7
ENCODING 43191
SWIDTH 1000 0
DWIDTH 26 0
BBX 26 26 0 -4
BITMAP
001C0000
001C0000
001C0000
001C0000
001C0000
001C0000
001C0000
001C0000
001C0000
001C0000
001C0000
001C0000
001FFFC0
001C0000
001C0000
001C0000
001C0000
001C0000
001C0000
001C0000
001C0000
001C0000
001C0000
001C0000
001C0000
001C0000
ENDCHAR

STARTCHAR Ca8b8
ENCODING 43192
SWIDTH 1000 0
DWIDTH 26 0
BBX 26 26 0 -4
BITMAP
00000000
00000000
00000000
00000000
00000000
00000000
00000000
00000000
00000000
00000000
00000000
FFFFFFC0
FFFFFFC0
FFFFFFC0
00080000
00080000
00080000
00080000
00080000
00080000
00080000
00080000
00080000
00080000
00080000
00080000
ENDCHAR

STARTCHAR Ca8b9
ENCODING 43193
SWIDTH 1000 0
DWIDTH 26 0
BBX 26 26 0 -4
BITMAP
001C0000
001C0000
001C0000
001C0000
001C0000
001C0000
001C0000
001C0000
001C0000
001C0000
001C0000
001C0000
FFFC0000
001C0000
001C0000
001C0000
001C0000
001C0000
001C0000
001C0000
001C0000
001C0000
001C0000
001C0000
001C0000
001C0000
ENDCHAR

STARTCHAR Ca8ba
ENCODING 43194
SWIDTH 1000 0
DWIDTH 26 0
BBX 26 26 0 -4
BITMAP
00080000
00080000
00080000
00080000
00080000
00080000
00080000
00080000
00080000
00080000
00080000
FFFFFFC0
FFFFFFC0
FFFFFFC0
00000000
00000000
00000000
00000000
00000000
00000000
00000000
00000000
00000000
00000000
00000000
00000000
ENDCHAR

STARTCHAR Ca8bb
ENCODING 43195
SWIDTH 1000 0
DWIDTH 26 0
BBX 26 26 0 -4
BITMAP
00080000
00080000
00080000
00080000
00080000
00080000
00080000
00080000
00080000
00080000
00080000
FFFFFFC0
FFFFFFC0
FFFFFFC0
00080000
00080000
00080000
00080000
00080000
00080000
00080000
00080000
00080000
00080000
00080000
00080000
ENDCHAR

STARTCHAR Ca8bc
ENCODING 43196
SWIDTH 1000 0
DWIDTH 26 0
BBX 26 26 0 -4
BITMAP
00080000
00080000
00080000
00080000
00080000
00080000
00080000
00080000
00080000
00080000
00080000
000FFFC0
000FFFC0
000FFFC0
00080000
00080000
00080000
00080000
00080000
00080000
00080000
00080000
00080000
00080000
00080000
00080000
ENDCHAR

STARTCHAR Ca8bd
ENCODING 43197
SWIDTH 1000 0
DWIDTH 26 0
BBX 26 26 0 -4
BITMAP
00000000
00000000
00000000
00000000
00000000
00000000
00000000
00000000
00000000
00000000
00000000
00000000
FFFFFFC0
001C0000
001C0000
001C0000
001C0000
001C0000
001C0000
001C0000
001C0000
001C0000
001C0000
001C0000
001C0000
001C0000
ENDCHAR

STARTCHAR Ca8be
ENCODING 43198
SWIDTH 1000 0
DWIDTH 26 0
BBX 26 26 0 -4
BITMAP
00080000
00080000
00080000
00080000
00080000
00080000
00080000
00080000
00080000
00080000
00080000
FFF80000
FFF80000
FFF80000
00080000
00080000
00080000
00080000
00080000
00080000
00080000
00080000
00080000
00080000
00080000
00080000
ENDCHAR

STARTCHAR Ca8bf
ENCODING 43199
SWIDTH 1000 0
DWIDTH 26 0
BBX 26 26 0 -4
BITMAP
001C0000
001C0000
001C0000
001C0000
001C0000
001C0000
001C0000
001C0000
001C0000
001C0000
001C0000
001C0000
FFFFFFC0
00000000
00000000
00000000
00000000
00000000
00000000
00000000
00000000
00000000
00000000
00000000
00000000
00000000
ENDCHAR

STARTCHAR Ca8c0
ENCODING 43200
SWIDTH 1000 0
DWIDTH 26 0
BBX 26 26 0 -4
BITMAP
001C0000
001C0000
001C0000
001C0000
001C0000
001C0000
001C0000
001C0000
001C0000
001C0000
001C0000
001C0000
FFFFFFC0
001C0000
001C0000
001C0000
001C0000
001C0000
001C0000
001C0000
001C0000
001C0000
001C0000
001C0000
001C0000
001C0000
ENDCHAR

STARTCHAR Cb0a1
ENCODING 45217
SWIDTH 1000 0
DWIDTH 26 0
BBX 26 26 0 -4
BITMAP
00000000
00000000
00000000
3FFFFF00
3FFFFF00
00618000
00618000
00618000
00618000
1FFFFE00
1FFFFE00
18618600
18618600
18618600
18618600
1FFFFE00
1FFFFE00
18618600
18618600
00618000
00618000
00618000
7FFFFF80
7FFFFF80
00000000
00000000
ENDCHAR

STARTCHAR Cb0a2
ENCODING 45218
SWIDTH 1000 0
DWIDTH 26 0
BBX 26 26 0 -4
BITMAP
00000000
00000000
00000000
00FFFF00
00FFFF00
3F066000
3F066000
33066000
33066000
337FFE00
337FFE00
33666600
33666600
33666600
33666600
337FFE00
3F7FFE00
3F666600
33066000
30066000
00066000
00066000
01FFFF80
01FFFF80
00000000
00000000
ENDCHAR

STARTCHAR Cb0a3
ENCODING 45219
SWIDTH 1000 0
DWIDTH 26 0
BBX 26 26 0 -4
BITMAP
00000000
0600C000
0600C000
0600C000
0600C000
0C0FFE00
0C0FFE00
7FC0C000
7FC0C000
18C0C000
18DFFF00
18DFFF00
38C00000
31C0C000
3180C000
7980C000
7D9FFE00
2F1FFE00
0780C000
0EC0C000
0CE0C000
1C40C000
387FFF80
707FFF80
20000000
00000000
ENDCHAR

ENDFONT
